ISO-10303-21;
HEADER;
/* Generated by software containing ST-Developer
 * from STEP Tools, Inc. (www.steptools.com) 
 */

FILE_DESCRIPTION(
/* description */ ('KiCad electronic assembly'),
/* implementation_level */ '2;1');

FILE_NAME(
/* name */ 'Hermes top [1].step',
/* time_stamp */ '2026-07-29T11:45:51+05:30',
/* author */ (''),
/* organization */ (''),
/* preprocessor_version */ 'ST-DEVELOPER v20.1',
/* originating_system */ 'Autodesk Translation Framework v14.24.0.0',
/* authorisation */ '');

FILE_SCHEMA (('AUTOMOTIVE_DESIGN { 1 0 10303 214 3 1 1 }'));
ENDSEC;

DATA;
#10=MECHANICAL_DESIGN_GEOMETRIC_PRESENTATION_REPRESENTATION('',(#13),#1852);
#11=SHAPE_REPRESENTATION_RELATIONSHIP('SRR','None',#1858,#12);
#12=ADVANCED_BREP_SHAPE_REPRESENTATION('',(#14),#1851);
#13=STYLED_ITEM('',(#1867),#14);
#14=MANIFOLD_SOLID_BREP('Body8',#1048);
#15=(
BOUNDED_SURFACE()
B_SPLINE_SURFACE(5,1,((#1642,#1643),(#1644,#1645),(#1646,#1647),(#1648,
#1649),(#1650,#1651),(#1652,#1653),(#1654,#1655),(#1656,#1657),(#1658,#1659),
(#1660,#1661)),.UNSPECIFIED.,.F.,.F.,.F.)
B_SPLINE_SURFACE_WITH_KNOTS((6,1,1,1,1,6),(2,2),(0.,0.1,0.2,0.3,0.4,0.401290619180489),
(0.,7.),.UNSPECIFIED.)
GEOMETRIC_REPRESENTATION_ITEM()
RATIONAL_B_SPLINE_SURFACE(((1.,1.),(1.,1.),(1.,1.),(1.,1.),(1.,1.),(1.,
1.),(1.,1.),(1.,1.),(1.,1.),(1.,1.)))
REPRESENTATION_ITEM('')
SURFACE()
);
#16=(
BOUNDED_SURFACE()
B_SPLINE_SURFACE(5,1,((#1674,#1675),(#1676,#1677),(#1678,#1679),(#1680,
#1681),(#1682,#1683),(#1684,#1685),(#1686,#1687),(#1688,#1689),(#1690,#1691),
(#1692,#1693),(#1694,#1695)),.UNSPECIFIED.,.F.,.F.,.F.)
B_SPLINE_SURFACE_WITH_KNOTS((6,1,1,1,1,1,6),(2,2),(0.40129061918049,0.5,
0.6,0.7,0.8,0.9,1.),(0.,7.),.UNSPECIFIED.)
GEOMETRIC_REPRESENTATION_ITEM()
RATIONAL_B_SPLINE_SURFACE(((1.,1.),(1.,1.),(1.,1.),(1.,1.),(1.,1.),(1.,
1.),(1.,1.),(1.,1.),(1.,1.),(1.,1.),(1.,1.)))
REPRESENTATION_ITEM('')
SURFACE()
);
#17=(
BOUNDED_SURFACE()
B_SPLINE_SURFACE(5,1,((#1707,#1708),(#1709,#1710),(#1711,#1712),(#1713,
#1714),(#1715,#1716),(#1717,#1718),(#1719,#1720),(#1721,#1722),(#1723,#1724),
(#1725,#1726),(#1727,#1728),(#1729,#1730)),.UNSPECIFIED.,.F.,.F.,.F.)
B_SPLINE_SURFACE_WITH_KNOTS((6,1,1,1,1,1,1,6),(2,2),(-1.,-0.9,-0.8,-0.7,
-0.6,-0.5,-0.4,-0.350637509471934),(0.,7.),.UNSPECIFIED.)
GEOMETRIC_REPRESENTATION_ITEM()
RATIONAL_B_SPLINE_SURFACE(((1.,1.),(1.,1.),(1.,1.),(1.,1.),(1.,1.),(1.,
1.),(1.,1.),(1.,1.),(1.,1.),(1.,1.),(1.,1.),(1.,1.)))
REPRESENTATION_ITEM('')
SURFACE()
);
#18=(
BOUNDED_SURFACE()
B_SPLINE_SURFACE(5,1,((#1745,#1746),(#1747,#1748),(#1749,#1750),(#1751,
#1752),(#1753,#1754),(#1755,#1756),(#1757,#1758),(#1759,#1760),(#1761,#1762)),
 .UNSPECIFIED.,.F.,.F.,.F.)
B_SPLINE_SURFACE_WITH_KNOTS((6,1,1,1,6),(2,2),(-0.35063750947193,-0.3,-0.2,
-0.1,0.),(0.,7.),.UNSPECIFIED.)
GEOMETRIC_REPRESENTATION_ITEM()
RATIONAL_B_SPLINE_SURFACE(((1.,1.),(1.,1.),(1.,1.),(1.,1.),(1.,1.),(1.,
1.),(1.,1.),(1.,1.),(1.,1.)))
REPRESENTATION_ITEM('')
SURFACE()
);
#19=ELLIPSE('',#1093,1.96299091524473,1.7);
#20=ELLIPSE('',#1094,1.96299091524473,1.7);
#21=ELLIPSE('',#1100,1.96299091524473,1.7);
#22=ELLIPSE('',#1101,1.96299091524474,1.70000000000001);
#23=(
BOUNDED_CURVE()
B_SPLINE_CURVE(5,(#1569,#1570,#1571,#1572,#1573,#1574,#1575,#1576,#1577,
#1578),.UNSPECIFIED.,.F.,.F.)
B_SPLINE_CURVE_WITH_KNOTS((6,1,1,1,1,6),(0.,0.1,0.2,0.3,0.4,0.401290619180489),
 .UNSPECIFIED.)
CURVE()
GEOMETRIC_REPRESENTATION_ITEM()
RATIONAL_B_SPLINE_CURVE((1.,1.,1.,1.,1.,1.,1.,1.,1.,1.))
REPRESENTATION_ITEM('')
);
#24=(
BOUNDED_CURVE()
B_SPLINE_CURVE(5,(#1579,#1580,#1581,#1582,#1583,#1584,#1585,#1586,#1587,
#1588,#1589),.UNSPECIFIED.,.F.,.F.)
B_SPLINE_CURVE_WITH_KNOTS((6,1,1,1,1,1,6),(0.40129061918049,0.5,0.6,0.7,
0.8,0.9,1.),.UNSPECIFIED.)
CURVE()
GEOMETRIC_REPRESENTATION_ITEM()
RATIONAL_B_SPLINE_CURVE((1.,1.,1.,1.,1.,1.,1.,1.,1.,1.,1.))
REPRESENTATION_ITEM('')
);
#25=(
BOUNDED_CURVE()
B_SPLINE_CURVE(5,(#1591,#1592,#1593,#1594,#1595,#1596,#1597,#1598,#1599,
#1600,#1601,#1602),.UNSPECIFIED.,.F.,.F.)
B_SPLINE_CURVE_WITH_KNOTS((6,1,1,1,1,1,1,6),(-1.,-0.9,-0.8,-0.7,-0.6,-0.5,
-0.4,-0.350637509471934),.UNSPECIFIED.)
CURVE()
GEOMETRIC_REPRESENTATION_ITEM()
RATIONAL_B_SPLINE_CURVE((1.,1.,1.,1.,1.,1.,1.,1.,1.,1.,1.,1.))
REPRESENTATION_ITEM('')
);
#26=(
BOUNDED_CURVE()
B_SPLINE_CURVE(5,(#1604,#1605,#1606,#1607,#1608,#1609,#1610,#1611,#1612),
 .UNSPECIFIED.,.F.,.F.)
B_SPLINE_CURVE_WITH_KNOTS((6,1,1,1,6),(-0.35063750947193,-0.3,-0.2,-0.1,
0.),.UNSPECIFIED.)
CURVE()
GEOMETRIC_REPRESENTATION_ITEM()
RATIONAL_B_SPLINE_CURVE((1.,1.,1.,1.,1.,1.,1.,1.,1.))
REPRESENTATION_ITEM('')
);
#27=(
BOUNDED_CURVE()
B_SPLINE_CURVE(5,(#1663,#1664,#1665,#1666,#1667,#1668,#1669,#1670,#1671,
#1672),.UNSPECIFIED.,.F.,.F.)
B_SPLINE_CURVE_WITH_KNOTS((6,1,1,1,1,6),(0.,0.1,0.2,0.3,0.4,0.40129061918049),
 .UNSPECIFIED.)
CURVE()
GEOMETRIC_REPRESENTATION_ITEM()
RATIONAL_B_SPLINE_CURVE((1.,1.,1.,1.,1.,1.,1.,1.,1.,1.))
REPRESENTATION_ITEM('')
);
#28=(
BOUNDED_CURVE()
B_SPLINE_CURVE(5,(#1696,#1697,#1698,#1699,#1700,#1701,#1702,#1703,#1704,
#1705,#1706),.UNSPECIFIED.,.F.,.F.)
B_SPLINE_CURVE_WITH_KNOTS((6,1,1,1,1,1,6),(0.40129061918049,0.5,0.6,0.7,
0.8,0.9,1.),.UNSPECIFIED.)
CURVE()
GEOMETRIC_REPRESENTATION_ITEM()
RATIONAL_B_SPLINE_CURVE((1.,1.,1.,1.,1.,1.,1.,1.,1.,1.,1.))
REPRESENTATION_ITEM('')
);
#29=(
BOUNDED_CURVE()
B_SPLINE_CURVE(5,(#1732,#1733,#1734,#1735,#1736,#1737,#1738,#1739,#1740,
#1741,#1742,#1743),.UNSPECIFIED.,.F.,.F.)
B_SPLINE_CURVE_WITH_KNOTS((6,1,1,1,1,1,1,6),(0.35063750947193,0.4,0.5,0.6,
0.7,0.8,0.9,1.),.UNSPECIFIED.)
CURVE()
GEOMETRIC_REPRESENTATION_ITEM()
RATIONAL_B_SPLINE_CURVE((1.,1.,1.,1.,1.,1.,1.,1.,1.,1.,1.,1.))
REPRESENTATION_ITEM('')
);
#30=(
BOUNDED_CURVE()
B_SPLINE_CURVE(5,(#1764,#1765,#1766,#1767,#1768,#1769,#1770,#1771,#1772),
 .UNSPECIFIED.,.F.,.F.)
B_SPLINE_CURVE_WITH_KNOTS((6,1,1,1,6),(0.,0.1,0.2,0.3,0.35063750947193),
 .UNSPECIFIED.)
CURVE()
GEOMETRIC_REPRESENTATION_ITEM()
RATIONAL_B_SPLINE_CURVE((1.,1.,1.,1.,1.,1.,1.,1.,1.))
REPRESENTATION_ITEM('')
);
#31=FACE_BOUND('',#133,.T.);
#32=FACE_BOUND('',#134,.T.);
#33=FACE_BOUND('',#135,.T.);
#34=FACE_BOUND('',#136,.T.);
#35=FACE_BOUND('',#137,.T.);
#36=FACE_BOUND('',#138,.T.);
#37=FACE_BOUND('',#143,.T.);
#38=FACE_BOUND('',#153,.T.);
#39=FACE_BOUND('',#164,.T.);
#40=FACE_BOUND('',#165,.T.);
#41=FACE_BOUND('',#167,.T.);
#42=FACE_BOUND('',#168,.T.);
#43=FACE_BOUND('',#176,.T.);
#44=FACE_BOUND('',#177,.T.);
#45=FACE_BOUND('',#179,.T.);
#46=FACE_BOUND('',#180,.T.);
#47=FACE_BOUND('',#197,.T.);
#48=FACE_BOUND('',#198,.T.);
#49=FACE_BOUND('',#199,.T.);
#50=FACE_BOUND('',#200,.T.);
#51=FACE_BOUND('',#201,.T.);
#52=PLANE('',#1053);
#53=PLANE('',#1061);
#54=PLANE('',#1066);
#55=PLANE('',#1069);
#56=PLANE('',#1070);
#57=PLANE('',#1071);
#58=PLANE('',#1072);
#59=PLANE('',#1073);
#60=PLANE('',#1074);
#61=PLANE('',#1075);
#62=PLANE('',#1076);
#63=PLANE('',#1077);
#64=PLANE('',#1078);
#65=PLANE('',#1079);
#66=PLANE('',#1080);
#67=PLANE('',#1081);
#68=PLANE('',#1082);
#69=PLANE('',#1083);
#70=PLANE('',#1084);
#71=PLANE('',#1085);
#72=PLANE('',#1089);
#73=PLANE('',#1092);
#74=PLANE('',#1099);
#75=PLANE('',#1102);
#76=PLANE('',#1122);
#77=PLANE('',#1123);
#78=PLANE('',#1125);
#79=PLANE('',#1126);
#80=PLANE('',#1129);
#81=FACE_OUTER_BOUND('',#131,.T.);
#82=FACE_OUTER_BOUND('',#132,.T.);
#83=FACE_OUTER_BOUND('',#139,.T.);
#84=FACE_OUTER_BOUND('',#140,.T.);
#85=FACE_OUTER_BOUND('',#141,.T.);
#86=FACE_OUTER_BOUND('',#142,.T.);
#87=FACE_OUTER_BOUND('',#144,.T.);
#88=FACE_OUTER_BOUND('',#145,.T.);
#89=FACE_OUTER_BOUND('',#146,.T.);
#90=FACE_OUTER_BOUND('',#147,.T.);
#91=FACE_OUTER_BOUND('',#148,.T.);
#92=FACE_OUTER_BOUND('',#149,.T.);
#93=FACE_OUTER_BOUND('',#150,.T.);
#94=FACE_OUTER_BOUND('',#151,.T.);
#95=FACE_OUTER_BOUND('',#152,.T.);
#96=FACE_OUTER_BOUND('',#154,.T.);
#97=FACE_OUTER_BOUND('',#155,.T.);
#98=FACE_OUTER_BOUND('',#156,.T.);
#99=FACE_OUTER_BOUND('',#157,.T.);
#100=FACE_OUTER_BOUND('',#158,.T.);
#101=FACE_OUTER_BOUND('',#159,.T.);
#102=FACE_OUTER_BOUND('',#160,.T.);
#103=FACE_OUTER_BOUND('',#161,.T.);
#104=FACE_OUTER_BOUND('',#162,.T.);
#105=FACE_OUTER_BOUND('',#163,.T.);
#106=FACE_OUTER_BOUND('',#166,.T.);
#107=FACE_OUTER_BOUND('',#169,.T.);
#108=FACE_OUTER_BOUND('',#170,.T.);
#109=FACE_OUTER_BOUND('',#171,.T.);
#110=FACE_OUTER_BOUND('',#172,.T.);
#111=FACE_OUTER_BOUND('',#173,.T.);
#112=FACE_OUTER_BOUND('',#174,.T.);
#113=FACE_OUTER_BOUND('',#175,.T.);
#114=FACE_OUTER_BOUND('',#178,.T.);
#115=FACE_OUTER_BOUND('',#181,.T.);
#116=FACE_OUTER_BOUND('',#182,.T.);
#117=FACE_OUTER_BOUND('',#183,.T.);
#118=FACE_OUTER_BOUND('',#184,.T.);
#119=FACE_OUTER_BOUND('',#185,.T.);
#120=FACE_OUTER_BOUND('',#186,.T.);
#121=FACE_OUTER_BOUND('',#187,.T.);
#122=FACE_OUTER_BOUND('',#188,.T.);
#123=FACE_OUTER_BOUND('',#189,.T.);
#124=FACE_OUTER_BOUND('',#190,.T.);
#125=FACE_OUTER_BOUND('',#191,.T.);
#126=FACE_OUTER_BOUND('',#192,.T.);
#127=FACE_OUTER_BOUND('',#193,.T.);
#128=FACE_OUTER_BOUND('',#194,.T.);
#129=FACE_OUTER_BOUND('',#195,.T.);
#130=FACE_OUTER_BOUND('',#196,.T.);
#131=EDGE_LOOP('',(#687,#688,#689,#690));
#132=EDGE_LOOP('',(#691,#692,#693,#694,#695,#696,#697,#698,#699,#700,#701,
#702));
#133=EDGE_LOOP('',(#703));
#134=EDGE_LOOP('',(#704));
#135=EDGE_LOOP('',(#705));
#136=EDGE_LOOP('',(#706));
#137=EDGE_LOOP('',(#707,#708,#709,#710));
#138=EDGE_LOOP('',(#711,#712,#713,#714,#715,#716));
#139=EDGE_LOOP('',(#717,#718,#719,#720));
#140=EDGE_LOOP('',(#721,#722,#723,#724));
#141=EDGE_LOOP('',(#725,#726,#727,#728));
#142=EDGE_LOOP('',(#729,#730,#731,#732));
#143=EDGE_LOOP('',(#733,#734,#735,#736));
#144=EDGE_LOOP('',(#737,#738,#739,#740));
#145=EDGE_LOOP('',(#741,#742,#743,#744));
#146=EDGE_LOOP('',(#745,#746,#747,#748));
#147=EDGE_LOOP('',(#749,#750,#751,#752));
#148=EDGE_LOOP('',(#753,#754,#755,#756));
#149=EDGE_LOOP('',(#757,#758,#759,#760));
#150=EDGE_LOOP('',(#761,#762,#763,#764));
#151=EDGE_LOOP('',(#765,#766,#767,#768));
#152=EDGE_LOOP('',(#769,#770,#771,#772,#773,#774,#775,#776));
#153=EDGE_LOOP('',(#777,#778,#779,#780));
#154=EDGE_LOOP('',(#781,#782,#783,#784,#785,#786));
#155=EDGE_LOOP('',(#787,#788,#789,#790,#791,#792));
#156=EDGE_LOOP('',(#793,#794,#795,#796,#797,#798,#799,#800,#801,#802));
#157=EDGE_LOOP('',(#803,#804,#805,#806));
#158=EDGE_LOOP('',(#807,#808,#809,#810));
#159=EDGE_LOOP('',(#811,#812,#813,#814));
#160=EDGE_LOOP('',(#815,#816,#817,#818));
#161=EDGE_LOOP('',(#819,#820,#821,#822));
#162=EDGE_LOOP('',(#823,#824,#825,#826,#827,#828,#829,#830,#831,#832,#833,
#834));
#163=EDGE_LOOP('',(#835,#836,#837,#838));
#164=EDGE_LOOP('',(#839));
#165=EDGE_LOOP('',(#840));
#166=EDGE_LOOP('',(#841,#842,#843,#844));
#167=EDGE_LOOP('',(#845));
#168=EDGE_LOOP('',(#846));
#169=EDGE_LOOP('',(#847,#848,#849,#850));
#170=EDGE_LOOP('',(#851,#852,#853,#854));
#171=EDGE_LOOP('',(#855,#856,#857,#858));
#172=EDGE_LOOP('',(#859,#860,#861,#862));
#173=EDGE_LOOP('',(#863,#864,#865,#866));
#174=EDGE_LOOP('',(#867,#868,#869,#870));
#175=EDGE_LOOP('',(#871,#872,#873,#874));
#176=EDGE_LOOP('',(#875));
#177=EDGE_LOOP('',(#876));
#178=EDGE_LOOP('',(#877,#878,#879,#880));
#179=EDGE_LOOP('',(#881));
#180=EDGE_LOOP('',(#882));
#181=EDGE_LOOP('',(#883,#884,#885,#886));
#182=EDGE_LOOP('',(#887,#888,#889,#890));
#183=EDGE_LOOP('',(#891,#892,#893,#894));
#184=EDGE_LOOP('',(#895,#896,#897,#898));
#185=EDGE_LOOP('',(#899,#900,#901,#902));
#186=EDGE_LOOP('',(#903,#904,#905,#906));
#187=EDGE_LOOP('',(#907,#908,#909,#910));
#188=EDGE_LOOP('',(#911,#912,#913,#914));
#189=EDGE_LOOP('',(#915,#916,#917,#918));
#190=EDGE_LOOP('',(#919,#920,#921,#922));
#191=EDGE_LOOP('',(#923,#924));
#192=EDGE_LOOP('',(#925,#926));
#193=EDGE_LOOP('',(#927,#928,#929,#930,#931,#932,#933,#934,#935,#936,#937,
#938,#939,#940,#941,#942));
#194=EDGE_LOOP('',(#943,#944,#945,#946,#947,#948,#949,#950,#951,#952,#953,
#954,#955,#956));
#195=EDGE_LOOP('',(#957,#958,#959,#960));
#196=EDGE_LOOP('',(#961,#962,#963,#964,#965,#966,#967,#968));
#197=EDGE_LOOP('',(#969,#970,#971,#972,#973,#974,#975,#976));
#198=EDGE_LOOP('',(#977));
#199=EDGE_LOOP('',(#978));
#200=EDGE_LOOP('',(#979));
#201=EDGE_LOOP('',(#980));
#202=LINE('',#1403,#307);
#203=LINE('',#1406,#308);
#204=LINE('',#1409,#309);
#205=LINE('',#1413,#310);
#206=LINE('',#1417,#311);
#207=LINE('',#1421,#312);
#208=LINE('',#1423,#313);
#209=LINE('',#1425,#314);
#210=LINE('',#1427,#315);
#211=LINE('',#1428,#316);
#212=LINE('',#1439,#317);
#213=LINE('',#1441,#318);
#214=LINE('',#1443,#319);
#215=LINE('',#1444,#320);
#216=LINE('',#1447,#321);
#217=LINE('',#1449,#322);
#218=LINE('',#1451,#323);
#219=LINE('',#1453,#324);
#220=LINE('',#1455,#325);
#221=LINE('',#1456,#326);
#222=LINE('',#1459,#327);
#223=LINE('',#1460,#328);
#224=LINE('',#1464,#329);
#225=LINE('',#1469,#330);
#226=LINE('',#1470,#331);
#227=LINE('',#1473,#332);
#228=LINE('',#1474,#333);
#229=LINE('',#1477,#334);
#230=LINE('',#1479,#335);
#231=LINE('',#1481,#336);
#232=LINE('',#1482,#337);
#233=LINE('',#1486,#338);
#234=LINE('',#1488,#339);
#235=LINE('',#1492,#340);
#236=LINE('',#1493,#341);
#237=LINE('',#1494,#342);
#238=LINE('',#1497,#343);
#239=LINE('',#1498,#344);
#240=LINE('',#1501,#345);
#241=LINE('',#1503,#346);
#242=LINE('',#1504,#347);
#243=LINE('',#1507,#348);
#244=LINE('',#1508,#349);
#245=LINE('',#1511,#350);
#246=LINE('',#1513,#351);
#247=LINE('',#1514,#352);
#248=LINE('',#1517,#353);
#249=LINE('',#1519,#354);
#250=LINE('',#1520,#355);
#251=LINE('',#1523,#356);
#252=LINE('',#1524,#357);
#253=LINE('',#1526,#358);
#254=LINE('',#1528,#359);
#255=LINE('',#1529,#360);
#256=LINE('',#1532,#361);
#257=LINE('',#1534,#362);
#258=LINE('',#1536,#363);
#259=LINE('',#1537,#364);
#260=LINE('',#1540,#365);
#261=LINE('',#1541,#366);
#262=LINE('',#1544,#367);
#263=LINE('',#1545,#368);
#264=LINE('',#1548,#369);
#265=LINE('',#1549,#370);
#266=LINE('',#1550,#371);
#267=LINE('',#1553,#372);
#268=LINE('',#1554,#373);
#269=LINE('',#1556,#374);
#270=LINE('',#1558,#375);
#271=LINE('',#1563,#376);
#272=LINE('',#1565,#377);
#273=LINE('',#1616,#378);
#274=LINE('',#1618,#379);
#275=LINE('',#1623,#380);
#276=LINE('',#1624,#381);
#277=LINE('',#1625,#382);
#278=LINE('',#1632,#383);
#279=LINE('',#1633,#384);
#280=LINE('',#1641,#385);
#281=LINE('',#1673,#386);
#282=LINE('',#1744,#387);
#283=LINE('',#1773,#388);
#284=LINE('',#1777,#389);
#285=LINE('',#1780,#390);
#286=LINE('',#1781,#391);
#287=LINE('',#1788,#392);
#288=LINE('',#1789,#393);
#289=LINE('',#1798,#394);
#290=LINE('',#1803,#395);
#291=LINE('',#1806,#396);
#292=LINE('',#1810,#397);
#293=LINE('',#1813,#398);
#294=LINE('',#1815,#399);
#295=LINE('',#1817,#400);
#296=LINE('',#1819,#401);
#297=LINE('',#1825,#402);
#298=LINE('',#1828,#403);
#299=LINE('',#1830,#404);
#300=LINE('',#1834,#405);
#301=LINE('',#1837,#406);
#302=LINE('',#1840,#407);
#303=LINE('',#1841,#408);
#304=LINE('',#1843,#409);
#305=LINE('',#1844,#410);
#306=LINE('',#1845,#411);
#307=VECTOR('',#1136,10.);
#308=VECTOR('',#1139,10.);
#309=VECTOR('',#1142,10.);
#310=VECTOR('',#1145,10.);
#311=VECTOR('',#1148,10.);
#312=VECTOR('',#1151,10.);
#313=VECTOR('',#1152,10.);
#314=VECTOR('',#1153,10.);
#315=VECTOR('',#1154,10.);
#316=VECTOR('',#1155,10.);
#317=VECTOR('',#1164,10.);
#318=VECTOR('',#1165,10.);
#319=VECTOR('',#1166,10.);
#320=VECTOR('',#1167,10.);
#321=VECTOR('',#1168,10.);
#322=VECTOR('',#1169,10.);
#323=VECTOR('',#1170,10.);
#324=VECTOR('',#1171,10.);
#325=VECTOR('',#1172,10.);
#326=VECTOR('',#1173,10.);
#327=VECTOR('',#1176,10.);
#328=VECTOR('',#1177,10.);
#329=VECTOR('',#1182,10.);
#330=VECTOR('',#1187,10.);
#331=VECTOR('',#1188,10.);
#332=VECTOR('',#1191,10.);
#333=VECTOR('',#1192,10.);
#334=VECTOR('',#1193,10.);
#335=VECTOR('',#1194,10.);
#336=VECTOR('',#1195,10.);
#337=VECTOR('',#1196,10.);
#338=VECTOR('',#1201,10.);
#339=VECTOR('',#1204,10.);
#340=VECTOR('',#1207,10.);
#341=VECTOR('',#1208,10.);
#342=VECTOR('',#1209,10.);
#343=VECTOR('',#1212,10.);
#344=VECTOR('',#1213,10.);
#345=VECTOR('',#1216,10.);
#346=VECTOR('',#1217,10.);
#347=VECTOR('',#1218,10.);
#348=VECTOR('',#1221,10.);
#349=VECTOR('',#1222,10.);
#350=VECTOR('',#1225,10.);
#351=VECTOR('',#1226,10.);
#352=VECTOR('',#1227,10.);
#353=VECTOR('',#1230,10.);
#354=VECTOR('',#1231,10.);
#355=VECTOR('',#1232,10.);
#356=VECTOR('',#1235,10.);
#357=VECTOR('',#1236,10.);
#358=VECTOR('',#1237,10.);
#359=VECTOR('',#1238,10.);
#360=VECTOR('',#1239,10.);
#361=VECTOR('',#1240,10.);
#362=VECTOR('',#1241,10.);
#363=VECTOR('',#1242,10.);
#364=VECTOR('',#1243,10.);
#365=VECTOR('',#1246,10.);
#366=VECTOR('',#1247,10.);
#367=VECTOR('',#1250,10.);
#368=VECTOR('',#1251,10.);
#369=VECTOR('',#1254,10.);
#370=VECTOR('',#1255,10.);
#371=VECTOR('',#1256,10.);
#372=VECTOR('',#1261,10.);
#373=VECTOR('',#1262,10.);
#374=VECTOR('',#1265,10.);
#375=VECTOR('',#1268,10.);
#376=VECTOR('',#1273,10.);
#377=VECTOR('',#1274,10.);
#378=VECTOR('',#1279,10.);
#379=VECTOR('',#1280,10.);
#380=VECTOR('',#1285,10.);
#381=VECTOR('',#1286,10.);
#382=VECTOR('',#1287,10.);
#383=VECTOR('',#1294,10.);
#384=VECTOR('',#1295,10.);
#385=VECTOR('',#1304,10.);
#386=VECTOR('',#1305,10.);
#387=VECTOR('',#1306,10.);
#388=VECTOR('',#1307,10.);
#389=VECTOR('',#1312,10.);
#390=VECTOR('',#1315,10.);
#391=VECTOR('',#1316,10.);
#392=VECTOR('',#1323,10.);
#393=VECTOR('',#1324,10.);
#394=VECTOR('',#1335,1.7);
#395=VECTOR('',#1342,1.7);
#396=VECTOR('',#1345,1.7);
#397=VECTOR('',#1350,1.7);
#398=VECTOR('',#1355,1.70000000000001);
#399=VECTOR('',#1358,1.7);
#400=VECTOR('',#1361,1.7);
#401=VECTOR('',#1364,1.7);
#402=VECTOR('',#1369,10.);
#403=VECTOR('',#1372,10.);
#404=VECTOR('',#1375,10.);
#405=VECTOR('',#1378,10.);
#406=VECTOR('',#1383,10.);
#407=VECTOR('',#1386,10.);
#408=VECTOR('',#1387,10.);
#409=VECTOR('',#1388,10.);
#410=VECTOR('',#1389,10.);
#411=VECTOR('',#1390,10.);
#412=CIRCLE('',#1051,7.5);
#413=CIRCLE('',#1052,7.5);
#414=CIRCLE('',#1054,7.5);
#415=CIRCLE('',#1055,7.5);
#416=CIRCLE('',#1056,7.5);
#417=CIRCLE('',#1057,1.7);
#418=CIRCLE('',#1058,1.7);
#419=CIRCLE('',#1059,1.7);
#420=CIRCLE('',#1060,1.7);
#421=CIRCLE('',#1063,7.5);
#422=CIRCLE('',#1065,7.5);
#423=CIRCLE('',#1068,7.5);
#424=CIRCLE('',#1086,14.5);
#425=CIRCLE('',#1087,14.5);
#426=CIRCLE('',#1088,11.0000005364418);
#427=CIRCLE('',#1090,1.7);
#428=CIRCLE('',#1091,1.7);
#429=CIRCLE('',#1096,14.5);
#430=CIRCLE('',#1098,14.5);
#431=CIRCLE('',#1103,1.7);
#432=CIRCLE('',#1104,1.70000000000001);
#433=CIRCLE('',#1106,11.0000005364418);
#434=CIRCLE('',#1108,1.7);
#435=CIRCLE('',#1110,1.7);
#436=CIRCLE('',#1112,1.7);
#437=CIRCLE('',#1114,1.7);
#438=CIRCLE('',#1120,2.12395565918501);
#439=CIRCLE('',#1121,2.12395565918501);
#440=CIRCLE('',#1124,2.12395565918501);
#441=CIRCLE('',#1128,2.12395565918501);
#442=VERTEX_POINT('',#1399);
#443=VERTEX_POINT('',#1400);
#444=VERTEX_POINT('',#1402);
#445=VERTEX_POINT('',#1404);
#446=VERTEX_POINT('',#1408);
#447=VERTEX_POINT('',#1410);
#448=VERTEX_POINT('',#1412);
#449=VERTEX_POINT('',#1414);
#450=VERTEX_POINT('',#1416);
#451=VERTEX_POINT('',#1418);
#452=VERTEX_POINT('',#1420);
#453=VERTEX_POINT('',#1422);
#454=VERTEX_POINT('',#1424);
#455=VERTEX_POINT('',#1426);
#456=VERTEX_POINT('',#1429);
#457=VERTEX_POINT('',#1431);
#458=VERTEX_POINT('',#1433);
#459=VERTEX_POINT('',#1435);
#460=VERTEX_POINT('',#1437);
#461=VERTEX_POINT('',#1438);
#462=VERTEX_POINT('',#1440);
#463=VERTEX_POINT('',#1442);
#464=VERTEX_POINT('',#1445);
#465=VERTEX_POINT('',#1446);
#466=VERTEX_POINT('',#1448);
#467=VERTEX_POINT('',#1450);
#468=VERTEX_POINT('',#1452);
#469=VERTEX_POINT('',#1454);
#470=VERTEX_POINT('',#1458);
#471=VERTEX_POINT('',#1462);
#472=VERTEX_POINT('',#1466);
#473=VERTEX_POINT('',#1467);
#474=VERTEX_POINT('',#1472);
#475=VERTEX_POINT('',#1475);
#476=VERTEX_POINT('',#1476);
#477=VERTEX_POINT('',#1478);
#478=VERTEX_POINT('',#1480);
#479=VERTEX_POINT('',#1484);
#480=VERTEX_POINT('',#1490);
#481=VERTEX_POINT('',#1491);
#482=VERTEX_POINT('',#1496);
#483=VERTEX_POINT('',#1500);
#484=VERTEX_POINT('',#1502);
#485=VERTEX_POINT('',#1506);
#486=VERTEX_POINT('',#1510);
#487=VERTEX_POINT('',#1512);
#488=VERTEX_POINT('',#1516);
#489=VERTEX_POINT('',#1518);
#490=VERTEX_POINT('',#1522);
#491=VERTEX_POINT('',#1525);
#492=VERTEX_POINT('',#1527);
#493=VERTEX_POINT('',#1530);
#494=VERTEX_POINT('',#1531);
#495=VERTEX_POINT('',#1533);
#496=VERTEX_POINT('',#1535);
#497=VERTEX_POINT('',#1539);
#498=VERTEX_POINT('',#1543);
#499=VERTEX_POINT('',#1547);
#500=VERTEX_POINT('',#1561);
#501=VERTEX_POINT('',#1562);
#502=VERTEX_POINT('',#1564);
#503=VERTEX_POINT('',#1566);
#504=VERTEX_POINT('',#1568);
#505=VERTEX_POINT('',#1590);
#506=VERTEX_POINT('',#1603);
#507=VERTEX_POINT('',#1613);
#508=VERTEX_POINT('',#1615);
#509=VERTEX_POINT('',#1617);
#510=VERTEX_POINT('',#1621);
#511=VERTEX_POINT('',#1622);
#512=VERTEX_POINT('',#1626);
#513=VERTEX_POINT('',#1628);
#514=VERTEX_POINT('',#1631);
#515=VERTEX_POINT('',#1634);
#516=VERTEX_POINT('',#1636);
#517=VERTEX_POINT('',#1639);
#518=VERTEX_POINT('',#1662);
#519=VERTEX_POINT('',#1731);
#520=VERTEX_POINT('',#1763);
#521=VERTEX_POINT('',#1775);
#522=VERTEX_POINT('',#1779);
#523=VERTEX_POINT('',#1782);
#524=VERTEX_POINT('',#1784);
#525=VERTEX_POINT('',#1787);
#526=VERTEX_POINT('',#1790);
#527=VERTEX_POINT('',#1792);
#528=VERTEX_POINT('',#1797);
#529=VERTEX_POINT('',#1801);
#530=VERTEX_POINT('',#1805);
#531=VERTEX_POINT('',#1809);
#532=VERTEX_POINT('',#1821);
#533=VERTEX_POINT('',#1822);
#534=VERTEX_POINT('',#1824);
#535=VERTEX_POINT('',#1826);
#536=VERTEX_POINT('',#1832);
#537=VERTEX_POINT('',#1833);
#538=VERTEX_POINT('',#1839);
#539=VERTEX_POINT('',#1842);
#540=EDGE_CURVE('',#442,#443,#412,.T.);
#541=EDGE_CURVE('',#443,#444,#202,.T.);
#542=EDGE_CURVE('',#444,#445,#413,.T.);
#543=EDGE_CURVE('',#445,#442,#203,.T.);
#544=EDGE_CURVE('',#444,#446,#204,.T.);
#545=EDGE_CURVE('',#447,#446,#414,.T.);
#546=EDGE_CURVE('',#447,#448,#205,.T.);
#547=EDGE_CURVE('',#449,#448,#415,.T.);
#548=EDGE_CURVE('',#449,#450,#206,.T.);
#549=EDGE_CURVE('',#451,#450,#416,.T.);
#550=EDGE_CURVE('',#451,#452,#207,.T.);
#551=EDGE_CURVE('',#452,#453,#208,.T.);
#552=EDGE_CURVE('',#453,#454,#209,.T.);
#553=EDGE_CURVE('',#454,#455,#210,.T.);
#554=EDGE_CURVE('',#455,#445,#211,.T.);
#555=EDGE_CURVE('',#456,#456,#417,.T.);
#556=EDGE_CURVE('',#457,#457,#418,.T.);
#557=EDGE_CURVE('',#458,#458,#419,.T.);
#558=EDGE_CURVE('',#459,#459,#420,.T.);
#559=EDGE_CURVE('',#460,#461,#212,.T.);
#560=EDGE_CURVE('',#461,#462,#213,.T.);
#561=EDGE_CURVE('',#462,#463,#214,.T.);
#562=EDGE_CURVE('',#463,#460,#215,.T.);
#563=EDGE_CURVE('',#464,#465,#216,.T.);
#564=EDGE_CURVE('',#466,#464,#217,.T.);
#565=EDGE_CURVE('',#467,#466,#218,.T.);
#566=EDGE_CURVE('',#468,#467,#219,.T.);
#567=EDGE_CURVE('',#469,#468,#220,.T.);
#568=EDGE_CURVE('',#465,#469,#221,.T.);
#569=EDGE_CURVE('',#443,#470,#222,.T.);
#570=EDGE_CURVE('',#446,#470,#223,.T.);
#571=EDGE_CURVE('',#470,#471,#421,.T.);
#572=EDGE_CURVE('',#471,#447,#224,.T.);
#573=EDGE_CURVE('',#472,#473,#422,.T.);
#574=EDGE_CURVE('',#473,#449,#225,.T.);
#575=EDGE_CURVE('',#448,#472,#226,.T.);
#576=EDGE_CURVE('',#473,#474,#227,.T.);
#577=EDGE_CURVE('',#450,#474,#228,.T.);
#578=EDGE_CURVE('',#475,#476,#229,.T.);
#579=EDGE_CURVE('',#476,#477,#230,.T.);
#580=EDGE_CURVE('',#477,#478,#231,.T.);
#581=EDGE_CURVE('',#478,#475,#232,.T.);
#582=EDGE_CURVE('',#474,#479,#423,.T.);
#583=EDGE_CURVE('',#479,#451,#233,.T.);
#584=EDGE_CURVE('',#471,#472,#234,.T.);
#585=EDGE_CURVE('',#480,#481,#235,.T.);
#586=EDGE_CURVE('',#469,#481,#236,.T.);
#587=EDGE_CURVE('',#468,#480,#237,.T.);
#588=EDGE_CURVE('',#482,#480,#238,.T.);
#589=EDGE_CURVE('',#467,#482,#239,.T.);
#590=EDGE_CURVE('',#466,#483,#240,.T.);
#591=EDGE_CURVE('',#464,#484,#241,.T.);
#592=EDGE_CURVE('',#483,#484,#242,.T.);
#593=EDGE_CURVE('',#485,#465,#243,.T.);
#594=EDGE_CURVE('',#484,#485,#244,.T.);
#595=EDGE_CURVE('',#476,#486,#245,.T.);
#596=EDGE_CURVE('',#487,#486,#246,.T.);
#597=EDGE_CURVE('',#487,#477,#247,.T.);
#598=EDGE_CURVE('',#486,#488,#248,.T.);
#599=EDGE_CURVE('',#489,#488,#249,.T.);
#600=EDGE_CURVE('',#489,#487,#250,.T.);
#601=EDGE_CURVE('',#488,#490,#251,.T.);
#602=EDGE_CURVE('',#483,#490,#252,.T.);
#603=EDGE_CURVE('',#491,#485,#253,.T.);
#604=EDGE_CURVE('',#492,#491,#254,.T.);
#605=EDGE_CURVE('',#492,#489,#255,.T.);
#606=EDGE_CURVE('',#493,#494,#256,.T.);
#607=EDGE_CURVE('',#494,#495,#257,.T.);
#608=EDGE_CURVE('',#495,#496,#258,.T.);
#609=EDGE_CURVE('',#496,#493,#259,.T.);
#610=EDGE_CURVE('',#475,#497,#260,.T.);
#611=EDGE_CURVE('',#490,#497,#261,.T.);
#612=EDGE_CURVE('',#498,#492,#262,.T.);
#613=EDGE_CURVE('',#498,#478,#263,.T.);
#614=EDGE_CURVE('',#499,#482,#264,.T.);
#615=EDGE_CURVE('',#497,#498,#265,.T.);
#616=EDGE_CURVE('',#491,#499,#266,.T.);
#617=EDGE_CURVE('',#460,#494,#267,.T.);
#618=EDGE_CURVE('',#463,#495,#268,.T.);
#619=EDGE_CURVE('',#461,#493,#269,.T.);
#620=EDGE_CURVE('',#462,#496,#270,.T.);
#621=EDGE_CURVE('',#500,#501,#271,.T.);
#622=EDGE_CURVE('',#501,#502,#272,.T.);
#623=EDGE_CURVE('',#502,#503,#424,.T.);
#624=EDGE_CURVE('',#503,#504,#23,.T.);
#625=EDGE_CURVE('',#504,#454,#24,.T.);
#626=EDGE_CURVE('',#453,#505,#25,.T.);
#627=EDGE_CURVE('',#505,#506,#26,.T.);
#628=EDGE_CURVE('',#506,#507,#425,.T.);
#629=EDGE_CURVE('',#507,#508,#273,.T.);
#630=EDGE_CURVE('',#508,#509,#274,.T.);
#631=EDGE_CURVE('',#509,#500,#426,.T.);
#632=EDGE_CURVE('',#510,#511,#275,.T.);
#633=EDGE_CURVE('',#510,#501,#276,.T.);
#634=EDGE_CURVE('',#511,#500,#277,.T.);
#635=EDGE_CURVE('',#512,#512,#427,.T.);
#636=EDGE_CURVE('',#513,#513,#428,.T.);
#637=EDGE_CURVE('',#510,#514,#278,.T.);
#638=EDGE_CURVE('',#514,#502,#279,.T.);
#639=EDGE_CURVE('',#515,#515,#19,.T.);
#640=EDGE_CURVE('',#516,#516,#20,.T.);
#641=EDGE_CURVE('',#517,#514,#429,.T.);
#642=EDGE_CURVE('',#517,#503,#280,.T.);
#643=EDGE_CURVE('',#517,#518,#27,.T.);
#644=EDGE_CURVE('',#518,#504,#281,.T.);
#645=EDGE_CURVE('',#518,#455,#28,.T.);
#646=EDGE_CURVE('',#519,#452,#29,.T.);
#647=EDGE_CURVE('',#519,#505,#282,.T.);
#648=EDGE_CURVE('',#520,#519,#30,.T.);
#649=EDGE_CURVE('',#520,#506,#283,.T.);
#650=EDGE_CURVE('',#521,#520,#430,.T.);
#651=EDGE_CURVE('',#521,#507,#284,.T.);
#652=EDGE_CURVE('',#522,#521,#285,.T.);
#653=EDGE_CURVE('',#522,#508,#286,.T.);
#654=EDGE_CURVE('',#523,#523,#21,.T.);
#655=EDGE_CURVE('',#524,#524,#22,.T.);
#656=EDGE_CURVE('',#525,#522,#287,.T.);
#657=EDGE_CURVE('',#525,#509,#288,.T.);
#658=EDGE_CURVE('',#526,#526,#431,.T.);
#659=EDGE_CURVE('',#527,#527,#432,.T.);
#660=EDGE_CURVE('',#525,#511,#433,.T.);
#661=EDGE_CURVE('',#459,#528,#289,.T.);
#662=EDGE_CURVE('',#528,#528,#434,.T.);
#663=EDGE_CURVE('',#529,#529,#435,.T.);
#664=EDGE_CURVE('',#529,#458,#290,.T.);
#665=EDGE_CURVE('',#457,#530,#291,.T.);
#666=EDGE_CURVE('',#530,#530,#436,.T.);
#667=EDGE_CURVE('',#456,#531,#292,.T.);
#668=EDGE_CURVE('',#531,#531,#437,.T.);
#669=EDGE_CURVE('',#527,#524,#293,.T.);
#670=EDGE_CURVE('',#526,#523,#294,.T.);
#671=EDGE_CURVE('',#513,#516,#295,.T.);
#672=EDGE_CURVE('',#512,#515,#296,.T.);
#673=EDGE_CURVE('',#532,#533,#438,.T.);
#674=EDGE_CURVE('',#533,#534,#297,.T.);
#675=EDGE_CURVE('',#534,#535,#439,.T.);
#676=EDGE_CURVE('',#532,#535,#298,.T.);
#677=EDGE_CURVE('',#535,#534,#299,.T.);
#678=EDGE_CURVE('',#536,#537,#300,.T.);
#679=EDGE_CURVE('',#537,#536,#440,.T.);
#680=EDGE_CURVE('',#479,#442,#301,.T.);
#681=EDGE_CURVE('',#481,#538,#302,.T.);
#682=EDGE_CURVE('',#538,#536,#303,.T.);
#683=EDGE_CURVE('',#539,#537,#304,.T.);
#684=EDGE_CURVE('',#539,#532,#305,.T.);
#685=EDGE_CURVE('',#533,#499,#306,.T.);
#686=EDGE_CURVE('',#538,#539,#441,.T.);
#687=ORIENTED_EDGE('',*,*,#540,.T.);
#688=ORIENTED_EDGE('',*,*,#541,.T.);
#689=ORIENTED_EDGE('',*,*,#542,.T.);
#690=ORIENTED_EDGE('',*,*,#543,.T.);
#691=ORIENTED_EDGE('',*,*,#542,.F.);
#692=ORIENTED_EDGE('',*,*,#544,.T.);
#693=ORIENTED_EDGE('',*,*,#545,.F.);
#694=ORIENTED_EDGE('',*,*,#546,.T.);
#695=ORIENTED_EDGE('',*,*,#547,.F.);
#696=ORIENTED_EDGE('',*,*,#548,.T.);
#697=ORIENTED_EDGE('',*,*,#549,.F.);
#698=ORIENTED_EDGE('',*,*,#550,.T.);
#699=ORIENTED_EDGE('',*,*,#551,.T.);
#700=ORIENTED_EDGE('',*,*,#552,.T.);
#701=ORIENTED_EDGE('',*,*,#553,.T.);
#702=ORIENTED_EDGE('',*,*,#554,.T.);
#703=ORIENTED_EDGE('',*,*,#555,.T.);
#704=ORIENTED_EDGE('',*,*,#556,.T.);
#705=ORIENTED_EDGE('',*,*,#557,.T.);
#706=ORIENTED_EDGE('',*,*,#558,.T.);
#707=ORIENTED_EDGE('',*,*,#559,.T.);
#708=ORIENTED_EDGE('',*,*,#560,.T.);
#709=ORIENTED_EDGE('',*,*,#561,.T.);
#710=ORIENTED_EDGE('',*,*,#562,.T.);
#711=ORIENTED_EDGE('',*,*,#563,.F.);
#712=ORIENTED_EDGE('',*,*,#564,.F.);
#713=ORIENTED_EDGE('',*,*,#565,.F.);
#714=ORIENTED_EDGE('',*,*,#566,.F.);
#715=ORIENTED_EDGE('',*,*,#567,.F.);
#716=ORIENTED_EDGE('',*,*,#568,.F.);
#717=ORIENTED_EDGE('',*,*,#541,.F.);
#718=ORIENTED_EDGE('',*,*,#569,.T.);
#719=ORIENTED_EDGE('',*,*,#570,.F.);
#720=ORIENTED_EDGE('',*,*,#544,.F.);
#721=ORIENTED_EDGE('',*,*,#571,.T.);
#722=ORIENTED_EDGE('',*,*,#572,.T.);
#723=ORIENTED_EDGE('',*,*,#545,.T.);
#724=ORIENTED_EDGE('',*,*,#570,.T.);
#725=ORIENTED_EDGE('',*,*,#573,.T.);
#726=ORIENTED_EDGE('',*,*,#574,.T.);
#727=ORIENTED_EDGE('',*,*,#547,.T.);
#728=ORIENTED_EDGE('',*,*,#575,.T.);
#729=ORIENTED_EDGE('',*,*,#574,.F.);
#730=ORIENTED_EDGE('',*,*,#576,.T.);
#731=ORIENTED_EDGE('',*,*,#577,.F.);
#732=ORIENTED_EDGE('',*,*,#548,.F.);
#733=ORIENTED_EDGE('',*,*,#578,.T.);
#734=ORIENTED_EDGE('',*,*,#579,.T.);
#735=ORIENTED_EDGE('',*,*,#580,.T.);
#736=ORIENTED_EDGE('',*,*,#581,.T.);
#737=ORIENTED_EDGE('',*,*,#582,.T.);
#738=ORIENTED_EDGE('',*,*,#583,.T.);
#739=ORIENTED_EDGE('',*,*,#549,.T.);
#740=ORIENTED_EDGE('',*,*,#577,.T.);
#741=ORIENTED_EDGE('',*,*,#572,.F.);
#742=ORIENTED_EDGE('',*,*,#584,.T.);
#743=ORIENTED_EDGE('',*,*,#575,.F.);
#744=ORIENTED_EDGE('',*,*,#546,.F.);
#745=ORIENTED_EDGE('',*,*,#585,.T.);
#746=ORIENTED_EDGE('',*,*,#586,.F.);
#747=ORIENTED_EDGE('',*,*,#567,.T.);
#748=ORIENTED_EDGE('',*,*,#587,.T.);
#749=ORIENTED_EDGE('',*,*,#588,.T.);
#750=ORIENTED_EDGE('',*,*,#587,.F.);
#751=ORIENTED_EDGE('',*,*,#566,.T.);
#752=ORIENTED_EDGE('',*,*,#589,.T.);
#753=ORIENTED_EDGE('',*,*,#590,.F.);
#754=ORIENTED_EDGE('',*,*,#564,.T.);
#755=ORIENTED_EDGE('',*,*,#591,.T.);
#756=ORIENTED_EDGE('',*,*,#592,.F.);
#757=ORIENTED_EDGE('',*,*,#593,.F.);
#758=ORIENTED_EDGE('',*,*,#594,.F.);
#759=ORIENTED_EDGE('',*,*,#591,.F.);
#760=ORIENTED_EDGE('',*,*,#563,.T.);
#761=ORIENTED_EDGE('',*,*,#579,.F.);
#762=ORIENTED_EDGE('',*,*,#595,.T.);
#763=ORIENTED_EDGE('',*,*,#596,.F.);
#764=ORIENTED_EDGE('',*,*,#597,.T.);
#765=ORIENTED_EDGE('',*,*,#596,.T.);
#766=ORIENTED_EDGE('',*,*,#598,.T.);
#767=ORIENTED_EDGE('',*,*,#599,.F.);
#768=ORIENTED_EDGE('',*,*,#600,.T.);
#769=ORIENTED_EDGE('',*,*,#599,.T.);
#770=ORIENTED_EDGE('',*,*,#601,.T.);
#771=ORIENTED_EDGE('',*,*,#602,.F.);
#772=ORIENTED_EDGE('',*,*,#592,.T.);
#773=ORIENTED_EDGE('',*,*,#594,.T.);
#774=ORIENTED_EDGE('',*,*,#603,.F.);
#775=ORIENTED_EDGE('',*,*,#604,.F.);
#776=ORIENTED_EDGE('',*,*,#605,.T.);
#777=ORIENTED_EDGE('',*,*,#606,.T.);
#778=ORIENTED_EDGE('',*,*,#607,.T.);
#779=ORIENTED_EDGE('',*,*,#608,.T.);
#780=ORIENTED_EDGE('',*,*,#609,.T.);
#781=ORIENTED_EDGE('',*,*,#578,.F.);
#782=ORIENTED_EDGE('',*,*,#610,.T.);
#783=ORIENTED_EDGE('',*,*,#611,.F.);
#784=ORIENTED_EDGE('',*,*,#601,.F.);
#785=ORIENTED_EDGE('',*,*,#598,.F.);
#786=ORIENTED_EDGE('',*,*,#595,.F.);
#787=ORIENTED_EDGE('',*,*,#580,.F.);
#788=ORIENTED_EDGE('',*,*,#597,.F.);
#789=ORIENTED_EDGE('',*,*,#600,.F.);
#790=ORIENTED_EDGE('',*,*,#605,.F.);
#791=ORIENTED_EDGE('',*,*,#612,.F.);
#792=ORIENTED_EDGE('',*,*,#613,.T.);
#793=ORIENTED_EDGE('',*,*,#614,.T.);
#794=ORIENTED_EDGE('',*,*,#589,.F.);
#795=ORIENTED_EDGE('',*,*,#565,.T.);
#796=ORIENTED_EDGE('',*,*,#590,.T.);
#797=ORIENTED_EDGE('',*,*,#602,.T.);
#798=ORIENTED_EDGE('',*,*,#611,.T.);
#799=ORIENTED_EDGE('',*,*,#615,.T.);
#800=ORIENTED_EDGE('',*,*,#612,.T.);
#801=ORIENTED_EDGE('',*,*,#604,.T.);
#802=ORIENTED_EDGE('',*,*,#616,.T.);
#803=ORIENTED_EDGE('',*,*,#615,.F.);
#804=ORIENTED_EDGE('',*,*,#610,.F.);
#805=ORIENTED_EDGE('',*,*,#581,.F.);
#806=ORIENTED_EDGE('',*,*,#613,.F.);
#807=ORIENTED_EDGE('',*,*,#607,.F.);
#808=ORIENTED_EDGE('',*,*,#617,.F.);
#809=ORIENTED_EDGE('',*,*,#562,.F.);
#810=ORIENTED_EDGE('',*,*,#618,.T.);
#811=ORIENTED_EDGE('',*,*,#606,.F.);
#812=ORIENTED_EDGE('',*,*,#619,.F.);
#813=ORIENTED_EDGE('',*,*,#559,.F.);
#814=ORIENTED_EDGE('',*,*,#617,.T.);
#815=ORIENTED_EDGE('',*,*,#609,.F.);
#816=ORIENTED_EDGE('',*,*,#620,.F.);
#817=ORIENTED_EDGE('',*,*,#560,.F.);
#818=ORIENTED_EDGE('',*,*,#619,.T.);
#819=ORIENTED_EDGE('',*,*,#608,.F.);
#820=ORIENTED_EDGE('',*,*,#618,.F.);
#821=ORIENTED_EDGE('',*,*,#561,.F.);
#822=ORIENTED_EDGE('',*,*,#620,.T.);
#823=ORIENTED_EDGE('',*,*,#621,.T.);
#824=ORIENTED_EDGE('',*,*,#622,.T.);
#825=ORIENTED_EDGE('',*,*,#623,.T.);
#826=ORIENTED_EDGE('',*,*,#624,.T.);
#827=ORIENTED_EDGE('',*,*,#625,.T.);
#828=ORIENTED_EDGE('',*,*,#552,.F.);
#829=ORIENTED_EDGE('',*,*,#626,.T.);
#830=ORIENTED_EDGE('',*,*,#627,.T.);
#831=ORIENTED_EDGE('',*,*,#628,.T.);
#832=ORIENTED_EDGE('',*,*,#629,.T.);
#833=ORIENTED_EDGE('',*,*,#630,.T.);
#834=ORIENTED_EDGE('',*,*,#631,.T.);
#835=ORIENTED_EDGE('',*,*,#632,.F.);
#836=ORIENTED_EDGE('',*,*,#633,.T.);
#837=ORIENTED_EDGE('',*,*,#621,.F.);
#838=ORIENTED_EDGE('',*,*,#634,.F.);
#839=ORIENTED_EDGE('',*,*,#635,.T.);
#840=ORIENTED_EDGE('',*,*,#636,.T.);
#841=ORIENTED_EDGE('',*,*,#637,.T.);
#842=ORIENTED_EDGE('',*,*,#638,.T.);
#843=ORIENTED_EDGE('',*,*,#622,.F.);
#844=ORIENTED_EDGE('',*,*,#633,.F.);
#845=ORIENTED_EDGE('',*,*,#639,.T.);
#846=ORIENTED_EDGE('',*,*,#640,.T.);
#847=ORIENTED_EDGE('',*,*,#641,.F.);
#848=ORIENTED_EDGE('',*,*,#642,.T.);
#849=ORIENTED_EDGE('',*,*,#623,.F.);
#850=ORIENTED_EDGE('',*,*,#638,.F.);
#851=ORIENTED_EDGE('',*,*,#643,.T.);
#852=ORIENTED_EDGE('',*,*,#644,.T.);
#853=ORIENTED_EDGE('',*,*,#624,.F.);
#854=ORIENTED_EDGE('',*,*,#642,.F.);
#855=ORIENTED_EDGE('',*,*,#645,.T.);
#856=ORIENTED_EDGE('',*,*,#553,.F.);
#857=ORIENTED_EDGE('',*,*,#625,.F.);
#858=ORIENTED_EDGE('',*,*,#644,.F.);
#859=ORIENTED_EDGE('',*,*,#646,.F.);
#860=ORIENTED_EDGE('',*,*,#647,.T.);
#861=ORIENTED_EDGE('',*,*,#626,.F.);
#862=ORIENTED_EDGE('',*,*,#551,.F.);
#863=ORIENTED_EDGE('',*,*,#648,.F.);
#864=ORIENTED_EDGE('',*,*,#649,.T.);
#865=ORIENTED_EDGE('',*,*,#627,.F.);
#866=ORIENTED_EDGE('',*,*,#647,.F.);
#867=ORIENTED_EDGE('',*,*,#650,.F.);
#868=ORIENTED_EDGE('',*,*,#651,.T.);
#869=ORIENTED_EDGE('',*,*,#628,.F.);
#870=ORIENTED_EDGE('',*,*,#649,.F.);
#871=ORIENTED_EDGE('',*,*,#652,.F.);
#872=ORIENTED_EDGE('',*,*,#653,.T.);
#873=ORIENTED_EDGE('',*,*,#629,.F.);
#874=ORIENTED_EDGE('',*,*,#651,.F.);
#875=ORIENTED_EDGE('',*,*,#654,.T.);
#876=ORIENTED_EDGE('',*,*,#655,.T.);
#877=ORIENTED_EDGE('',*,*,#656,.F.);
#878=ORIENTED_EDGE('',*,*,#657,.T.);
#879=ORIENTED_EDGE('',*,*,#630,.F.);
#880=ORIENTED_EDGE('',*,*,#653,.F.);
#881=ORIENTED_EDGE('',*,*,#658,.T.);
#882=ORIENTED_EDGE('',*,*,#659,.T.);
#883=ORIENTED_EDGE('',*,*,#660,.T.);
#884=ORIENTED_EDGE('',*,*,#634,.T.);
#885=ORIENTED_EDGE('',*,*,#631,.F.);
#886=ORIENTED_EDGE('',*,*,#657,.F.);
#887=ORIENTED_EDGE('',*,*,#558,.F.);
#888=ORIENTED_EDGE('',*,*,#661,.T.);
#889=ORIENTED_EDGE('',*,*,#662,.T.);
#890=ORIENTED_EDGE('',*,*,#661,.F.);
#891=ORIENTED_EDGE('',*,*,#663,.T.);
#892=ORIENTED_EDGE('',*,*,#664,.T.);
#893=ORIENTED_EDGE('',*,*,#557,.F.);
#894=ORIENTED_EDGE('',*,*,#664,.F.);
#895=ORIENTED_EDGE('',*,*,#556,.F.);
#896=ORIENTED_EDGE('',*,*,#665,.T.);
#897=ORIENTED_EDGE('',*,*,#666,.T.);
#898=ORIENTED_EDGE('',*,*,#665,.F.);
#899=ORIENTED_EDGE('',*,*,#555,.F.);
#900=ORIENTED_EDGE('',*,*,#667,.T.);
#901=ORIENTED_EDGE('',*,*,#668,.T.);
#902=ORIENTED_EDGE('',*,*,#667,.F.);
#903=ORIENTED_EDGE('',*,*,#659,.F.);
#904=ORIENTED_EDGE('',*,*,#669,.T.);
#905=ORIENTED_EDGE('',*,*,#655,.F.);
#906=ORIENTED_EDGE('',*,*,#669,.F.);
#907=ORIENTED_EDGE('',*,*,#658,.F.);
#908=ORIENTED_EDGE('',*,*,#670,.T.);
#909=ORIENTED_EDGE('',*,*,#654,.F.);
#910=ORIENTED_EDGE('',*,*,#670,.F.);
#911=ORIENTED_EDGE('',*,*,#636,.F.);
#912=ORIENTED_EDGE('',*,*,#671,.T.);
#913=ORIENTED_EDGE('',*,*,#640,.F.);
#914=ORIENTED_EDGE('',*,*,#671,.F.);
#915=ORIENTED_EDGE('',*,*,#635,.F.);
#916=ORIENTED_EDGE('',*,*,#672,.T.);
#917=ORIENTED_EDGE('',*,*,#639,.F.);
#918=ORIENTED_EDGE('',*,*,#672,.F.);
#919=ORIENTED_EDGE('',*,*,#673,.T.);
#920=ORIENTED_EDGE('',*,*,#674,.T.);
#921=ORIENTED_EDGE('',*,*,#675,.T.);
#922=ORIENTED_EDGE('',*,*,#676,.F.);
#923=ORIENTED_EDGE('',*,*,#677,.F.);
#924=ORIENTED_EDGE('',*,*,#675,.F.);
#925=ORIENTED_EDGE('',*,*,#678,.F.);
#926=ORIENTED_EDGE('',*,*,#679,.F.);
#927=ORIENTED_EDGE('',*,*,#543,.F.);
#928=ORIENTED_EDGE('',*,*,#554,.F.);
#929=ORIENTED_EDGE('',*,*,#645,.F.);
#930=ORIENTED_EDGE('',*,*,#643,.F.);
#931=ORIENTED_EDGE('',*,*,#641,.T.);
#932=ORIENTED_EDGE('',*,*,#637,.F.);
#933=ORIENTED_EDGE('',*,*,#632,.T.);
#934=ORIENTED_EDGE('',*,*,#660,.F.);
#935=ORIENTED_EDGE('',*,*,#656,.T.);
#936=ORIENTED_EDGE('',*,*,#652,.T.);
#937=ORIENTED_EDGE('',*,*,#650,.T.);
#938=ORIENTED_EDGE('',*,*,#648,.T.);
#939=ORIENTED_EDGE('',*,*,#646,.T.);
#940=ORIENTED_EDGE('',*,*,#550,.F.);
#941=ORIENTED_EDGE('',*,*,#583,.F.);
#942=ORIENTED_EDGE('',*,*,#680,.T.);
#943=ORIENTED_EDGE('',*,*,#681,.T.);
#944=ORIENTED_EDGE('',*,*,#682,.T.);
#945=ORIENTED_EDGE('',*,*,#678,.T.);
#946=ORIENTED_EDGE('',*,*,#683,.F.);
#947=ORIENTED_EDGE('',*,*,#684,.T.);
#948=ORIENTED_EDGE('',*,*,#676,.T.);
#949=ORIENTED_EDGE('',*,*,#677,.T.);
#950=ORIENTED_EDGE('',*,*,#674,.F.);
#951=ORIENTED_EDGE('',*,*,#685,.T.);
#952=ORIENTED_EDGE('',*,*,#616,.F.);
#953=ORIENTED_EDGE('',*,*,#603,.T.);
#954=ORIENTED_EDGE('',*,*,#593,.T.);
#955=ORIENTED_EDGE('',*,*,#568,.T.);
#956=ORIENTED_EDGE('',*,*,#586,.T.);
#957=ORIENTED_EDGE('',*,*,#686,.T.);
#958=ORIENTED_EDGE('',*,*,#683,.T.);
#959=ORIENTED_EDGE('',*,*,#679,.T.);
#960=ORIENTED_EDGE('',*,*,#682,.F.);
#961=ORIENTED_EDGE('',*,*,#540,.F.);
#962=ORIENTED_EDGE('',*,*,#680,.F.);
#963=ORIENTED_EDGE('',*,*,#582,.F.);
#964=ORIENTED_EDGE('',*,*,#576,.F.);
#965=ORIENTED_EDGE('',*,*,#573,.F.);
#966=ORIENTED_EDGE('',*,*,#584,.F.);
#967=ORIENTED_EDGE('',*,*,#571,.F.);
#968=ORIENTED_EDGE('',*,*,#569,.F.);
#969=ORIENTED_EDGE('',*,*,#681,.F.);
#970=ORIENTED_EDGE('',*,*,#585,.F.);
#971=ORIENTED_EDGE('',*,*,#588,.F.);
#972=ORIENTED_EDGE('',*,*,#614,.F.);
#973=ORIENTED_EDGE('',*,*,#685,.F.);
#974=ORIENTED_EDGE('',*,*,#673,.F.);
#975=ORIENTED_EDGE('',*,*,#684,.F.);
#976=ORIENTED_EDGE('',*,*,#686,.F.);
#977=ORIENTED_EDGE('',*,*,#662,.F.);
#978=ORIENTED_EDGE('',*,*,#663,.F.);
#979=ORIENTED_EDGE('',*,*,#666,.F.);
#980=ORIENTED_EDGE('',*,*,#668,.F.);
#981=CYLINDRICAL_SURFACE('',#1050,7.5);
#982=CYLINDRICAL_SURFACE('',#1062,7.5);
#983=CYLINDRICAL_SURFACE('',#1064,7.5);
#984=CYLINDRICAL_SURFACE('',#1067,7.5);
#985=CYLINDRICAL_SURFACE('',#1095,14.5);
#986=CYLINDRICAL_SURFACE('',#1097,14.5);
#987=CYLINDRICAL_SURFACE('',#1105,11.0000005364418);
#988=CYLINDRICAL_SURFACE('',#1107,1.7);
#989=CYLINDRICAL_SURFACE('',#1109,1.7);
#990=CYLINDRICAL_SURFACE('',#1111,1.7);
#991=CYLINDRICAL_SURFACE('',#1113,1.7);
#992=CYLINDRICAL_SURFACE('',#1115,1.70000000000001);
#993=CYLINDRICAL_SURFACE('',#1116,1.7);
#994=CYLINDRICAL_SURFACE('',#1117,1.7);
#995=CYLINDRICAL_SURFACE('',#1118,1.7);
#996=CYLINDRICAL_SURFACE('',#1119,2.12395565918501);
#997=CYLINDRICAL_SURFACE('',#1127,2.12395565918501);
#998=ADVANCED_FACE('',(#81),#981,.T.);
#999=ADVANCED_FACE('',(#82,#31,#32,#33,#34,#35,#36),#52,.F.);
#1000=ADVANCED_FACE('',(#83),#53,.T.);
#1001=ADVANCED_FACE('',(#84),#982,.T.);
#1002=ADVANCED_FACE('',(#85),#983,.T.);
#1003=ADVANCED_FACE('',(#86,#37),#54,.T.);
#1004=ADVANCED_FACE('',(#87),#984,.T.);
#1005=ADVANCED_FACE('',(#88),#55,.T.);
#1006=ADVANCED_FACE('',(#89),#56,.T.);
#1007=ADVANCED_FACE('',(#90),#57,.T.);
#1008=ADVANCED_FACE('',(#91),#58,.T.);
#1009=ADVANCED_FACE('',(#92),#59,.T.);
#1010=ADVANCED_FACE('',(#93),#60,.F.);
#1011=ADVANCED_FACE('',(#94),#61,.F.);
#1012=ADVANCED_FACE('',(#95,#38),#62,.T.);
#1013=ADVANCED_FACE('',(#96),#63,.F.);
#1014=ADVANCED_FACE('',(#97),#64,.F.);
#1015=ADVANCED_FACE('',(#98),#65,.T.);
#1016=ADVANCED_FACE('',(#99),#66,.F.);
#1017=ADVANCED_FACE('',(#100),#67,.F.);
#1018=ADVANCED_FACE('',(#101),#68,.F.);
#1019=ADVANCED_FACE('',(#102),#69,.F.);
#1020=ADVANCED_FACE('',(#103),#70,.F.);
#1021=ADVANCED_FACE('',(#104),#71,.F.);
#1022=ADVANCED_FACE('',(#105,#39,#40),#72,.T.);
#1023=ADVANCED_FACE('',(#106,#41,#42),#73,.T.);
#1024=ADVANCED_FACE('',(#107),#985,.T.);
#1025=ADVANCED_FACE('',(#108),#15,.T.);
#1026=ADVANCED_FACE('',(#109),#16,.T.);
#1027=ADVANCED_FACE('',(#110),#17,.T.);
#1028=ADVANCED_FACE('',(#111),#18,.T.);
#1029=ADVANCED_FACE('',(#112),#986,.T.);
#1030=ADVANCED_FACE('',(#113,#43,#44),#74,.T.);
#1031=ADVANCED_FACE('',(#114,#45,#46),#75,.T.);
#1032=ADVANCED_FACE('',(#115),#987,.F.);
#1033=ADVANCED_FACE('',(#116),#988,.F.);
#1034=ADVANCED_FACE('',(#117),#989,.F.);
#1035=ADVANCED_FACE('',(#118),#990,.F.);
#1036=ADVANCED_FACE('',(#119),#991,.F.);
#1037=ADVANCED_FACE('',(#120),#992,.F.);
#1038=ADVANCED_FACE('',(#121),#993,.F.);
#1039=ADVANCED_FACE('',(#122),#994,.F.);
#1040=ADVANCED_FACE('',(#123),#995,.F.);
#1041=ADVANCED_FACE('',(#124),#996,.F.);
#1042=ADVANCED_FACE('',(#125),#76,.T.);
#1043=ADVANCED_FACE('',(#126),#77,.T.);
#1044=ADVANCED_FACE('',(#127),#78,.T.);
#1045=ADVANCED_FACE('',(#128),#79,.T.);
#1046=ADVANCED_FACE('',(#129),#997,.F.);
#1047=ADVANCED_FACE('',(#130,#47,#48,#49,#50,#51),#80,.T.);
#1048=CLOSED_SHELL('',(#998,#999,#1000,#1001,#1002,#1003,#1004,#1005,#1006,
#1007,#1008,#1009,#1010,#1011,#1012,#1013,#1014,#1015,#1016,#1017,#1018,
#1019,#1020,#1021,#1022,#1023,#1024,#1025,#1026,#1027,#1028,#1029,#1030,
#1031,#1032,#1033,#1034,#1035,#1036,#1037,#1038,#1039,#1040,#1041,#1042,
#1043,#1044,#1045,#1046,#1047));
#1049=AXIS2_PLACEMENT_3D('',#1397,#1130,#1131);
#1050=AXIS2_PLACEMENT_3D('',#1398,#1132,#1133);
#1051=AXIS2_PLACEMENT_3D('',#1401,#1134,#1135);
#1052=AXIS2_PLACEMENT_3D('',#1405,#1137,#1138);
#1053=AXIS2_PLACEMENT_3D('',#1407,#1140,#1141);
#1054=AXIS2_PLACEMENT_3D('',#1411,#1143,#1144);
#1055=AXIS2_PLACEMENT_3D('',#1415,#1146,#1147);
#1056=AXIS2_PLACEMENT_3D('',#1419,#1149,#1150);
#1057=AXIS2_PLACEMENT_3D('',#1430,#1156,#1157);
#1058=AXIS2_PLACEMENT_3D('',#1432,#1158,#1159);
#1059=AXIS2_PLACEMENT_3D('',#1434,#1160,#1161);
#1060=AXIS2_PLACEMENT_3D('',#1436,#1162,#1163);
#1061=AXIS2_PLACEMENT_3D('',#1457,#1174,#1175);
#1062=AXIS2_PLACEMENT_3D('',#1461,#1178,#1179);
#1063=AXIS2_PLACEMENT_3D('',#1463,#1180,#1181);
#1064=AXIS2_PLACEMENT_3D('',#1465,#1183,#1184);
#1065=AXIS2_PLACEMENT_3D('',#1468,#1185,#1186);
#1066=AXIS2_PLACEMENT_3D('',#1471,#1189,#1190);
#1067=AXIS2_PLACEMENT_3D('',#1483,#1197,#1198);
#1068=AXIS2_PLACEMENT_3D('',#1485,#1199,#1200);
#1069=AXIS2_PLACEMENT_3D('',#1487,#1202,#1203);
#1070=AXIS2_PLACEMENT_3D('',#1489,#1205,#1206);
#1071=AXIS2_PLACEMENT_3D('',#1495,#1210,#1211);
#1072=AXIS2_PLACEMENT_3D('',#1499,#1214,#1215);
#1073=AXIS2_PLACEMENT_3D('',#1505,#1219,#1220);
#1074=AXIS2_PLACEMENT_3D('',#1509,#1223,#1224);
#1075=AXIS2_PLACEMENT_3D('',#1515,#1228,#1229);
#1076=AXIS2_PLACEMENT_3D('',#1521,#1233,#1234);
#1077=AXIS2_PLACEMENT_3D('',#1538,#1244,#1245);
#1078=AXIS2_PLACEMENT_3D('',#1542,#1248,#1249);
#1079=AXIS2_PLACEMENT_3D('',#1546,#1252,#1253);
#1080=AXIS2_PLACEMENT_3D('',#1551,#1257,#1258);
#1081=AXIS2_PLACEMENT_3D('',#1552,#1259,#1260);
#1082=AXIS2_PLACEMENT_3D('',#1555,#1263,#1264);
#1083=AXIS2_PLACEMENT_3D('',#1557,#1266,#1267);
#1084=AXIS2_PLACEMENT_3D('',#1559,#1269,#1270);
#1085=AXIS2_PLACEMENT_3D('',#1560,#1271,#1272);
#1086=AXIS2_PLACEMENT_3D('',#1567,#1275,#1276);
#1087=AXIS2_PLACEMENT_3D('',#1614,#1277,#1278);
#1088=AXIS2_PLACEMENT_3D('',#1619,#1281,#1282);
#1089=AXIS2_PLACEMENT_3D('',#1620,#1283,#1284);
#1090=AXIS2_PLACEMENT_3D('',#1627,#1288,#1289);
#1091=AXIS2_PLACEMENT_3D('',#1629,#1290,#1291);
#1092=AXIS2_PLACEMENT_3D('',#1630,#1292,#1293);
#1093=AXIS2_PLACEMENT_3D('',#1635,#1296,#1297);
#1094=AXIS2_PLACEMENT_3D('',#1637,#1298,#1299);
#1095=AXIS2_PLACEMENT_3D('',#1638,#1300,#1301);
#1096=AXIS2_PLACEMENT_3D('',#1640,#1302,#1303);
#1097=AXIS2_PLACEMENT_3D('',#1774,#1308,#1309);
#1098=AXIS2_PLACEMENT_3D('',#1776,#1310,#1311);
#1099=AXIS2_PLACEMENT_3D('',#1778,#1313,#1314);
#1100=AXIS2_PLACEMENT_3D('',#1783,#1317,#1318);
#1101=AXIS2_PLACEMENT_3D('',#1785,#1319,#1320);
#1102=AXIS2_PLACEMENT_3D('',#1786,#1321,#1322);
#1103=AXIS2_PLACEMENT_3D('',#1791,#1325,#1326);
#1104=AXIS2_PLACEMENT_3D('',#1793,#1327,#1328);
#1105=AXIS2_PLACEMENT_3D('',#1794,#1329,#1330);
#1106=AXIS2_PLACEMENT_3D('',#1795,#1331,#1332);
#1107=AXIS2_PLACEMENT_3D('',#1796,#1333,#1334);
#1108=AXIS2_PLACEMENT_3D('',#1799,#1336,#1337);
#1109=AXIS2_PLACEMENT_3D('',#1800,#1338,#1339);
#1110=AXIS2_PLACEMENT_3D('',#1802,#1340,#1341);
#1111=AXIS2_PLACEMENT_3D('',#1804,#1343,#1344);
#1112=AXIS2_PLACEMENT_3D('',#1807,#1346,#1347);
#1113=AXIS2_PLACEMENT_3D('',#1808,#1348,#1349);
#1114=AXIS2_PLACEMENT_3D('',#1811,#1351,#1352);
#1115=AXIS2_PLACEMENT_3D('',#1812,#1353,#1354);
#1116=AXIS2_PLACEMENT_3D('',#1814,#1356,#1357);
#1117=AXIS2_PLACEMENT_3D('',#1816,#1359,#1360);
#1118=AXIS2_PLACEMENT_3D('',#1818,#1362,#1363);
#1119=AXIS2_PLACEMENT_3D('',#1820,#1365,#1366);
#1120=AXIS2_PLACEMENT_3D('',#1823,#1367,#1368);
#1121=AXIS2_PLACEMENT_3D('',#1827,#1370,#1371);
#1122=AXIS2_PLACEMENT_3D('',#1829,#1373,#1374);
#1123=AXIS2_PLACEMENT_3D('',#1831,#1376,#1377);
#1124=AXIS2_PLACEMENT_3D('',#1835,#1379,#1380);
#1125=AXIS2_PLACEMENT_3D('',#1836,#1381,#1382);
#1126=AXIS2_PLACEMENT_3D('',#1838,#1384,#1385);
#1127=AXIS2_PLACEMENT_3D('',#1846,#1391,#1392);
#1128=AXIS2_PLACEMENT_3D('',#1847,#1393,#1394);
#1129=AXIS2_PLACEMENT_3D('',#1848,#1395,#1396);
#1130=DIRECTION('axis',(0.,0.,1.));
#1131=DIRECTION('refdir',(1.,0.,0.));
#1132=DIRECTION('center_axis',(0.,0.,1.));
#1133=DIRECTION('ref_axis',(-0.707106781186547,0.707106781186547,0.));
#1134=DIRECTION('center_axis',(0.,0.,-1.));
#1135=DIRECTION('ref_axis',(-0.707106781186547,0.707106781186547,0.));
#1136=DIRECTION('',(0.,0.,-1.));
#1137=DIRECTION('center_axis',(0.,0.,1.));
#1138=DIRECTION('ref_axis',(-0.707106781186547,0.707106781186547,0.));
#1139=DIRECTION('',(0.,0.,1.));
#1140=DIRECTION('center_axis',(0.,0.,1.));
#1141=DIRECTION('ref_axis',(1.,0.,0.));
#1142=DIRECTION('',(1.,0.,0.));
#1143=DIRECTION('center_axis',(0.,0.,1.));
#1144=DIRECTION('ref_axis',(0.707106781186547,0.707106781186547,0.));
#1145=DIRECTION('',(0.,-1.,0.));
#1146=DIRECTION('center_axis',(0.,0.,1.));
#1147=DIRECTION('ref_axis',(0.707106781186547,-0.707106781186547,0.));
#1148=DIRECTION('',(-1.,0.,0.));
#1149=DIRECTION('center_axis',(0.,0.,1.));
#1150=DIRECTION('ref_axis',(-0.707106781186547,-0.707106781186547,0.));
#1151=DIRECTION('',(0.,1.,0.));
#1152=DIRECTION('',(1.,0.,0.));
#1153=DIRECTION('',(0.,1.,0.));
#1154=DIRECTION('',(-1.,0.,0.));
#1155=DIRECTION('',(0.,1.,0.));
#1156=DIRECTION('center_axis',(0.,0.,1.));
#1157=DIRECTION('ref_axis',(1.,0.,0.));
#1158=DIRECTION('center_axis',(0.,0.,1.));
#1159=DIRECTION('ref_axis',(1.,0.,0.));
#1160=DIRECTION('center_axis',(0.,0.,1.));
#1161=DIRECTION('ref_axis',(-1.,0.,0.));
#1162=DIRECTION('center_axis',(0.,0.,1.));
#1163=DIRECTION('ref_axis',(1.,0.,0.));
#1164=DIRECTION('',(0.,1.,0.));
#1165=DIRECTION('',(-1.,0.,0.));
#1166=DIRECTION('',(0.,-1.,0.));
#1167=DIRECTION('',(1.,0.,0.));
#1168=DIRECTION('',(-1.,-2.70653845438279E-17,0.));
#1169=DIRECTION('',(0.,1.,0.));
#1170=DIRECTION('',(-1.,0.,0.));
#1171=DIRECTION('',(0.,-1.,0.));
#1172=DIRECTION('',(1.,0.,0.));
#1173=DIRECTION('',(0.,1.,0.));
#1174=DIRECTION('center_axis',(0.,1.,0.));
#1175=DIRECTION('ref_axis',(-1.,0.,0.));
#1176=DIRECTION('',(1.,0.,0.));
#1177=DIRECTION('',(0.,0.,1.));
#1178=DIRECTION('center_axis',(0.,0.,1.));
#1179=DIRECTION('ref_axis',(0.707106781186547,0.707106781186547,0.));
#1180=DIRECTION('center_axis',(0.,0.,-1.));
#1181=DIRECTION('ref_axis',(0.707106781186547,0.707106781186547,0.));
#1182=DIRECTION('',(0.,0.,-1.));
#1183=DIRECTION('center_axis',(0.,0.,1.));
#1184=DIRECTION('ref_axis',(0.707106781186547,-0.707106781186547,0.));
#1185=DIRECTION('center_axis',(0.,0.,-1.));
#1186=DIRECTION('ref_axis',(0.707106781186547,-0.707106781186547,0.));
#1187=DIRECTION('',(0.,0.,-1.));
#1188=DIRECTION('',(0.,0.,1.));
#1189=DIRECTION('center_axis',(0.,-1.,0.));
#1190=DIRECTION('ref_axis',(1.,0.,0.));
#1191=DIRECTION('',(-1.,0.,0.));
#1192=DIRECTION('',(0.,0.,1.));
#1193=DIRECTION('',(0.,0.,-1.));
#1194=DIRECTION('',(-1.,0.,0.));
#1195=DIRECTION('',(0.,0.,1.));
#1196=DIRECTION('',(1.,0.,0.));
#1197=DIRECTION('center_axis',(0.,0.,1.));
#1198=DIRECTION('ref_axis',(-0.707106781186547,-0.707106781186547,0.));
#1199=DIRECTION('center_axis',(0.,0.,-1.));
#1200=DIRECTION('ref_axis',(-0.707106781186547,-0.707106781186547,0.));
#1201=DIRECTION('',(0.,0.,-1.));
#1202=DIRECTION('center_axis',(1.,0.,0.));
#1203=DIRECTION('ref_axis',(0.,1.,0.));
#1204=DIRECTION('',(0.,-1.,0.));
#1205=DIRECTION('center_axis',(0.,-1.,0.));
#1206=DIRECTION('ref_axis',(1.,0.,0.));
#1207=DIRECTION('',(-1.,0.,0.));
#1208=DIRECTION('',(0.,0.,1.));
#1209=DIRECTION('',(0.,0.,1.));
#1210=DIRECTION('center_axis',(-1.,0.,0.));
#1211=DIRECTION('ref_axis',(0.,-1.,0.));
#1212=DIRECTION('',(0.,1.,0.));
#1213=DIRECTION('',(0.,0.,1.));
#1214=DIRECTION('center_axis',(1.,0.,0.));
#1215=DIRECTION('ref_axis',(0.,1.,0.));
#1216=DIRECTION('',(0.,0.,1.));
#1217=DIRECTION('',(0.,0.,1.));
#1218=DIRECTION('',(0.,1.,0.));
#1219=DIRECTION('center_axis',(-2.70653845438279E-17,1.,0.));
#1220=DIRECTION('ref_axis',(-1.,-2.70653845438279E-17,0.));
#1221=DIRECTION('',(0.,0.,-1.));
#1222=DIRECTION('',(-1.,-2.70653845438279E-17,0.));
#1223=DIRECTION('center_axis',(-1.85037168013591E-17,0.,-1.));
#1224=DIRECTION('ref_axis',(1.,0.,-1.85037168013591E-17));
#1225=DIRECTION('',(0.,1.,0.));
#1226=DIRECTION('',(1.,0.,0.));
#1227=DIRECTION('',(0.,-1.,0.));
#1228=DIRECTION('center_axis',(0.,1.,0.));
#1229=DIRECTION('ref_axis',(1.,0.,0.));
#1230=DIRECTION('',(0.,0.,1.));
#1231=DIRECTION('',(1.,0.,0.));
#1232=DIRECTION('',(0.,0.,-1.));
#1233=DIRECTION('center_axis',(0.,0.,1.));
#1234=DIRECTION('ref_axis',(1.,0.,0.));
#1235=DIRECTION('',(0.,-1.,0.));
#1236=DIRECTION('',(-1.,0.,0.));
#1237=DIRECTION('',(0.,1.,0.));
#1238=DIRECTION('',(-1.,0.,0.));
#1239=DIRECTION('',(0.,1.,0.));
#1240=DIRECTION('',(0.,-1.,0.));
#1241=DIRECTION('',(-1.,0.,0.));
#1242=DIRECTION('',(0.,1.,0.));
#1243=DIRECTION('',(1.,0.,0.));
#1244=DIRECTION('center_axis',(1.,0.,0.));
#1245=DIRECTION('ref_axis',(0.,0.,-1.));
#1246=DIRECTION('',(0.,1.,0.));
#1247=DIRECTION('',(0.,0.,1.));
#1248=DIRECTION('center_axis',(-1.,0.,0.));
#1249=DIRECTION('ref_axis',(0.,0.,1.));
#1250=DIRECTION('',(0.,0.,-1.));
#1251=DIRECTION('',(0.,-1.,0.));
#1252=DIRECTION('center_axis',(0.,1.,0.));
#1253=DIRECTION('ref_axis',(-1.,0.,0.));
#1254=DIRECTION('',(1.,0.,0.));
#1255=DIRECTION('',(-1.,0.,0.));
#1256=DIRECTION('',(0.,0.,1.));
#1257=DIRECTION('center_axis',(0.,0.,1.));
#1258=DIRECTION('ref_axis',(1.,0.,0.));
#1259=DIRECTION('center_axis',(0.,-1.,0.));
#1260=DIRECTION('ref_axis',(1.,0.,0.));
#1261=DIRECTION('',(0.,0.,1.));
#1262=DIRECTION('',(0.,0.,1.));
#1263=DIRECTION('center_axis',(1.,0.,0.));
#1264=DIRECTION('ref_axis',(0.,1.,0.));
#1265=DIRECTION('',(0.,0.,1.));
#1266=DIRECTION('center_axis',(0.,1.,0.));
#1267=DIRECTION('ref_axis',(-1.,0.,0.));
#1268=DIRECTION('',(0.,0.,1.));
#1269=DIRECTION('center_axis',(-1.,0.,0.));
#1270=DIRECTION('ref_axis',(0.,-1.,0.));
#1271=DIRECTION('center_axis',(-1.,0.,0.));
#1272=DIRECTION('ref_axis',(0.,-1.,0.));
#1273=DIRECTION('',(0.,1.,0.));
#1274=DIRECTION('',(0.,-0.866025403784439,0.5));
#1275=DIRECTION('center_axis',(1.,0.,0.));
#1276=DIRECTION('ref_axis',(0.,-1.,-1.13043291202859E-8));
#1277=DIRECTION('center_axis',(1.,0.,0.));
#1278=DIRECTION('ref_axis',(0.,-1.,-1.13043291202859E-8));
#1279=DIRECTION('',(0.,-0.866025403784439,-0.5));
#1280=DIRECTION('',(0.,1.,0.));
#1281=DIRECTION('center_axis',(-1.,0.,0.));
#1282=DIRECTION('ref_axis',(0.,-1.,-1.49011603864128E-8));
#1283=DIRECTION('center_axis',(0.,0.,-1.));
#1284=DIRECTION('ref_axis',(0.,1.,0.));
#1285=DIRECTION('',(0.,-1.,0.));
#1286=DIRECTION('',(1.,0.,0.));
#1287=DIRECTION('',(1.,0.,0.));
#1288=DIRECTION('center_axis',(0.,0.,1.));
#1289=DIRECTION('ref_axis',(1.,0.,0.));
#1290=DIRECTION('center_axis',(0.,0.,1.));
#1291=DIRECTION('ref_axis',(1.,0.,0.));
#1292=DIRECTION('center_axis',(0.,0.5,0.866025403784439));
#1293=DIRECTION('ref_axis',(0.,-0.866025403784439,0.5));
#1294=DIRECTION('',(0.,-0.866025403784439,0.5));
#1295=DIRECTION('',(1.,0.,0.));
#1296=DIRECTION('center_axis',(0.,-0.5,-0.866025403784439));
#1297=DIRECTION('ref_axis',(0.,0.866025403784439,-0.5));
#1298=DIRECTION('center_axis',(0.,-0.5,-0.866025403784439));
#1299=DIRECTION('ref_axis',(0.,0.866025403784439,-0.5));
#1300=DIRECTION('center_axis',(1.,0.,0.));
#1301=DIRECTION('ref_axis',(0.,-1.,-1.13043291202859E-8));
#1302=DIRECTION('center_axis',(-1.,0.,0.));
#1303=DIRECTION('ref_axis',(0.,-1.,-1.13043291202859E-8));
#1304=DIRECTION('',(1.,0.,0.));
#1305=DIRECTION('',(1.,0.,0.));
#1306=DIRECTION('',(1.,0.,0.));
#1307=DIRECTION('',(1.,0.,0.));
#1308=DIRECTION('center_axis',(1.,0.,0.));
#1309=DIRECTION('ref_axis',(0.,-1.,-1.13043291202859E-8));
#1310=DIRECTION('center_axis',(-1.,0.,0.));
#1311=DIRECTION('ref_axis',(0.,-1.,-1.13043291202859E-8));
#1312=DIRECTION('',(1.,0.,0.));
#1313=DIRECTION('center_axis',(0.,-0.5,0.866025403784439));
#1314=DIRECTION('ref_axis',(0.,-0.866025403784439,-0.5));
#1315=DIRECTION('',(0.,0.866025403784439,0.5));
#1316=DIRECTION('',(1.,0.,0.));
#1317=DIRECTION('center_axis',(0.,0.5,-0.866025403784439));
#1318=DIRECTION('ref_axis',(0.,0.866025403784439,0.5));
#1319=DIRECTION('center_axis',(0.,0.5,-0.866025403784439));
#1320=DIRECTION('ref_axis',(0.,0.866025403784439,0.5));
#1321=DIRECTION('center_axis',(0.,0.,-1.));
#1322=DIRECTION('ref_axis',(0.,1.,0.));
#1323=DIRECTION('',(0.,-1.,0.));
#1324=DIRECTION('',(1.,0.,0.));
#1325=DIRECTION('center_axis',(0.,0.,1.));
#1326=DIRECTION('ref_axis',(1.,0.,0.));
#1327=DIRECTION('center_axis',(0.,0.,1.));
#1328=DIRECTION('ref_axis',(1.,0.,0.));
#1329=DIRECTION('center_axis',(1.,0.,0.));
#1330=DIRECTION('ref_axis',(0.,1.02953489860731E-16,1.));
#1331=DIRECTION('center_axis',(-1.,0.,0.));
#1332=DIRECTION('ref_axis',(0.,-1.,-1.49011603864128E-8));
#1333=DIRECTION('center_axis',(0.,0.,1.));
#1334=DIRECTION('ref_axis',(1.,0.,0.));
#1335=DIRECTION('',(0.,0.,1.));
#1336=DIRECTION('center_axis',(0.,0.,1.));
#1337=DIRECTION('ref_axis',(1.,0.,0.));
#1338=DIRECTION('center_axis',(0.,0.,-1.));
#1339=DIRECTION('ref_axis',(-1.,0.,0.));
#1340=DIRECTION('center_axis',(0.,0.,1.));
#1341=DIRECTION('ref_axis',(-1.,0.,0.));
#1342=DIRECTION('',(0.,0.,-1.));
#1343=DIRECTION('center_axis',(0.,0.,1.));
#1344=DIRECTION('ref_axis',(1.,0.,0.));
#1345=DIRECTION('',(0.,0.,1.));
#1346=DIRECTION('center_axis',(0.,0.,1.));
#1347=DIRECTION('ref_axis',(1.,0.,0.));
#1348=DIRECTION('center_axis',(0.,0.,1.));
#1349=DIRECTION('ref_axis',(1.,0.,0.));
#1350=DIRECTION('',(0.,0.,1.));
#1351=DIRECTION('center_axis',(0.,0.,1.));
#1352=DIRECTION('ref_axis',(1.,0.,0.));
#1353=DIRECTION('center_axis',(0.,0.,1.));
#1354=DIRECTION('ref_axis',(1.,0.,0.));
#1355=DIRECTION('',(0.,0.,1.));
#1356=DIRECTION('center_axis',(0.,0.,1.));
#1357=DIRECTION('ref_axis',(1.,0.,0.));
#1358=DIRECTION('',(0.,0.,1.));
#1359=DIRECTION('center_axis',(0.,0.,1.));
#1360=DIRECTION('ref_axis',(1.,0.,0.));
#1361=DIRECTION('',(0.,0.,1.));
#1362=DIRECTION('center_axis',(0.,0.,1.));
#1363=DIRECTION('ref_axis',(1.,0.,0.));
#1364=DIRECTION('',(0.,0.,1.));
#1365=DIRECTION('center_axis',(0.,0.,-1.));
#1366=DIRECTION('ref_axis',(-1.,-1.22464679914734E-16,0.));
#1367=DIRECTION('center_axis',(0.,0.,1.));
#1368=DIRECTION('ref_axis',(1.,-1.57772181044202E-30,0.));
#1369=DIRECTION('',(0.,0.,-1.));
#1370=DIRECTION('center_axis',(0.,0.,-1.));
#1371=DIRECTION('ref_axis',(1.,-1.57772181044202E-30,0.));
#1372=DIRECTION('',(0.,0.,-1.));
#1373=DIRECTION('center_axis',(0.,0.,1.));
#1374=DIRECTION('ref_axis',(1.,-1.57772181044202E-30,0.));
#1375=DIRECTION('',(0.,-1.,0.));
#1376=DIRECTION('center_axis',(0.,0.,1.));
#1377=DIRECTION('ref_axis',(1.,-1.57772181044202E-30,0.));
#1378=DIRECTION('',(0.,-1.,0.));
#1379=DIRECTION('center_axis',(0.,0.,-1.));
#1380=DIRECTION('ref_axis',(1.,-1.57772181044202E-30,0.));
#1381=DIRECTION('center_axis',(-1.,0.,0.));
#1382=DIRECTION('ref_axis',(0.,-1.,0.));
#1383=DIRECTION('',(0.,1.,0.));
#1384=DIRECTION('center_axis',(1.,0.,0.));
#1385=DIRECTION('ref_axis',(0.,1.,0.));
#1386=DIRECTION('',(0.,-1.,0.));
#1387=DIRECTION('',(0.,0.,-1.));
#1388=DIRECTION('',(0.,0.,-1.));
#1389=DIRECTION('',(0.,-1.,0.));
#1390=DIRECTION('',(0.,-1.,0.));
#1391=DIRECTION('center_axis',(0.,0.,-1.));
#1392=DIRECTION('ref_axis',(-1.,-1.22464679914734E-16,0.));
#1393=DIRECTION('center_axis',(0.,0.,1.));
#1394=DIRECTION('ref_axis',(1.,-1.57772181044202E-30,0.));
#1395=DIRECTION('center_axis',(0.,0.,1.));
#1396=DIRECTION('ref_axis',(-1.,0.,0.));
#1397=CARTESIAN_POINT('',(0.,0.,0.));
#1398=CARTESIAN_POINT('Origin',(14.7447980008328,-4.46386514911163,0.));
#1399=CARTESIAN_POINT('',(7.24479800083278,-4.46386514911163,18.5));
#1400=CARTESIAN_POINT('',(14.7447980008328,3.03613485088837,18.5));
#1401=CARTESIAN_POINT('Origin',(14.7447980008328,-4.46386514911163,18.5));
#1402=CARTESIAN_POINT('',(14.7447980008328,3.03613485088837,0.));
#1403=CARTESIAN_POINT('',(14.7447980008328,3.03613485088837,0.));
#1404=CARTESIAN_POINT('',(7.24479800083278,-4.46386514911163,0.));
#1405=CARTESIAN_POINT('Origin',(14.7447980008328,-4.46386514911163,0.));
#1406=CARTESIAN_POINT('',(7.24479800083278,-4.46386514911163,0.));
#1407=CARTESIAN_POINT('Origin',(58.2647980008328,-36.2638651491116,0.));
#1408=CARTESIAN_POINT('',(101.784798000833,3.03613485088837,0.));
#1409=CARTESIAN_POINT('',(7.24479800083278,3.03613485088837,0.));
#1410=CARTESIAN_POINT('',(109.284798000833,-4.46386514911163,0.));
#1411=CARTESIAN_POINT('Origin',(101.784798000833,-4.46386514911163,0.));
#1412=CARTESIAN_POINT('',(109.284798000833,-68.0638651491116,0.));
#1413=CARTESIAN_POINT('',(109.284798000833,3.03613485088837,0.));
#1414=CARTESIAN_POINT('',(101.784798000833,-75.5638651491116,0.));
#1415=CARTESIAN_POINT('Origin',(101.784798000833,-68.0638651491116,0.));
#1416=CARTESIAN_POINT('',(14.7447980008328,-75.5638651491116,0.));
#1417=CARTESIAN_POINT('',(109.284798000833,-75.5638651491116,0.));
#1418=CARTESIAN_POINT('',(7.24479800083278,-68.0638651491116,0.));
#1419=CARTESIAN_POINT('Origin',(14.7447980008328,-68.0638651491116,0.));
#1420=CARTESIAN_POINT('',(7.24479800083278,-52.0000007748604,0.));
#1421=CARTESIAN_POINT('',(7.24479800083278,-75.5638651491116,0.));
#1422=CARTESIAN_POINT('',(77.2447980008328,-52.0000007748604,0.));
#1423=CARTESIAN_POINT('',(7.24479800083278,-52.0000007748604,0.));
#1424=CARTESIAN_POINT('',(77.2447980008328,-24.0000003576279,0.));
#1425=CARTESIAN_POINT('',(77.2447980008328,-37.6276724854187,0.));
#1426=CARTESIAN_POINT('',(7.24479800083278,-24.0000003576279,0.));
#1427=CARTESIAN_POINT('',(7.24479800083278,-24.0000003576279,0.));
#1428=CARTESIAN_POINT('',(7.24479800083278,-75.5638651491116,0.));
#1429=CARTESIAN_POINT('',(10.5447980008328,-70.5638651491116,0.));
#1430=CARTESIAN_POINT('Origin',(12.2447980008328,-70.5638651491116,0.));
#1431=CARTESIAN_POINT('',(102.584798000833,-70.5638651491116,0.));
#1432=CARTESIAN_POINT('Origin',(104.284798000833,-70.5638651491116,0.));
#1433=CARTESIAN_POINT('',(105.984798000833,-1.96386514911163,0.));
#1434=CARTESIAN_POINT('Origin',(104.284798000833,-1.96386514911163,0.));
#1435=CARTESIAN_POINT('',(10.5447980008328,-1.96386514911163,0.));
#1436=CARTESIAN_POINT('Origin',(12.2447980008328,-1.96386514911163,0.));
#1437=CARTESIAN_POINT('',(70.5000010505319,-64.8296970660328,0.));
#1438=CARTESIAN_POINT('',(70.5000010505319,-58.5000008717179,0.));
#1439=CARTESIAN_POINT('',(70.5000010505319,-50.5467811075722,0.));
#1440=CARTESIAN_POINT('',(57.5000008568168,-58.5000008717179,0.));
#1441=CARTESIAN_POINT('',(64.3823995256823,-58.5000008717179,0.));
#1442=CARTESIAN_POINT('',(57.5000008568168,-64.8296970660328,0.));
#1443=CARTESIAN_POINT('',(57.5000008568168,-47.3819330104148,0.));
#1444=CARTESIAN_POINT('',(57.8823994288248,-64.8296970660328,0.));
#1445=CARTESIAN_POINT('',(99.2847245428765,-6.96394994490096,0.));
#1446=CARTESIAN_POINT('',(17.2447980008328,-6.96394994490096,0.));
#1447=CARTESIAN_POINT('',(99.2847245428765,-6.96394994490096,0.));
#1448=CARTESIAN_POINT('',(99.2847245428765,-65.5638651491116,0.));
#1449=CARTESIAN_POINT('',(99.2847245428765,-65.5639141468637,0.));
#1450=CARTESIAN_POINT('',(99.2847980008328,-65.5638651491116,0.));
#1451=CARTESIAN_POINT('',(99.2847980008328,-65.5638651491116,0.));
#1452=CARTESIAN_POINT('',(99.2847980008328,-6.96386514911163,0.));
#1453=CARTESIAN_POINT('',(99.2847980008328,-6.96386514911163,0.));
#1454=CARTESIAN_POINT('',(17.2447980008328,-6.96386514911163,0.));
#1455=CARTESIAN_POINT('',(17.2447980008328,-6.96386514911163,0.));
#1456=CARTESIAN_POINT('',(17.2447980008328,-65.5638651491116,0.));
#1457=CARTESIAN_POINT('Origin',(109.284798000833,3.03613485088837,0.));
#1458=CARTESIAN_POINT('',(101.784798000833,3.03613485088837,18.5));
#1459=CARTESIAN_POINT('',(83.7747980008328,3.03613485088837,18.5));
#1460=CARTESIAN_POINT('',(101.784798000833,3.03613485088837,0.));
#1461=CARTESIAN_POINT('Origin',(101.784798000833,-4.46386514911163,0.));
#1462=CARTESIAN_POINT('',(109.284798000833,-4.46386514911163,18.5));
#1463=CARTESIAN_POINT('Origin',(101.784798000833,-4.46386514911163,18.5));
#1464=CARTESIAN_POINT('',(109.284798000833,-4.46386514911163,0.));
#1465=CARTESIAN_POINT('Origin',(101.784798000833,-68.0638651491116,0.));
#1466=CARTESIAN_POINT('',(109.284798000833,-68.0638651491116,18.5));
#1467=CARTESIAN_POINT('',(101.784798000833,-75.5638651491116,18.5));
#1468=CARTESIAN_POINT('Origin',(101.784798000833,-68.0638651491116,18.5));
#1469=CARTESIAN_POINT('',(101.784798000833,-75.5638651491116,0.));
#1470=CARTESIAN_POINT('',(109.284798000833,-68.0638651491116,0.));
#1471=CARTESIAN_POINT('Origin',(7.24479800083278,-75.5638651491116,0.));
#1472=CARTESIAN_POINT('',(14.7447980008328,-75.5638651491116,18.5));
#1473=CARTESIAN_POINT('',(32.7547980008328,-75.5638651491116,18.5));
#1474=CARTESIAN_POINT('',(14.7447980008328,-75.5638651491116,0.));
#1475=CARTESIAN_POINT('',(88.9647980008328,-75.5638651491116,13.8128792560397));
#1476=CARTESIAN_POINT('',(88.9647980008328,-75.5638651491116,0.812879256039747));
#1477=CARTESIAN_POINT('',(88.9647980008328,-75.5638651491116,5.40643962801987));
#1478=CARTESIAN_POINT('',(69.9647977773154,-75.5638651491116,0.812879256039748));
#1479=CARTESIAN_POINT('',(39.6047978890741,-75.5638651491116,0.812879256039747));
#1480=CARTESIAN_POINT('',(69.9647977773154,-75.5638651491116,13.8128792560397));
#1481=CARTESIAN_POINT('',(69.9647977773154,-75.5638651491116,5.40643962801987));
#1482=CARTESIAN_POINT('',(46.1047980008328,-75.5638651491116,13.8128792560397));
#1483=CARTESIAN_POINT('Origin',(14.7447980008328,-68.0638651491116,0.));
#1484=CARTESIAN_POINT('',(7.24479800083278,-68.0638651491116,18.5));
#1485=CARTESIAN_POINT('Origin',(14.7447980008328,-68.0638651491116,18.5));
#1486=CARTESIAN_POINT('',(7.24479800083278,-68.0638651491116,0.));
#1487=CARTESIAN_POINT('Origin',(109.284798000833,-75.5638651491116,0.));
#1488=CARTESIAN_POINT('',(109.284798000833,-55.9138651491116,18.5));
#1489=CARTESIAN_POINT('Origin',(17.2447980008328,-6.96386514911163,0.));
#1490=CARTESIAN_POINT('',(99.2847980008328,-6.96386514911163,18.5));
#1491=CARTESIAN_POINT('',(17.2447980008328,-6.96386514911163,18.5));
#1492=CARTESIAN_POINT('',(37.7547980008328,-6.96386514911163,18.5));
#1493=CARTESIAN_POINT('',(17.2447980008328,-6.96386514911163,0.));
#1494=CARTESIAN_POINT('',(99.2847980008328,-6.96386514911163,0.));
#1495=CARTESIAN_POINT('Origin',(99.2847980008328,-6.96386514911163,0.));
#1496=CARTESIAN_POINT('',(99.2847980008328,-65.5638651491116,18.5));
#1497=CARTESIAN_POINT('',(99.2847980008328,-21.6138651491116,18.5));
#1498=CARTESIAN_POINT('',(99.2847980008328,-65.5638651491116,0.));
#1499=CARTESIAN_POINT('Origin',(99.2847245428765,-65.5639141468637,0.));
#1500=CARTESIAN_POINT('',(99.2847245428765,-65.5638651491116,3.));
#1501=CARTESIAN_POINT('',(99.2847245428765,-65.5638651491116,0.));
#1502=CARTESIAN_POINT('',(99.2847245428765,-6.96394994490096,3.));
#1503=CARTESIAN_POINT('',(99.2847245428765,-6.96394994490096,0.));
#1504=CARTESIAN_POINT('',(99.2847245428765,-65.5639141468637,3.));
#1505=CARTESIAN_POINT('Origin',(99.2847245428765,-6.96394994490096,0.));
#1506=CARTESIAN_POINT('',(17.2447980008328,-6.96394994490096,3.));
#1507=CARTESIAN_POINT('',(17.2447980008328,-6.96394994490096,0.));
#1508=CARTESIAN_POINT('',(99.2847245428765,-6.96394994490096,3.));
#1509=CARTESIAN_POINT('Origin',(69.9647977773154,-65.1574916649153,0.812879256039748));
#1510=CARTESIAN_POINT('',(88.9647980008328,-65.1574916649153,0.812879256039747));
#1511=CARTESIAN_POINT('',(88.9647980008328,-65.1574916649153,0.812879256039747));
#1512=CARTESIAN_POINT('',(69.9647977773154,-65.1574916649153,0.812879256039748));
#1513=CARTESIAN_POINT('',(84.9647980008328,-65.1574916649153,0.812879256039747));
#1514=CARTESIAN_POINT('',(69.9647977773154,-65.1574916649153,0.812879256039747));
#1515=CARTESIAN_POINT('Origin',(77.4647978890741,-65.1574916649153,5.81287925603975));
#1516=CARTESIAN_POINT('',(88.9647980008328,-65.1574916649153,3.));
#1517=CARTESIAN_POINT('',(88.9647980008328,-65.1574916649153,10.8128792560397));
#1518=CARTESIAN_POINT('',(69.9647977773154,-65.1574916649153,3.));
#1519=CARTESIAN_POINT('',(71.6147437099883,-65.1574916649153,3.));
#1520=CARTESIAN_POINT('',(69.9647977773154,-65.1574916649153,8.31287925603975));
#1521=CARTESIAN_POINT('Origin',(58.2646894191438,-36.2639320458823,3.));
#1522=CARTESIAN_POINT('',(88.9647980008328,-65.5638651491116,3.));
#1523=CARTESIAN_POINT('',(88.9647980008328,-50.7107118553988,3.));
#1524=CARTESIAN_POINT('',(78.7747437099883,-65.5638651491116,3.));
#1525=CARTESIAN_POINT('',(17.2447980008328,-65.5638651491116,3.));
#1526=CARTESIAN_POINT('',(17.2447980008328,-50.913898597497,3.));
#1527=CARTESIAN_POINT('',(69.9647977773154,-65.5638651491116,3.));
#1528=CARTESIAN_POINT('',(78.7747437099883,-65.5638651491116,3.));
#1529=CARTESIAN_POINT('',(69.9647977773154,-50.7107118553988,3.));
#1530=CARTESIAN_POINT('',(70.5000010505319,-58.5000008717179,3.));
#1531=CARTESIAN_POINT('',(70.5000010505319,-64.8296970660328,3.));
#1532=CARTESIAN_POINT('',(70.5000010505319,-50.5468145559576,3.));
#1533=CARTESIAN_POINT('',(57.5000008568168,-64.8296970660328,3.));
#1534=CARTESIAN_POINT('',(57.8823451379803,-64.8296970660328,3.));
#1535=CARTESIAN_POINT('',(57.5000008568168,-58.5000008717179,3.));
#1536=CARTESIAN_POINT('',(57.5000008568168,-47.3819664588001,3.));
#1537=CARTESIAN_POINT('',(64.3823452348378,-58.5000008717179,3.));
#1538=CARTESIAN_POINT('Origin',(88.9647980008328,-65.1574916649153,0.812879256039747));
#1539=CARTESIAN_POINT('',(88.9647980008328,-65.5638651491116,13.8128792560397));
#1540=CARTESIAN_POINT('',(88.9647980008328,-65.1574916649153,13.8128792560397));
#1541=CARTESIAN_POINT('',(88.9647980008328,-65.5638651491116,5.40643962801987));
#1542=CARTESIAN_POINT('Origin',(69.9647977773154,-65.1574916649153,10.8128792560397));
#1543=CARTESIAN_POINT('',(69.9647977773154,-65.5638651491116,13.8128792560397));
#1544=CARTESIAN_POINT('',(69.9647977773154,-65.5638651491116,5.40643962801987));
#1545=CARTESIAN_POINT('',(69.9647977773154,-65.1574916649153,13.8128792560397));
#1546=CARTESIAN_POINT('Origin',(99.2847980008328,-65.5638651491116,0.));
#1547=CARTESIAN_POINT('',(17.2447980008328,-65.5638651491116,18.5));
#1548=CARTESIAN_POINT('',(78.7747980008328,-65.5638651491116,18.5));
#1549=CARTESIAN_POINT('',(92.1247980008328,-65.5638651491116,13.8128792560397));
#1550=CARTESIAN_POINT('',(17.2447980008328,-65.5638651491116,0.));
#1551=CARTESIAN_POINT('Origin',(84.9647980008328,-65.1574916649153,13.8128792560397));
#1552=CARTESIAN_POINT('Origin',(57.5000008568168,-64.8296970660328,0.));
#1553=CARTESIAN_POINT('',(70.5000010505319,-64.8296970660328,0.));
#1554=CARTESIAN_POINT('',(57.5000008568168,-64.8296970660328,0.));
#1555=CARTESIAN_POINT('Origin',(70.5000010505319,-64.8296970660328,0.));
#1556=CARTESIAN_POINT('',(70.5000010505319,-58.5000008717179,0.));
#1557=CARTESIAN_POINT('Origin',(70.5000010505319,-58.5000008717179,0.));
#1558=CARTESIAN_POINT('',(57.5000008568168,-58.5000008717179,0.));
#1559=CARTESIAN_POINT('Origin',(57.5000008568168,-58.5000008717179,0.));
#1560=CARTESIAN_POINT('Origin',(77.2447980008328,-38.9914798217257,-9.50000014156103));
#1561=CARTESIAN_POINT('',(77.2447980008328,-27.9999996721745,-19.0000002831221));
#1562=CARTESIAN_POINT('',(77.2447980008328,-19.5000002905726,-19.0000002831221));
#1563=CARTESIAN_POINT('',(77.2447980008328,-24.5000002086163,-19.0000002831221));
#1564=CARTESIAN_POINT('',(77.2447980008328,-24.8303444336516,-15.9225246572421));
#1565=CARTESIAN_POINT('',(77.2447980008328,-19.5000002905726,-19.0000002831221));
#1566=CARTESIAN_POINT('',(77.2447980008328,-30.6113175208396,-7.17291244878949));
#1567=CARTESIAN_POINT('Origin',(77.2447980008328,-39.0000002086163,-19.0000001192093));
#1568=CARTESIAN_POINT('',(77.2447980008328,-34.9472167208337,-5.07789733259129));
#1569=CARTESIAN_POINT('Ctrl Pts',(77.2447980008328,-30.6113175208396,-7.17291244878949));
#1570=CARTESIAN_POINT('Ctrl Pts',(77.2447980008328,-30.9647489265815,-6.92223163900072));
#1571=CARTESIAN_POINT('Ctrl Pts',(77.2447980008328,-31.6702302724815,-6.46129458653786));
#1572=CARTESIAN_POINT('Ctrl Pts',(77.2447980008328,-32.7247938460079,-5.89092025885395));
#1573=CARTESIAN_POINT('Ctrl Pts',(77.2447980008328,-34.0285140593681,-5.37357043049395));
#1574=CARTESIAN_POINT('Ctrl Pts',(77.2447980008328,-34.876340147852,-5.1446098632898));
#1575=CARTESIAN_POINT('Ctrl Pts',(77.2447980008328,-35.0756132715345,-5.09589595760259));
#1576=CARTESIAN_POINT('Ctrl Pts',(77.2447980008328,-35.0203216081101,-5.08356304141104));
#1577=CARTESIAN_POINT('Ctrl Pts',(77.2447980008328,-34.9481435888118,-5.07796852651915));
#1578=CARTESIAN_POINT('Ctrl Pts',(77.2447980008328,-34.9472167208337,-5.07789733259129));
#1579=CARTESIAN_POINT('Ctrl Pts',(77.2447980008328,-34.9472167208337,-5.07789733259129));
#1580=CARTESIAN_POINT('Ctrl Pts',(77.2447980008328,-34.8763278284272,-5.07245226510431));
#1581=CARTESIAN_POINT('Ctrl Pts',(77.2447980008328,-34.648908763216,-5.06255015681834));
#1582=CARTESIAN_POINT('Ctrl Pts',(77.2447980008328,-34.0697868172958,-5.02545798261996));
#1583=CARTESIAN_POINT('Ctrl Pts',(77.2447980008328,-32.952124451662,-4.82750194071754));
#1584=CARTESIAN_POINT('Ctrl Pts',(77.2447980008328,-31.1238378474097,-4.23504284618912));
#1585=CARTESIAN_POINT('Ctrl Pts',(77.2447980008328,-28.9919626533517,-3.24519150129449));
#1586=CARTESIAN_POINT('Ctrl Pts',(77.2447980008328,-27.0968710960225,-2.13755229370002));
#1587=CARTESIAN_POINT('Ctrl Pts',(77.2447980008328,-25.583780932687,-1.13456218392894));
#1588=CARTESIAN_POINT('Ctrl Pts',(77.2447980008328,-24.5346504249886,-0.390722786073389));
#1589=CARTESIAN_POINT('Ctrl Pts',(77.2447980008328,-24.0000003576279,0.));
#1590=CARTESIAN_POINT('',(77.2447980008328,-43.4423375406848,-5.19725984678113));
#1591=CARTESIAN_POINT('Ctrl Pts',(77.2447980008328,-52.0000007748604,0.));
#1592=CARTESIAN_POINT('Ctrl Pts',(77.2447980008328,-51.5431591984521,-0.303659518356449));
#1593=CARTESIAN_POINT('Ctrl Pts',(77.2447980008328,-50.6550302918091,-0.890022798713604));
#1594=CARTESIAN_POINT('Ctrl Pts',(77.2447980008328,-49.3994989329044,-1.70669987955437));
#1595=CARTESIAN_POINT('Ctrl Pts',(77.2447980008328,-47.8813094658907,-2.66780300757788));
#1596=CARTESIAN_POINT('Ctrl Pts',(77.2447980008328,-46.2636551058653,-3.64431721756292));
#1597=CARTESIAN_POINT('Ctrl Pts',(77.2447980008328,-44.9588345357204,-4.38394094615599));
#1598=CARTESIAN_POINT('Ctrl Pts',(77.2447980008328,-44.1045030828229,-4.83219296005118));
#1599=CARTESIAN_POINT('Ctrl Pts',(77.2447980008328,-43.6815113067135,-5.04482501476986));
#1600=CARTESIAN_POINT('Ctrl Pts',(77.2447980008328,-43.5105307421792,-5.14098614074858));
#1601=CARTESIAN_POINT('Ctrl Pts',(77.2447980008328,-43.455398860062,-5.18428144184552));
#1602=CARTESIAN_POINT('Ctrl Pts',(77.2447980008328,-43.4423375406848,-5.19725984678112));
#1603=CARTESIAN_POINT('',(77.2447980008328,-45.4254918897254,-6.00142109471598));
#1604=CARTESIAN_POINT('Ctrl Pts',(77.2447980008328,-43.4423375406848,-5.19725984678112));
#1605=CARTESIAN_POINT('Ctrl Pts',(77.2447980008328,-43.4289388511818,-5.21057348018629));
#1606=CARTESIAN_POINT('Ctrl Pts',(77.2447980008328,-43.4052306228296,-5.24601508791548));
#1607=CARTESIAN_POINT('Ctrl Pts',(77.2447980008328,-43.4456417050286,-5.28806213843002));
#1608=CARTESIAN_POINT('Ctrl Pts',(77.2447980008328,-43.6856785707487,-5.33621681310622));
#1609=CARTESIAN_POINT('Ctrl Pts',(77.2447980008328,-44.1649732135804,-5.45488460554081));
#1610=CARTESIAN_POINT('Ctrl Pts',(77.2447980008328,-44.7350198855942,-5.67402061412523));
#1611=CARTESIAN_POINT('Ctrl Pts',(77.2447980008328,-45.1838633543225,-5.88197864325844));
#1612=CARTESIAN_POINT('Ctrl Pts',(77.2447980008328,-45.4254918897254,-6.00142109471598));
#1613=CARTESIAN_POINT('',(77.2447980008328,-53.1720937973927,-15.9337706250322));
#1614=CARTESIAN_POINT('Origin',(77.2447980008328,-39.0000002086163,-19.0000001192093));
#1615=CARTESIAN_POINT('',(77.2447980008328,-58.4829593528788,-19.0000002831221));
#1616=CARTESIAN_POINT('',(77.2447980008328,-58.4829593528788,-19.0000002831221));
#1617=CARTESIAN_POINT('',(77.2447980008328,-50.0000007450581,-19.0000002831221));
#1618=CARTESIAN_POINT('',(77.2447980008328,-24.5000002086163,-19.0000002831221));
#1619=CARTESIAN_POINT('Origin',(77.2447980008328,-39.0000002086163,-19.0000001192093));
#1620=CARTESIAN_POINT('Origin',(7.24479800083278,-27.9999996721745,-19.0000002831221));
#1621=CARTESIAN_POINT('',(7.24479800083278,-19.5000002905726,-19.0000002831221));
#1622=CARTESIAN_POINT('',(7.24479800083278,-27.9999996721745,-19.0000002831221));
#1623=CARTESIAN_POINT('',(7.24479800083278,-24.5000002086163,-19.0000002831221));
#1624=CARTESIAN_POINT('',(7.24479800083278,-19.5000002905726,-19.0000002831221));
#1625=CARTESIAN_POINT('',(7.24479800083278,-27.9999996721745,-19.0000002831221));
#1626=CARTESIAN_POINT('',(10.7247980008328,-22.5000002905726,-19.0000002831221));
#1627=CARTESIAN_POINT('Origin',(12.4247980008328,-22.5000002905726,-19.0000002831221));
#1628=CARTESIAN_POINT('',(70.3647980008328,-22.5000002905726,-19.0000002831221));
#1629=CARTESIAN_POINT('Origin',(72.0647980008328,-22.5000002905726,-19.0000002831221));
#1630=CARTESIAN_POINT('Origin',(7.24479800083278,-19.5000002905726,-19.0000002831221));
#1631=CARTESIAN_POINT('',(7.24479800083278,-24.8303444336516,-15.9225246572421));
#1632=CARTESIAN_POINT('',(7.24479800083278,-19.5000002905726,-19.0000002831221));
#1633=CARTESIAN_POINT('',(7.24479800083278,-24.8303444336516,-15.9225246572421));
#1634=CARTESIAN_POINT('',(10.7247980008328,-22.5000002905726,-17.2679494755532));
#1635=CARTESIAN_POINT('Origin',(12.4247980008328,-22.5000002905726,-17.2679494755532));
#1636=CARTESIAN_POINT('',(70.3647980008328,-22.5000002905726,-17.2679494755532));
#1637=CARTESIAN_POINT('Origin',(72.0647980008328,-22.5000002905726,-17.2679494755532));
#1638=CARTESIAN_POINT('Origin',(7.24479800083278,-39.0000002086163,-19.0000001192093));
#1639=CARTESIAN_POINT('',(7.24479800083278,-30.6113175208396,-7.17291244878949));
#1640=CARTESIAN_POINT('Origin',(7.24479800083278,-39.0000002086163,-19.0000001192093));
#1641=CARTESIAN_POINT('',(7.24479800083278,-30.6113175208396,-7.17291244878949));
#1642=CARTESIAN_POINT('Ctrl Pts',(7.24479800083278,-30.6113175208396,-7.17291244878949));
#1643=CARTESIAN_POINT('Ctrl Pts',(77.2447980008328,-30.6113175208396,-7.17291244878949));
#1644=CARTESIAN_POINT('Ctrl Pts',(7.24479800083278,-30.9647489265815,-6.92223163900072));
#1645=CARTESIAN_POINT('Ctrl Pts',(77.2447980008328,-30.9647489265815,-6.92223163900072));
#1646=CARTESIAN_POINT('Ctrl Pts',(7.24479800083278,-31.6702302724815,-6.46129458653786));
#1647=CARTESIAN_POINT('Ctrl Pts',(77.2447980008328,-31.6702302724815,-6.46129458653786));
#1648=CARTESIAN_POINT('Ctrl Pts',(7.24479800083278,-32.7247938460079,-5.89092025885395));
#1649=CARTESIAN_POINT('Ctrl Pts',(77.2447980008328,-32.7247938460079,-5.89092025885395));
#1650=CARTESIAN_POINT('Ctrl Pts',(7.24479800083278,-34.0285140593681,-5.37357043049395));
#1651=CARTESIAN_POINT('Ctrl Pts',(77.2447980008328,-34.0285140593681,-5.37357043049395));
#1652=CARTESIAN_POINT('Ctrl Pts',(7.24479800083278,-34.876340147852,-5.1446098632898));
#1653=CARTESIAN_POINT('Ctrl Pts',(77.2447980008328,-34.876340147852,-5.1446098632898));
#1654=CARTESIAN_POINT('Ctrl Pts',(7.24479800083278,-35.0756132715345,-5.09589595760259));
#1655=CARTESIAN_POINT('Ctrl Pts',(77.2447980008328,-35.0756132715345,-5.09589595760259));
#1656=CARTESIAN_POINT('Ctrl Pts',(7.24479800083278,-35.0203216081101,-5.08356304141104));
#1657=CARTESIAN_POINT('Ctrl Pts',(77.2447980008328,-35.0203216081101,-5.08356304141104));
#1658=CARTESIAN_POINT('Ctrl Pts',(7.24479800083278,-34.9481435888118,-5.07796852651915));
#1659=CARTESIAN_POINT('Ctrl Pts',(77.2447980008328,-34.9481435888118,-5.07796852651915));
#1660=CARTESIAN_POINT('Ctrl Pts',(7.24479800083278,-34.9472167208337,-5.07789733259129));
#1661=CARTESIAN_POINT('Ctrl Pts',(77.2447980008328,-34.9472167208337,-5.07789733259129));
#1662=CARTESIAN_POINT('',(7.24479800083278,-34.9472167208337,-5.07789733259129));
#1663=CARTESIAN_POINT('Ctrl Pts',(7.24479800083278,-30.6113175208396,-7.17291244878949));
#1664=CARTESIAN_POINT('Ctrl Pts',(7.24479800083278,-30.9647489265815,-6.92223163900072));
#1665=CARTESIAN_POINT('Ctrl Pts',(7.24479800083278,-31.6702302724815,-6.46129458653786));
#1666=CARTESIAN_POINT('Ctrl Pts',(7.24479800083278,-32.7247938460079,-5.89092025885395));
#1667=CARTESIAN_POINT('Ctrl Pts',(7.24479800083278,-34.0285140593681,-5.37357043049395));
#1668=CARTESIAN_POINT('Ctrl Pts',(7.24479800083278,-34.876340147852,-5.1446098632898));
#1669=CARTESIAN_POINT('Ctrl Pts',(7.24479800083278,-35.0756132715345,-5.09589595760259));
#1670=CARTESIAN_POINT('Ctrl Pts',(7.24479800083278,-35.0203216081101,-5.08356304141104));
#1671=CARTESIAN_POINT('Ctrl Pts',(7.24479800083278,-34.9481435888118,-5.07796852651915));
#1672=CARTESIAN_POINT('Ctrl Pts',(7.24479800083278,-34.9472167208337,-5.07789733259129));
#1673=CARTESIAN_POINT('',(7.24479800083278,-34.9472167208337,-5.07789733259129));
#1674=CARTESIAN_POINT('Ctrl Pts',(7.24479800083278,-34.9472167208337,-5.07789733259129));
#1675=CARTESIAN_POINT('Ctrl Pts',(77.2447980008328,-34.9472167208337,-5.07789733259129));
#1676=CARTESIAN_POINT('Ctrl Pts',(7.24479800083278,-34.8763278284272,-5.07245226510431));
#1677=CARTESIAN_POINT('Ctrl Pts',(77.2447980008328,-34.8763278284272,-5.07245226510431));
#1678=CARTESIAN_POINT('Ctrl Pts',(7.24479800083278,-34.648908763216,-5.06255015681834));
#1679=CARTESIAN_POINT('Ctrl Pts',(77.2447980008328,-34.648908763216,-5.06255015681834));
#1680=CARTESIAN_POINT('Ctrl Pts',(7.24479800083278,-34.0697868172958,-5.02545798261996));
#1681=CARTESIAN_POINT('Ctrl Pts',(77.2447980008328,-34.0697868172958,-5.02545798261996));
#1682=CARTESIAN_POINT('Ctrl Pts',(7.24479800083278,-32.952124451662,-4.82750194071754));
#1683=CARTESIAN_POINT('Ctrl Pts',(77.2447980008328,-32.952124451662,-4.82750194071754));
#1684=CARTESIAN_POINT('Ctrl Pts',(7.24479800083278,-31.1238378474097,-4.23504284618912));
#1685=CARTESIAN_POINT('Ctrl Pts',(77.2447980008328,-31.1238378474097,-4.23504284618912));
#1686=CARTESIAN_POINT('Ctrl Pts',(7.24479800083278,-28.9919626533517,-3.24519150129449));
#1687=CARTESIAN_POINT('Ctrl Pts',(77.2447980008328,-28.9919626533517,-3.24519150129449));
#1688=CARTESIAN_POINT('Ctrl Pts',(7.24479800083278,-27.0968710960225,-2.13755229370002));
#1689=CARTESIAN_POINT('Ctrl Pts',(77.2447980008328,-27.0968710960225,-2.13755229370002));
#1690=CARTESIAN_POINT('Ctrl Pts',(7.24479800083278,-25.583780932687,-1.13456218392894));
#1691=CARTESIAN_POINT('Ctrl Pts',(77.2447980008328,-25.583780932687,-1.13456218392894));
#1692=CARTESIAN_POINT('Ctrl Pts',(7.24479800083278,-24.5346504249886,-0.390722786073389));
#1693=CARTESIAN_POINT('Ctrl Pts',(77.2447980008328,-24.5346504249886,-0.390722786073389));
#1694=CARTESIAN_POINT('Ctrl Pts',(7.24479800083278,-24.0000003576279,0.));
#1695=CARTESIAN_POINT('Ctrl Pts',(77.2447980008328,-24.0000003576279,0.));
#1696=CARTESIAN_POINT('Ctrl Pts',(7.24479800083278,-34.9472167208337,-5.07789733259129));
#1697=CARTESIAN_POINT('Ctrl Pts',(7.24479800083278,-34.8763278284272,-5.07245226510431));
#1698=CARTESIAN_POINT('Ctrl Pts',(7.24479800083278,-34.648908763216,-5.06255015681834));
#1699=CARTESIAN_POINT('Ctrl Pts',(7.24479800083278,-34.0697868172958,-5.02545798261996));
#1700=CARTESIAN_POINT('Ctrl Pts',(7.24479800083278,-32.952124451662,-4.82750194071754));
#1701=CARTESIAN_POINT('Ctrl Pts',(7.24479800083278,-31.1238378474097,-4.23504284618912));
#1702=CARTESIAN_POINT('Ctrl Pts',(7.24479800083278,-28.9919626533517,-3.24519150129449));
#1703=CARTESIAN_POINT('Ctrl Pts',(7.24479800083278,-27.0968710960225,-2.13755229370002));
#1704=CARTESIAN_POINT('Ctrl Pts',(7.24479800083278,-25.583780932687,-1.13456218392894));
#1705=CARTESIAN_POINT('Ctrl Pts',(7.24479800083278,-24.5346504249886,-0.390722786073389));
#1706=CARTESIAN_POINT('Ctrl Pts',(7.24479800083278,-24.0000003576279,0.));
#1707=CARTESIAN_POINT('Ctrl Pts',(7.24479800083278,-52.0000007748604,0.));
#1708=CARTESIAN_POINT('Ctrl Pts',(77.2447980008328,-52.0000007748604,0.));
#1709=CARTESIAN_POINT('Ctrl Pts',(7.24479800083278,-51.5431591984521,-0.303659518356449));
#1710=CARTESIAN_POINT('Ctrl Pts',(77.2447980008328,-51.5431591984521,-0.303659518356449));
#1711=CARTESIAN_POINT('Ctrl Pts',(7.24479800083278,-50.6550302918091,-0.890022798713604));
#1712=CARTESIAN_POINT('Ctrl Pts',(77.2447980008328,-50.6550302918091,-0.890022798713604));
#1713=CARTESIAN_POINT('Ctrl Pts',(7.24479800083278,-49.3994989329044,-1.70669987955437));
#1714=CARTESIAN_POINT('Ctrl Pts',(77.2447980008328,-49.3994989329044,-1.70669987955437));
#1715=CARTESIAN_POINT('Ctrl Pts',(7.24479800083278,-47.8813094658907,-2.66780300757788));
#1716=CARTESIAN_POINT('Ctrl Pts',(77.2447980008328,-47.8813094658907,-2.66780300757788));
#1717=CARTESIAN_POINT('Ctrl Pts',(7.24479800083278,-46.2636551058653,-3.64431721756292));
#1718=CARTESIAN_POINT('Ctrl Pts',(77.2447980008328,-46.2636551058653,-3.64431721756292));
#1719=CARTESIAN_POINT('Ctrl Pts',(7.24479800083278,-44.9588345357204,-4.38394094615599));
#1720=CARTESIAN_POINT('Ctrl Pts',(77.2447980008328,-44.9588345357204,-4.38394094615599));
#1721=CARTESIAN_POINT('Ctrl Pts',(7.24479800083278,-44.1045030828229,-4.83219296005118));
#1722=CARTESIAN_POINT('Ctrl Pts',(77.2447980008328,-44.1045030828229,-4.83219296005118));
#1723=CARTESIAN_POINT('Ctrl Pts',(7.24479800083278,-43.6815113067135,-5.04482501476987));
#1724=CARTESIAN_POINT('Ctrl Pts',(77.2447980008328,-43.6815113067135,-5.04482501476987));
#1725=CARTESIAN_POINT('Ctrl Pts',(7.24479800083278,-43.5105307421792,-5.14098614074858));
#1726=CARTESIAN_POINT('Ctrl Pts',(77.2447980008328,-43.5105307421792,-5.14098614074858));
#1727=CARTESIAN_POINT('Ctrl Pts',(7.24479800083278,-43.455398860062,-5.18428144184552));
#1728=CARTESIAN_POINT('Ctrl Pts',(77.2447980008328,-43.455398860062,-5.18428144184552));
#1729=CARTESIAN_POINT('Ctrl Pts',(7.24479800083278,-43.4423375406848,-5.19725984678112));
#1730=CARTESIAN_POINT('Ctrl Pts',(77.2447980008328,-43.4423375406848,-5.19725984678112));
#1731=CARTESIAN_POINT('',(7.24479800083278,-43.4423375406848,-5.19725984678113));
#1732=CARTESIAN_POINT('Ctrl Pts',(7.24479800083278,-43.4423375406848,-5.19725984678112));
#1733=CARTESIAN_POINT('Ctrl Pts',(7.24479800083278,-43.455398860062,-5.18428144184553));
#1734=CARTESIAN_POINT('Ctrl Pts',(7.24479800083278,-43.5105307421792,-5.14098614074859));
#1735=CARTESIAN_POINT('Ctrl Pts',(7.24479800083278,-43.6815113067135,-5.04482501476987));
#1736=CARTESIAN_POINT('Ctrl Pts',(7.24479800083278,-44.1045030828228,-4.83219296005119));
#1737=CARTESIAN_POINT('Ctrl Pts',(7.24479800083278,-44.9588345357204,-4.38394094615599));
#1738=CARTESIAN_POINT('Ctrl Pts',(7.24479800083278,-46.2636551058653,-3.64431721756292));
#1739=CARTESIAN_POINT('Ctrl Pts',(7.24479800083278,-47.8813094658907,-2.66780300757788));
#1740=CARTESIAN_POINT('Ctrl Pts',(7.24479800083278,-49.3994989329044,-1.70669987955437));
#1741=CARTESIAN_POINT('Ctrl Pts',(7.24479800083278,-50.6550302918091,-0.890022798713604));
#1742=CARTESIAN_POINT('Ctrl Pts',(7.24479800083278,-51.5431591984521,-0.303659518356449));
#1743=CARTESIAN_POINT('Ctrl Pts',(7.24479800083278,-52.0000007748604,0.));
#1744=CARTESIAN_POINT('',(7.24479800083278,-43.4423375406848,-5.19725984678113));
#1745=CARTESIAN_POINT('Ctrl Pts',(7.24479800083278,-43.4423375406848,-5.19725984678113));
#1746=CARTESIAN_POINT('Ctrl Pts',(77.2447980008328,-43.4423375406848,-5.19725984678113));
#1747=CARTESIAN_POINT('Ctrl Pts',(7.24479800083278,-43.4289388511818,-5.21057348018629));
#1748=CARTESIAN_POINT('Ctrl Pts',(77.2447980008328,-43.4289388511818,-5.21057348018629));
#1749=CARTESIAN_POINT('Ctrl Pts',(7.24479800083278,-43.4052306228296,-5.24601508791548));
#1750=CARTESIAN_POINT('Ctrl Pts',(77.2447980008328,-43.4052306228296,-5.24601508791548));
#1751=CARTESIAN_POINT('Ctrl Pts',(7.24479800083278,-43.4456417050286,-5.28806213843002));
#1752=CARTESIAN_POINT('Ctrl Pts',(77.2447980008328,-43.4456417050286,-5.28806213843002));
#1753=CARTESIAN_POINT('Ctrl Pts',(7.24479800083278,-43.6856785707487,-5.33621681310622));
#1754=CARTESIAN_POINT('Ctrl Pts',(77.2447980008328,-43.6856785707487,-5.33621681310622));
#1755=CARTESIAN_POINT('Ctrl Pts',(7.24479800083278,-44.1649732135804,-5.45488460554081));
#1756=CARTESIAN_POINT('Ctrl Pts',(77.2447980008328,-44.1649732135804,-5.45488460554081));
#1757=CARTESIAN_POINT('Ctrl Pts',(7.24479800083278,-44.7350198855942,-5.67402061412523));
#1758=CARTESIAN_POINT('Ctrl Pts',(77.2447980008328,-44.7350198855942,-5.67402061412523));
#1759=CARTESIAN_POINT('Ctrl Pts',(7.24479800083278,-45.1838633543225,-5.88197864325844));
#1760=CARTESIAN_POINT('Ctrl Pts',(77.2447980008328,-45.1838633543225,-5.88197864325844));
#1761=CARTESIAN_POINT('Ctrl Pts',(7.24479800083278,-45.4254918897254,-6.00142109471598));
#1762=CARTESIAN_POINT('Ctrl Pts',(77.2447980008328,-45.4254918897254,-6.00142109471598));
#1763=CARTESIAN_POINT('',(7.24479800083278,-45.4254918897254,-6.00142109471598));
#1764=CARTESIAN_POINT('Ctrl Pts',(7.24479800083278,-45.4254918897254,-6.00142109471598));
#1765=CARTESIAN_POINT('Ctrl Pts',(7.24479800083278,-45.1838633543225,-5.88197864325844));
#1766=CARTESIAN_POINT('Ctrl Pts',(7.24479800083278,-44.7350198855942,-5.67402061412523));
#1767=CARTESIAN_POINT('Ctrl Pts',(7.24479800083278,-44.1649732135804,-5.45488460554081));
#1768=CARTESIAN_POINT('Ctrl Pts',(7.24479800083278,-43.6856785707487,-5.33621681310622));
#1769=CARTESIAN_POINT('Ctrl Pts',(7.24479800083278,-43.4456417050286,-5.28806213843002));
#1770=CARTESIAN_POINT('Ctrl Pts',(7.24479800083278,-43.4052306228296,-5.24601508791548));
#1771=CARTESIAN_POINT('Ctrl Pts',(7.24479800083278,-43.4289388511818,-5.21057348018629));
#1772=CARTESIAN_POINT('Ctrl Pts',(7.24479800083278,-43.4423375406848,-5.19725984678112));
#1773=CARTESIAN_POINT('',(7.24479800083278,-45.4254918897254,-6.00142109471598));
#1774=CARTESIAN_POINT('Origin',(7.24479800083278,-39.0000002086163,-19.0000001192093));
#1775=CARTESIAN_POINT('',(7.24479800083278,-53.1720937973927,-15.9337706250322));
#1776=CARTESIAN_POINT('Origin',(7.24479800083278,-39.0000002086163,-19.0000001192093));
#1777=CARTESIAN_POINT('',(7.24479800083278,-53.1720937973927,-15.9337706250322));
#1778=CARTESIAN_POINT('Origin',(7.24479800083278,-53.1720937973927,-15.9337706250322));
#1779=CARTESIAN_POINT('',(7.24479800083278,-58.4829593528788,-19.0000002831221));
#1780=CARTESIAN_POINT('',(7.24479800083278,-58.4829593528788,-19.0000002831221));
#1781=CARTESIAN_POINT('',(7.24479800083278,-58.4829593528788,-19.0000002831221));
#1782=CARTESIAN_POINT('',(10.7247980008328,-55.4829593528788,-17.2679494755532));
#1783=CARTESIAN_POINT('Origin',(12.4247980008328,-55.4829593528788,-17.2679494755532));
#1784=CARTESIAN_POINT('',(70.3647980008328,-55.4829593528788,-17.2679494755532));
#1785=CARTESIAN_POINT('Origin',(72.0647980008328,-55.4829593528788,-17.2679494755532));
#1786=CARTESIAN_POINT('Origin',(7.24479800083278,-58.4829593528788,-19.0000002831221));
#1787=CARTESIAN_POINT('',(7.24479800083278,-50.0000007450581,-19.0000002831221));
#1788=CARTESIAN_POINT('',(7.24479800083278,-24.5000002086163,-19.0000002831221));
#1789=CARTESIAN_POINT('',(7.24479800083278,-50.0000007450581,-19.0000002831221));
#1790=CARTESIAN_POINT('',(10.7247980008328,-55.4829593528788,-19.0000002831221));
#1791=CARTESIAN_POINT('Origin',(12.4247980008328,-55.4829593528788,-19.0000002831221));
#1792=CARTESIAN_POINT('',(70.3647980008328,-55.4829593528788,-19.0000002831221));
#1793=CARTESIAN_POINT('Origin',(72.0647980008328,-55.4829593528788,-19.0000002831221));
#1794=CARTESIAN_POINT('Origin',(7.24479800083278,-39.0000002086163,-19.0000001192093));
#1795=CARTESIAN_POINT('Origin',(7.24479800083278,-39.0000002086163,-19.0000001192093));
#1796=CARTESIAN_POINT('Origin',(12.2447980008328,-1.96386514911163,-2.5));
#1797=CARTESIAN_POINT('',(10.5447980008328,-1.96386514911163,18.5));
#1798=CARTESIAN_POINT('',(10.5447980008328,-1.96386514911163,-2.5));
#1799=CARTESIAN_POINT('Origin',(12.2447980008328,-1.96386514911163,18.5));
#1800=CARTESIAN_POINT('Origin',(104.284798000833,-1.96386514911163,24.));
#1801=CARTESIAN_POINT('',(105.984798000833,-1.96386514911163,18.5));
#1802=CARTESIAN_POINT('Origin',(104.284798000833,-1.96386514911163,18.5));
#1803=CARTESIAN_POINT('',(105.984798000833,-1.96386514911163,24.));
#1804=CARTESIAN_POINT('Origin',(104.284798000833,-70.5638651491116,0.));
#1805=CARTESIAN_POINT('',(102.584798000833,-70.5638651491116,18.5));
#1806=CARTESIAN_POINT('',(102.584798000833,-70.5638651491116,0.));
#1807=CARTESIAN_POINT('Origin',(104.284798000833,-70.5638651491116,18.5));
#1808=CARTESIAN_POINT('Origin',(12.2447980008328,-70.5638651491116,0.));
#1809=CARTESIAN_POINT('',(10.5447980008328,-70.5638651491116,18.5));
#1810=CARTESIAN_POINT('',(10.5447980008328,-70.5638651491116,0.));
#1811=CARTESIAN_POINT('Origin',(12.2447980008328,-70.5638651491116,18.5));
#1812=CARTESIAN_POINT('Origin',(72.0647980008328,-55.4829593528788,-19.0000002831221));
#1813=CARTESIAN_POINT('',(70.3647980008328,-55.4829593528788,-19.0000002831221));
#1814=CARTESIAN_POINT('Origin',(12.4247980008328,-55.4829593528788,-19.0000002831221));
#1815=CARTESIAN_POINT('',(10.7247980008328,-55.4829593528788,-19.0000002831221));
#1816=CARTESIAN_POINT('Origin',(72.0647980008328,-22.5000002905726,-19.0000002831221));
#1817=CARTESIAN_POINT('',(70.3647980008328,-22.5000002905726,-19.0000002831221));
#1818=CARTESIAN_POINT('Origin',(12.4247980008328,-22.5000002905726,-19.0000002831221));
#1819=CARTESIAN_POINT('',(10.7247980008328,-22.5000002905726,-19.0000002831221));
#1820=CARTESIAN_POINT('Origin',(15.4146000000001,-57.3515000000004,23.6256));
#1821=CARTESIAN_POINT('',(17.2447980008328,-56.273741715443,18.5));
#1822=CARTESIAN_POINT('',(17.2447980008328,-58.4292582845578,18.5));
#1823=CARTESIAN_POINT('Origin',(15.4146000000001,-57.3515000000004,18.5));
#1824=CARTESIAN_POINT('',(17.2447980008328,-58.4292582845578,13.6256));
#1825=CARTESIAN_POINT('',(17.2447980008328,-58.4292582845578,23.6256));
#1826=CARTESIAN_POINT('',(17.2447980008328,-56.273741715443,13.6256));
#1827=CARTESIAN_POINT('Origin',(15.4146000000001,-57.3515000000004,13.6256));
#1828=CARTESIAN_POINT('',(17.2447980008328,-56.273741715443,23.6256));
#1829=CARTESIAN_POINT('Origin',(15.4146000000001,-57.3515000000004,13.6256));
#1830=CARTESIAN_POINT('',(17.2447980008328,-61.457682574556,13.6256));
#1831=CARTESIAN_POINT('Origin',(15.4145999999998,-20.6485000000004,13.6256));
#1832=CARTESIAN_POINT('',(17.2447980008328,-19.5707417154435,13.6256));
#1833=CARTESIAN_POINT('',(17.2447980008328,-21.7262582845573,13.6256));
#1834=CARTESIAN_POINT('',(17.2447980008328,-43.106182574556,13.6256));
#1835=CARTESIAN_POINT('Origin',(15.4145999999998,-20.6485000000004,13.6256));
#1836=CARTESIAN_POINT('Origin',(7.24479800083278,3.03613485088837,0.));
#1837=CARTESIAN_POINT('',(7.24479800083278,-16.6138651491116,18.5));
#1838=CARTESIAN_POINT('Origin',(17.2447980008328,-65.5638651491116,0.));
#1839=CARTESIAN_POINT('',(17.2447980008328,-19.5707417154435,18.5));
#1840=CARTESIAN_POINT('',(17.2447980008328,-50.9138651491116,18.5));
#1841=CARTESIAN_POINT('',(17.2447980008328,-19.5707417154435,23.6256));
#1842=CARTESIAN_POINT('',(17.2447980008328,-21.7262582845573,18.5));
#1843=CARTESIAN_POINT('',(17.2447980008328,-21.7262582845573,23.6256));
#1844=CARTESIAN_POINT('',(17.2447980008328,-50.9138651491116,18.5));
#1845=CARTESIAN_POINT('',(17.2447980008328,-50.9138651491116,18.5));
#1846=CARTESIAN_POINT('Origin',(15.4145999999998,-20.6485000000004,23.6256));
#1847=CARTESIAN_POINT('Origin',(15.4145999999998,-20.6485000000004,18.5));
#1848=CARTESIAN_POINT('Origin',(58.2647980008328,-36.2638651491116,18.5));
#1849=UNCERTAINTY_MEASURE_WITH_UNIT(LENGTH_MEASURE(0.01),#1853,
'DISTANCE_ACCURACY_VALUE',
'Maximum model space distance between geometric entities at asserted c
onnectivities');
#1850=UNCERTAINTY_MEASURE_WITH_UNIT(LENGTH_MEASURE(0.01),#1853,
'DISTANCE_ACCURACY_VALUE',
'Maximum model space distance between geometric entities at asserted c
onnectivities');
#1851=(
GEOMETRIC_REPRESENTATION_CONTEXT(3)
GLOBAL_UNCERTAINTY_ASSIGNED_CONTEXT((#1849))
GLOBAL_UNIT_ASSIGNED_CONTEXT((#1853,#1854,#1855))
REPRESENTATION_CONTEXT('','3D')
);
#1852=(
GEOMETRIC_REPRESENTATION_CONTEXT(3)
GLOBAL_UNCERTAINTY_ASSIGNED_CONTEXT((#1850))
GLOBAL_UNIT_ASSIGNED_CONTEXT((#1853,#1854,#1855))
REPRESENTATION_CONTEXT('','3D')
);
#1853=(
LENGTH_UNIT()
NAMED_UNIT(*)
SI_UNIT(.MILLI.,.METRE.)
);
#1854=(
NAMED_UNIT(*)
PLANE_ANGLE_UNIT()
SI_UNIT($,.RADIAN.)
);
#1855=(
NAMED_UNIT(*)
SI_UNIT($,.STERADIAN.)
SOLID_ANGLE_UNIT()
);
#1856=SHAPE_DEFINITION_REPRESENTATION(#1857,#1858);
#1857=PRODUCT_DEFINITION_SHAPE('',$,#1860);
#1858=SHAPE_REPRESENTATION('',(#1049),#1851);
#1859=PRODUCT_DEFINITION_CONTEXT('part definition',#1864,'design');
#1860=PRODUCT_DEFINITION('Hermes 1','Hermesnew',#1861,#1859);
#1861=PRODUCT_DEFINITION_FORMATION('',$,#1866);
#1862=PRODUCT_RELATED_PRODUCT_CATEGORY('Hermesnew','Hermesnew',(#1866));
#1863=APPLICATION_PROTOCOL_DEFINITION('international standard',
'automotive_design',2009,#1864);
#1864=APPLICATION_CONTEXT(
'Core Data for Automotive Mechanical Design Process');
#1865=PRODUCT_CONTEXT('part definition',#1864,'mechanical');
#1866=PRODUCT('Hermes 1','Hermesnew','KiCad electronic assembly',(#1865));
#1867=PRESENTATION_STYLE_ASSIGNMENT((#1868));
#1868=SURFACE_STYLE_USAGE(.BOTH.,#1869);
#1869=SURFACE_SIDE_STYLE('',(#1870));
#1870=SURFACE_STYLE_FILL_AREA(#1871);
#1871=FILL_AREA_STYLE('Steel - Satin',(#1872));
#1872=FILL_AREA_STYLE_COLOUR('Steel - Satin',#1873);
#1873=COLOUR_RGB('Steel - Satin',0.627450980392157,0.627450980392157,0.627450980392157);
ENDSEC;
END-ISO-10303-21;
