ISO-10303-21;
HEADER;
/* Generated by software containing ST-Developer
 * from STEP Tools, Inc. (www.steptools.com) 
 */

FILE_DESCRIPTION(
/* description */ ('KiCad electronic assembly'),
/* implementation_level */ '2;1');

FILE_NAME(
/* name */ 'Hermes top [2].step',
/* time_stamp */ '2026-07-29T11:48:59+05:30',
/* author */ (''),
/* organization */ (''),
/* preprocessor_version */ 'ST-DEVELOPER v20.1',
/* originating_system */ 'Autodesk Translation Framework v14.24.0.0',
/* authorisation */ '');

FILE_SCHEMA (('AUTOMOTIVE_DESIGN { 1 0 10303 214 3 1 1 }'));
ENDSEC;

DATA;
#10=MECHANICAL_DESIGN_GEOMETRIC_PRESENTATION_REPRESENTATION('',(#13),#1089);
#11=SHAPE_REPRESENTATION_RELATIONSHIP('SRR','None',#1095,#12);
#12=ADVANCED_BREP_SHAPE_REPRESENTATION('',(#14),#1088);
#13=STYLED_ITEM('',(#1104),#14);
#14=MANIFOLD_SOLID_BREP('Body9',#665);
#15=FACE_BOUND('',#88,.T.);
#16=FACE_BOUND('',#89,.T.);
#17=FACE_BOUND('',#90,.T.);
#18=FACE_BOUND('',#91,.T.);
#19=FACE_BOUND('',#92,.T.);
#20=FACE_BOUND('',#98,.T.);
#21=FACE_BOUND('',#99,.T.);
#22=FACE_BOUND('',#100,.T.);
#23=FACE_BOUND('',#101,.T.);
#24=FACE_BOUND('',#102,.T.);
#25=FACE_BOUND('',#103,.T.);
#26=FACE_BOUND('',#104,.T.);
#27=FACE_BOUND('',#110,.T.);
#28=FACE_BOUND('',#111,.T.);
#29=FACE_BOUND('',#116,.T.);
#30=FACE_BOUND('',#117,.T.);
#31=FACE_BOUND('',#119,.T.);
#32=FACE_BOUND('',#120,.T.);
#33=PLANE('',#670);
#34=PLANE('',#671);
#35=PLANE('',#681);
#36=PLANE('',#686);
#37=PLANE('',#693);
#38=PLANE('',#694);
#39=PLANE('',#695);
#40=PLANE('',#696);
#41=PLANE('',#697);
#42=PLANE('',#700);
#43=PLANE('',#701);
#44=PLANE('',#702);
#45=PLANE('',#703);
#46=PLANE('',#706);
#47=PLANE('',#709);
#48=PLANE('',#712);
#49=PLANE('',#715);
#50=PLANE('',#716);
#51=PLANE('',#721);
#52=PLANE('',#722);
#53=FACE_OUTER_BOUND('',#85,.T.);
#54=FACE_OUTER_BOUND('',#86,.T.);
#55=FACE_OUTER_BOUND('',#87,.T.);
#56=FACE_OUTER_BOUND('',#93,.T.);
#57=FACE_OUTER_BOUND('',#94,.T.);
#58=FACE_OUTER_BOUND('',#95,.T.);
#59=FACE_OUTER_BOUND('',#96,.T.);
#60=FACE_OUTER_BOUND('',#97,.T.);
#61=FACE_OUTER_BOUND('',#105,.T.);
#62=FACE_OUTER_BOUND('',#106,.T.);
#63=FACE_OUTER_BOUND('',#107,.T.);
#64=FACE_OUTER_BOUND('',#108,.T.);
#65=FACE_OUTER_BOUND('',#109,.T.);
#66=FACE_OUTER_BOUND('',#112,.T.);
#67=FACE_OUTER_BOUND('',#113,.T.);
#68=FACE_OUTER_BOUND('',#114,.T.);
#69=FACE_OUTER_BOUND('',#115,.T.);
#70=FACE_OUTER_BOUND('',#118,.T.);
#71=FACE_OUTER_BOUND('',#121,.T.);
#72=FACE_OUTER_BOUND('',#122,.T.);
#73=FACE_OUTER_BOUND('',#123,.T.);
#74=FACE_OUTER_BOUND('',#124,.T.);
#75=FACE_OUTER_BOUND('',#125,.T.);
#76=FACE_OUTER_BOUND('',#126,.T.);
#77=FACE_OUTER_BOUND('',#127,.T.);
#78=FACE_OUTER_BOUND('',#128,.T.);
#79=FACE_OUTER_BOUND('',#129,.T.);
#80=FACE_OUTER_BOUND('',#130,.T.);
#81=FACE_OUTER_BOUND('',#131,.T.);
#82=FACE_OUTER_BOUND('',#132,.T.);
#83=FACE_OUTER_BOUND('',#133,.T.);
#84=FACE_OUTER_BOUND('',#134,.T.);
#85=EDGE_LOOP('',(#441,#442,#443,#444));
#86=EDGE_LOOP('',(#445,#446,#447,#448));
#87=EDGE_LOOP('',(#449,#450,#451,#452,#453,#454,#455,#456));
#88=EDGE_LOOP('',(#457));
#89=EDGE_LOOP('',(#458));
#90=EDGE_LOOP('',(#459));
#91=EDGE_LOOP('',(#460));
#92=EDGE_LOOP('',(#461,#462,#463,#464));
#93=EDGE_LOOP('',(#465,#466,#467,#468));
#94=EDGE_LOOP('',(#469,#470,#471,#472));
#95=EDGE_LOOP('',(#473,#474,#475,#476));
#96=EDGE_LOOP('',(#477,#478,#479,#480));
#97=EDGE_LOOP('',(#481,#482,#483,#484,#485,#486,#487,#488));
#98=EDGE_LOOP('',(#489));
#99=EDGE_LOOP('',(#490));
#100=EDGE_LOOP('',(#491));
#101=EDGE_LOOP('',(#492));
#102=EDGE_LOOP('',(#493));
#103=EDGE_LOOP('',(#494));
#104=EDGE_LOOP('',(#495,#496,#497,#498));
#105=EDGE_LOOP('',(#499,#500,#501,#502,#503,#504,#505,#506,#507,#508,#509,
#510));
#106=EDGE_LOOP('',(#511,#512,#513,#514));
#107=EDGE_LOOP('',(#515,#516,#517,#518));
#108=EDGE_LOOP('',(#519,#520,#521,#522,#523,#524));
#109=EDGE_LOOP('',(#525,#526,#527,#528));
#110=EDGE_LOOP('',(#529));
#111=EDGE_LOOP('',(#530));
#112=EDGE_LOOP('',(#531,#532,#533,#534));
#113=EDGE_LOOP('',(#535,#536,#537,#538));
#114=EDGE_LOOP('',(#539,#540,#541,#542,#543,#544));
#115=EDGE_LOOP('',(#545,#546,#547,#548));
#116=EDGE_LOOP('',(#549));
#117=EDGE_LOOP('',(#550));
#118=EDGE_LOOP('',(#551,#552,#553,#554));
#119=EDGE_LOOP('',(#555));
#120=EDGE_LOOP('',(#556));
#121=EDGE_LOOP('',(#557,#558,#559,#560));
#122=EDGE_LOOP('',(#561,#562,#563,#564));
#123=EDGE_LOOP('',(#565,#566,#567,#568));
#124=EDGE_LOOP('',(#569,#570,#571,#572,#573,#574));
#125=EDGE_LOOP('',(#575,#576,#577,#578));
#126=EDGE_LOOP('',(#579,#580,#581,#582));
#127=EDGE_LOOP('',(#583,#584,#585,#586,#587,#588,#589,#590,#591,#592));
#128=EDGE_LOOP('',(#593,#594,#595,#596));
#129=EDGE_LOOP('',(#597,#598,#599,#600));
#130=EDGE_LOOP('',(#601,#602,#603,#604));
#131=EDGE_LOOP('',(#605,#606,#607,#608));
#132=EDGE_LOOP('',(#609,#610,#611,#612));
#133=EDGE_LOOP('',(#613,#614,#615,#616));
#134=EDGE_LOOP('',(#617,#618,#619,#620));
#135=LINE('',#909,#201);
#136=LINE('',#912,#202);
#137=LINE('',#915,#203);
#138=LINE('',#917,#204);
#139=LINE('',#918,#205);
#140=LINE('',#921,#206);
#141=LINE('',#925,#207);
#142=LINE('',#929,#208);
#143=LINE('',#941,#209);
#144=LINE('',#943,#210);
#145=LINE('',#945,#211);
#146=LINE('',#946,#212);
#147=LINE('',#951,#213);
#148=LINE('',#952,#214);
#149=LINE('',#955,#215);
#150=LINE('',#956,#216);
#151=LINE('',#960,#217);
#152=LINE('',#964,#218);
#153=LINE('',#966,#219);
#154=LINE('',#967,#220);
#155=LINE('',#982,#221);
#156=LINE('',#984,#222);
#157=LINE('',#986,#223);
#158=LINE('',#987,#224);
#159=LINE('',#991,#225);
#160=LINE('',#993,#226);
#161=LINE('',#995,#227);
#162=LINE('',#996,#228);
#163=LINE('',#998,#229);
#164=LINE('',#1000,#230);
#165=LINE('',#1002,#231);
#166=LINE('',#1004,#232);
#167=LINE('',#1005,#233);
#168=LINE('',#1006,#234);
#169=LINE('',#1009,#235);
#170=LINE('',#1010,#236);
#171=LINE('',#1013,#237);
#172=LINE('',#1014,#238);
#173=LINE('',#1017,#239);
#174=LINE('',#1019,#240);
#175=LINE('',#1021,#241);
#176=LINE('',#1022,#242);
#177=LINE('',#1025,#243);
#178=LINE('',#1026,#244);
#179=LINE('',#1032,#245);
#180=LINE('',#1035,#246);
#181=LINE('',#1036,#247);
#182=LINE('',#1039,#248);
#183=LINE('',#1041,#249);
#184=LINE('',#1043,#250);
#185=LINE('',#1044,#251);
#186=LINE('',#1047,#252);
#187=LINE('',#1048,#253);
#188=LINE('',#1055,#254);
#189=LINE('',#1056,#255);
#190=LINE('',#1062,#256);
#191=LINE('',#1064,#257);
#192=LINE('',#1066,#258);
#193=LINE('',#1068,#259);
#194=LINE('',#1070,#260);
#195=LINE('',#1072,#261);
#196=LINE('',#1074,#262);
#197=LINE('',#1077,#263);
#198=LINE('',#1079,#264);
#199=LINE('',#1081,#265);
#200=LINE('',#1083,#266);
#201=VECTOR('',#729,10.);
#202=VECTOR('',#732,10.);
#203=VECTOR('',#735,10.);
#204=VECTOR('',#736,10.);
#205=VECTOR('',#737,10.);
#206=VECTOR('',#740,10.);
#207=VECTOR('',#743,10.);
#208=VECTOR('',#746,10.);
#209=VECTOR('',#757,10.);
#210=VECTOR('',#758,10.);
#211=VECTOR('',#759,10.);
#212=VECTOR('',#760,10.);
#213=VECTOR('',#765,10.);
#214=VECTOR('',#766,10.);
#215=VECTOR('',#769,10.);
#216=VECTOR('',#770,10.);
#217=VECTOR('',#775,10.);
#218=VECTOR('',#780,10.);
#219=VECTOR('',#783,10.);
#220=VECTOR('',#784,10.);
#221=VECTOR('',#797,10.);
#222=VECTOR('',#798,10.);
#223=VECTOR('',#799,10.);
#224=VECTOR('',#800,10.);
#225=VECTOR('',#803,10.);
#226=VECTOR('',#804,10.);
#227=VECTOR('',#805,10.);
#228=VECTOR('',#806,10.);
#229=VECTOR('',#807,10.);
#230=VECTOR('',#808,10.);
#231=VECTOR('',#809,10.);
#232=VECTOR('',#810,10.);
#233=VECTOR('',#811,10.);
#234=VECTOR('',#812,10.);
#235=VECTOR('',#815,10.);
#236=VECTOR('',#816,10.);
#237=VECTOR('',#819,10.);
#238=VECTOR('',#820,10.);
#239=VECTOR('',#823,10.);
#240=VECTOR('',#824,10.);
#241=VECTOR('',#825,10.);
#242=VECTOR('',#826,10.);
#243=VECTOR('',#829,10.);
#244=VECTOR('',#830,10.);
#245=VECTOR('',#837,10.);
#246=VECTOR('',#840,10.);
#247=VECTOR('',#841,10.);
#248=VECTOR('',#844,10.);
#249=VECTOR('',#845,10.);
#250=VECTOR('',#846,10.);
#251=VECTOR('',#847,10.);
#252=VECTOR('',#850,10.);
#253=VECTOR('',#851,10.);
#254=VECTOR('',#858,10.);
#255=VECTOR('',#859,10.);
#256=VECTOR('',#866,10.);
#257=VECTOR('',#869,2.12395565918501);
#258=VECTOR('',#872,2.12395565918501);
#259=VECTOR('',#875,10.);
#260=VECTOR('',#878,1.61289999999738);
#261=VECTOR('',#881,1.61289999999997);
#262=VECTOR('',#884,10.);
#263=VECTOR('',#889,1.7);
#264=VECTOR('',#892,1.7);
#265=VECTOR('',#895,1.7);
#266=VECTOR('',#898,1.7);
#267=CIRCLE('',#668,7.5);
#268=CIRCLE('',#669,7.5);
#269=CIRCLE('',#672,7.5);
#270=CIRCLE('',#673,7.5);
#271=CIRCLE('',#674,7.5);
#272=CIRCLE('',#675,1.7);
#273=CIRCLE('',#676,1.7);
#274=CIRCLE('',#677,1.7);
#275=CIRCLE('',#678,1.7);
#276=CIRCLE('',#680,7.5);
#277=CIRCLE('',#683,7.5);
#278=CIRCLE('',#685,7.5);
#279=CIRCLE('',#687,1.7);
#280=CIRCLE('',#688,1.7);
#281=CIRCLE('',#689,1.7);
#282=CIRCLE('',#690,1.7);
#283=CIRCLE('',#691,1.61289999999997);
#284=CIRCLE('',#692,1.61289999999738);
#285=CIRCLE('',#698,1.61289999999738);
#286=CIRCLE('',#699,1.61289999999997);
#287=CIRCLE('',#704,2.12395565918501);
#288=CIRCLE('',#705,2.12395565918501);
#289=CIRCLE('',#707,2.12395565918501);
#290=CIRCLE('',#708,2.12395565918501);
#291=VERTEX_POINT('',#905);
#292=VERTEX_POINT('',#906);
#293=VERTEX_POINT('',#908);
#294=VERTEX_POINT('',#910);
#295=VERTEX_POINT('',#914);
#296=VERTEX_POINT('',#916);
#297=VERTEX_POINT('',#920);
#298=VERTEX_POINT('',#922);
#299=VERTEX_POINT('',#924);
#300=VERTEX_POINT('',#926);
#301=VERTEX_POINT('',#928);
#302=VERTEX_POINT('',#931);
#303=VERTEX_POINT('',#933);
#304=VERTEX_POINT('',#935);
#305=VERTEX_POINT('',#937);
#306=VERTEX_POINT('',#939);
#307=VERTEX_POINT('',#940);
#308=VERTEX_POINT('',#942);
#309=VERTEX_POINT('',#944);
#310=VERTEX_POINT('',#948);
#311=VERTEX_POINT('',#949);
#312=VERTEX_POINT('',#954);
#313=VERTEX_POINT('',#958);
#314=VERTEX_POINT('',#962);
#315=VERTEX_POINT('',#968);
#316=VERTEX_POINT('',#970);
#317=VERTEX_POINT('',#972);
#318=VERTEX_POINT('',#974);
#319=VERTEX_POINT('',#976);
#320=VERTEX_POINT('',#978);
#321=VERTEX_POINT('',#980);
#322=VERTEX_POINT('',#981);
#323=VERTEX_POINT('',#983);
#324=VERTEX_POINT('',#985);
#325=VERTEX_POINT('',#989);
#326=VERTEX_POINT('',#990);
#327=VERTEX_POINT('',#992);
#328=VERTEX_POINT('',#994);
#329=VERTEX_POINT('',#997);
#330=VERTEX_POINT('',#999);
#331=VERTEX_POINT('',#1001);
#332=VERTEX_POINT('',#1003);
#333=VERTEX_POINT('',#1008);
#334=VERTEX_POINT('',#1012);
#335=VERTEX_POINT('',#1016);
#336=VERTEX_POINT('',#1018);
#337=VERTEX_POINT('',#1020);
#338=VERTEX_POINT('',#1024);
#339=VERTEX_POINT('',#1027);
#340=VERTEX_POINT('',#1029);
#341=VERTEX_POINT('',#1034);
#342=VERTEX_POINT('',#1038);
#343=VERTEX_POINT('',#1040);
#344=VERTEX_POINT('',#1042);
#345=VERTEX_POINT('',#1046);
#346=VERTEX_POINT('',#1049);
#347=VERTEX_POINT('',#1051);
#348=VERTEX_POINT('',#1054);
#349=VERTEX_POINT('',#1057);
#350=VERTEX_POINT('',#1059);
#351=EDGE_CURVE('',#291,#292,#267,.T.);
#352=EDGE_CURVE('',#292,#293,#135,.T.);
#353=EDGE_CURVE('',#293,#294,#268,.T.);
#354=EDGE_CURVE('',#294,#291,#136,.T.);
#355=EDGE_CURVE('',#294,#295,#137,.T.);
#356=EDGE_CURVE('',#296,#295,#138,.T.);
#357=EDGE_CURVE('',#291,#296,#139,.T.);
#358=EDGE_CURVE('',#297,#293,#140,.T.);
#359=EDGE_CURVE('',#298,#297,#269,.T.);
#360=EDGE_CURVE('',#299,#298,#141,.T.);
#361=EDGE_CURVE('',#300,#299,#270,.T.);
#362=EDGE_CURVE('',#301,#300,#142,.T.);
#363=EDGE_CURVE('',#295,#301,#271,.T.);
#364=EDGE_CURVE('',#302,#302,#272,.T.);
#365=EDGE_CURVE('',#303,#303,#273,.T.);
#366=EDGE_CURVE('',#304,#304,#274,.T.);
#367=EDGE_CURVE('',#305,#305,#275,.T.);
#368=EDGE_CURVE('',#306,#307,#143,.T.);
#369=EDGE_CURVE('',#306,#308,#144,.T.);
#370=EDGE_CURVE('',#309,#308,#145,.T.);
#371=EDGE_CURVE('',#307,#309,#146,.T.);
#372=EDGE_CURVE('',#310,#311,#276,.T.);
#373=EDGE_CURVE('',#311,#298,#147,.T.);
#374=EDGE_CURVE('',#297,#310,#148,.T.);
#375=EDGE_CURVE('',#312,#311,#149,.T.);
#376=EDGE_CURVE('',#299,#312,#150,.T.);
#377=EDGE_CURVE('',#312,#313,#277,.T.);
#378=EDGE_CURVE('',#313,#300,#151,.T.);
#379=EDGE_CURVE('',#314,#296,#278,.T.);
#380=EDGE_CURVE('',#301,#314,#152,.T.);
#381=EDGE_CURVE('',#314,#313,#153,.T.);
#382=EDGE_CURVE('',#310,#292,#154,.T.);
#383=EDGE_CURVE('',#315,#315,#279,.T.);
#384=EDGE_CURVE('',#316,#316,#280,.T.);
#385=EDGE_CURVE('',#317,#317,#281,.T.);
#386=EDGE_CURVE('',#318,#318,#282,.T.);
#387=EDGE_CURVE('',#319,#319,#283,.T.);
#388=EDGE_CURVE('',#320,#320,#284,.T.);
#389=EDGE_CURVE('',#321,#322,#155,.T.);
#390=EDGE_CURVE('',#323,#321,#156,.T.);
#391=EDGE_CURVE('',#324,#323,#157,.T.);
#392=EDGE_CURVE('',#322,#324,#158,.T.);
#393=EDGE_CURVE('',#325,#326,#159,.T.);
#394=EDGE_CURVE('',#327,#325,#160,.T.);
#395=EDGE_CURVE('',#328,#327,#161,.T.);
#396=EDGE_CURVE('',#324,#328,#162,.T.);
#397=EDGE_CURVE('',#329,#323,#163,.T.);
#398=EDGE_CURVE('',#330,#329,#164,.T.);
#399=EDGE_CURVE('',#331,#330,#165,.T.);
#400=EDGE_CURVE('',#332,#331,#166,.T.);
#401=EDGE_CURVE('',#307,#332,#167,.T.);
#402=EDGE_CURVE('',#326,#309,#168,.T.);
#403=EDGE_CURVE('',#332,#333,#169,.T.);
#404=EDGE_CURVE('',#306,#333,#170,.T.);
#405=EDGE_CURVE('',#334,#331,#171,.T.);
#406=EDGE_CURVE('',#333,#334,#172,.T.);
#407=EDGE_CURVE('',#330,#335,#173,.T.);
#408=EDGE_CURVE('',#336,#335,#174,.T.);
#409=EDGE_CURVE('',#337,#336,#175,.T.);
#410=EDGE_CURVE('',#334,#337,#176,.T.);
#411=EDGE_CURVE('',#338,#329,#177,.T.);
#412=EDGE_CURVE('',#335,#338,#178,.T.);
#413=EDGE_CURVE('',#339,#339,#285,.T.);
#414=EDGE_CURVE('',#340,#340,#286,.T.);
#415=EDGE_CURVE('',#338,#321,#179,.T.);
#416=EDGE_CURVE('',#341,#328,#180,.T.);
#417=EDGE_CURVE('',#322,#341,#181,.T.);
#418=EDGE_CURVE('',#342,#308,#182,.T.);
#419=EDGE_CURVE('',#343,#342,#183,.T.);
#420=EDGE_CURVE('',#344,#343,#184,.T.);
#421=EDGE_CURVE('',#344,#326,#185,.T.);
#422=EDGE_CURVE('',#345,#344,#186,.T.);
#423=EDGE_CURVE('',#345,#325,#187,.T.);
#424=EDGE_CURVE('',#346,#346,#287,.T.);
#425=EDGE_CURVE('',#347,#347,#288,.T.);
#426=EDGE_CURVE('',#348,#327,#188,.T.);
#427=EDGE_CURVE('',#341,#348,#189,.T.);
#428=EDGE_CURVE('',#349,#349,#289,.T.);
#429=EDGE_CURVE('',#350,#350,#290,.T.);
#430=EDGE_CURVE('',#348,#345,#190,.T.);
#431=EDGE_CURVE('',#349,#346,#191,.T.);
#432=EDGE_CURVE('',#350,#347,#192,.T.);
#433=EDGE_CURVE('',#337,#342,#193,.T.);
#434=EDGE_CURVE('',#339,#320,#194,.T.);
#435=EDGE_CURVE('',#340,#319,#195,.T.);
#436=EDGE_CURVE('',#336,#343,#196,.T.);
#437=EDGE_CURVE('',#318,#302,#197,.T.);
#438=EDGE_CURVE('',#317,#303,#198,.T.);
#439=EDGE_CURVE('',#316,#304,#199,.T.);
#440=EDGE_CURVE('',#315,#305,#200,.T.);
#441=ORIENTED_EDGE('',*,*,#351,.T.);
#442=ORIENTED_EDGE('',*,*,#352,.T.);
#443=ORIENTED_EDGE('',*,*,#353,.T.);
#444=ORIENTED_EDGE('',*,*,#354,.T.);
#445=ORIENTED_EDGE('',*,*,#354,.F.);
#446=ORIENTED_EDGE('',*,*,#355,.T.);
#447=ORIENTED_EDGE('',*,*,#356,.F.);
#448=ORIENTED_EDGE('',*,*,#357,.F.);
#449=ORIENTED_EDGE('',*,*,#353,.F.);
#450=ORIENTED_EDGE('',*,*,#358,.F.);
#451=ORIENTED_EDGE('',*,*,#359,.F.);
#452=ORIENTED_EDGE('',*,*,#360,.F.);
#453=ORIENTED_EDGE('',*,*,#361,.F.);
#454=ORIENTED_EDGE('',*,*,#362,.F.);
#455=ORIENTED_EDGE('',*,*,#363,.F.);
#456=ORIENTED_EDGE('',*,*,#355,.F.);
#457=ORIENTED_EDGE('',*,*,#364,.F.);
#458=ORIENTED_EDGE('',*,*,#365,.F.);
#459=ORIENTED_EDGE('',*,*,#366,.F.);
#460=ORIENTED_EDGE('',*,*,#367,.F.);
#461=ORIENTED_EDGE('',*,*,#368,.F.);
#462=ORIENTED_EDGE('',*,*,#369,.T.);
#463=ORIENTED_EDGE('',*,*,#370,.F.);
#464=ORIENTED_EDGE('',*,*,#371,.F.);
#465=ORIENTED_EDGE('',*,*,#372,.T.);
#466=ORIENTED_EDGE('',*,*,#373,.T.);
#467=ORIENTED_EDGE('',*,*,#359,.T.);
#468=ORIENTED_EDGE('',*,*,#374,.T.);
#469=ORIENTED_EDGE('',*,*,#373,.F.);
#470=ORIENTED_EDGE('',*,*,#375,.F.);
#471=ORIENTED_EDGE('',*,*,#376,.F.);
#472=ORIENTED_EDGE('',*,*,#360,.T.);
#473=ORIENTED_EDGE('',*,*,#377,.T.);
#474=ORIENTED_EDGE('',*,*,#378,.T.);
#475=ORIENTED_EDGE('',*,*,#361,.T.);
#476=ORIENTED_EDGE('',*,*,#376,.T.);
#477=ORIENTED_EDGE('',*,*,#379,.T.);
#478=ORIENTED_EDGE('',*,*,#356,.T.);
#479=ORIENTED_EDGE('',*,*,#363,.T.);
#480=ORIENTED_EDGE('',*,*,#380,.T.);
#481=ORIENTED_EDGE('',*,*,#351,.F.);
#482=ORIENTED_EDGE('',*,*,#357,.T.);
#483=ORIENTED_EDGE('',*,*,#379,.F.);
#484=ORIENTED_EDGE('',*,*,#381,.T.);
#485=ORIENTED_EDGE('',*,*,#377,.F.);
#486=ORIENTED_EDGE('',*,*,#375,.T.);
#487=ORIENTED_EDGE('',*,*,#372,.F.);
#488=ORIENTED_EDGE('',*,*,#382,.T.);
#489=ORIENTED_EDGE('',*,*,#383,.T.);
#490=ORIENTED_EDGE('',*,*,#384,.T.);
#491=ORIENTED_EDGE('',*,*,#385,.T.);
#492=ORIENTED_EDGE('',*,*,#386,.T.);
#493=ORIENTED_EDGE('',*,*,#387,.T.);
#494=ORIENTED_EDGE('',*,*,#388,.T.);
#495=ORIENTED_EDGE('',*,*,#389,.F.);
#496=ORIENTED_EDGE('',*,*,#390,.F.);
#497=ORIENTED_EDGE('',*,*,#391,.F.);
#498=ORIENTED_EDGE('',*,*,#392,.F.);
#499=ORIENTED_EDGE('',*,*,#393,.F.);
#500=ORIENTED_EDGE('',*,*,#394,.F.);
#501=ORIENTED_EDGE('',*,*,#395,.F.);
#502=ORIENTED_EDGE('',*,*,#396,.F.);
#503=ORIENTED_EDGE('',*,*,#391,.T.);
#504=ORIENTED_EDGE('',*,*,#397,.F.);
#505=ORIENTED_EDGE('',*,*,#398,.F.);
#506=ORIENTED_EDGE('',*,*,#399,.F.);
#507=ORIENTED_EDGE('',*,*,#400,.F.);
#508=ORIENTED_EDGE('',*,*,#401,.F.);
#509=ORIENTED_EDGE('',*,*,#371,.T.);
#510=ORIENTED_EDGE('',*,*,#402,.F.);
#511=ORIENTED_EDGE('',*,*,#401,.T.);
#512=ORIENTED_EDGE('',*,*,#403,.T.);
#513=ORIENTED_EDGE('',*,*,#404,.F.);
#514=ORIENTED_EDGE('',*,*,#368,.T.);
#515=ORIENTED_EDGE('',*,*,#400,.T.);
#516=ORIENTED_EDGE('',*,*,#405,.F.);
#517=ORIENTED_EDGE('',*,*,#406,.F.);
#518=ORIENTED_EDGE('',*,*,#403,.F.);
#519=ORIENTED_EDGE('',*,*,#399,.T.);
#520=ORIENTED_EDGE('',*,*,#407,.T.);
#521=ORIENTED_EDGE('',*,*,#408,.F.);
#522=ORIENTED_EDGE('',*,*,#409,.F.);
#523=ORIENTED_EDGE('',*,*,#410,.F.);
#524=ORIENTED_EDGE('',*,*,#405,.T.);
#525=ORIENTED_EDGE('',*,*,#398,.T.);
#526=ORIENTED_EDGE('',*,*,#411,.F.);
#527=ORIENTED_EDGE('',*,*,#412,.F.);
#528=ORIENTED_EDGE('',*,*,#407,.F.);
#529=ORIENTED_EDGE('',*,*,#413,.T.);
#530=ORIENTED_EDGE('',*,*,#414,.T.);
#531=ORIENTED_EDGE('',*,*,#397,.T.);
#532=ORIENTED_EDGE('',*,*,#390,.T.);
#533=ORIENTED_EDGE('',*,*,#415,.F.);
#534=ORIENTED_EDGE('',*,*,#411,.T.);
#535=ORIENTED_EDGE('',*,*,#396,.T.);
#536=ORIENTED_EDGE('',*,*,#416,.F.);
#537=ORIENTED_EDGE('',*,*,#417,.F.);
#538=ORIENTED_EDGE('',*,*,#392,.T.);
#539=ORIENTED_EDGE('',*,*,#402,.T.);
#540=ORIENTED_EDGE('',*,*,#370,.T.);
#541=ORIENTED_EDGE('',*,*,#418,.F.);
#542=ORIENTED_EDGE('',*,*,#419,.F.);
#543=ORIENTED_EDGE('',*,*,#420,.F.);
#544=ORIENTED_EDGE('',*,*,#421,.T.);
#545=ORIENTED_EDGE('',*,*,#393,.T.);
#546=ORIENTED_EDGE('',*,*,#421,.F.);
#547=ORIENTED_EDGE('',*,*,#422,.F.);
#548=ORIENTED_EDGE('',*,*,#423,.T.);
#549=ORIENTED_EDGE('',*,*,#424,.F.);
#550=ORIENTED_EDGE('',*,*,#425,.F.);
#551=ORIENTED_EDGE('',*,*,#395,.T.);
#552=ORIENTED_EDGE('',*,*,#426,.F.);
#553=ORIENTED_EDGE('',*,*,#427,.F.);
#554=ORIENTED_EDGE('',*,*,#416,.T.);
#555=ORIENTED_EDGE('',*,*,#428,.F.);
#556=ORIENTED_EDGE('',*,*,#429,.F.);
#557=ORIENTED_EDGE('',*,*,#394,.T.);
#558=ORIENTED_EDGE('',*,*,#423,.F.);
#559=ORIENTED_EDGE('',*,*,#430,.F.);
#560=ORIENTED_EDGE('',*,*,#426,.T.);
#561=ORIENTED_EDGE('',*,*,#428,.T.);
#562=ORIENTED_EDGE('',*,*,#431,.T.);
#563=ORIENTED_EDGE('',*,*,#424,.T.);
#564=ORIENTED_EDGE('',*,*,#431,.F.);
#565=ORIENTED_EDGE('',*,*,#429,.T.);
#566=ORIENTED_EDGE('',*,*,#432,.T.);
#567=ORIENTED_EDGE('',*,*,#425,.T.);
#568=ORIENTED_EDGE('',*,*,#432,.F.);
#569=ORIENTED_EDGE('',*,*,#418,.T.);
#570=ORIENTED_EDGE('',*,*,#369,.F.);
#571=ORIENTED_EDGE('',*,*,#404,.T.);
#572=ORIENTED_EDGE('',*,*,#406,.T.);
#573=ORIENTED_EDGE('',*,*,#410,.T.);
#574=ORIENTED_EDGE('',*,*,#433,.T.);
#575=ORIENTED_EDGE('',*,*,#413,.F.);
#576=ORIENTED_EDGE('',*,*,#434,.T.);
#577=ORIENTED_EDGE('',*,*,#388,.F.);
#578=ORIENTED_EDGE('',*,*,#434,.F.);
#579=ORIENTED_EDGE('',*,*,#414,.F.);
#580=ORIENTED_EDGE('',*,*,#435,.T.);
#581=ORIENTED_EDGE('',*,*,#387,.F.);
#582=ORIENTED_EDGE('',*,*,#435,.F.);
#583=ORIENTED_EDGE('',*,*,#422,.T.);
#584=ORIENTED_EDGE('',*,*,#420,.T.);
#585=ORIENTED_EDGE('',*,*,#436,.F.);
#586=ORIENTED_EDGE('',*,*,#408,.T.);
#587=ORIENTED_EDGE('',*,*,#412,.T.);
#588=ORIENTED_EDGE('',*,*,#415,.T.);
#589=ORIENTED_EDGE('',*,*,#389,.T.);
#590=ORIENTED_EDGE('',*,*,#417,.T.);
#591=ORIENTED_EDGE('',*,*,#427,.T.);
#592=ORIENTED_EDGE('',*,*,#430,.T.);
#593=ORIENTED_EDGE('',*,*,#419,.T.);
#594=ORIENTED_EDGE('',*,*,#433,.F.);
#595=ORIENTED_EDGE('',*,*,#409,.T.);
#596=ORIENTED_EDGE('',*,*,#436,.T.);
#597=ORIENTED_EDGE('',*,*,#386,.F.);
#598=ORIENTED_EDGE('',*,*,#437,.T.);
#599=ORIENTED_EDGE('',*,*,#364,.T.);
#600=ORIENTED_EDGE('',*,*,#437,.F.);
#601=ORIENTED_EDGE('',*,*,#385,.F.);
#602=ORIENTED_EDGE('',*,*,#438,.T.);
#603=ORIENTED_EDGE('',*,*,#365,.T.);
#604=ORIENTED_EDGE('',*,*,#438,.F.);
#605=ORIENTED_EDGE('',*,*,#384,.F.);
#606=ORIENTED_EDGE('',*,*,#439,.T.);
#607=ORIENTED_EDGE('',*,*,#366,.T.);
#608=ORIENTED_EDGE('',*,*,#439,.F.);
#609=ORIENTED_EDGE('',*,*,#383,.F.);
#610=ORIENTED_EDGE('',*,*,#440,.T.);
#611=ORIENTED_EDGE('',*,*,#367,.T.);
#612=ORIENTED_EDGE('',*,*,#440,.F.);
#613=ORIENTED_EDGE('',*,*,#352,.F.);
#614=ORIENTED_EDGE('',*,*,#382,.F.);
#615=ORIENTED_EDGE('',*,*,#374,.F.);
#616=ORIENTED_EDGE('',*,*,#358,.T.);
#617=ORIENTED_EDGE('',*,*,#378,.F.);
#618=ORIENTED_EDGE('',*,*,#381,.F.);
#619=ORIENTED_EDGE('',*,*,#380,.F.);
#620=ORIENTED_EDGE('',*,*,#362,.T.);
#621=CYLINDRICAL_SURFACE('',#667,7.5);
#622=CYLINDRICAL_SURFACE('',#679,7.5);
#623=CYLINDRICAL_SURFACE('',#682,7.5);
#624=CYLINDRICAL_SURFACE('',#684,7.5);
#625=CYLINDRICAL_SURFACE('',#710,2.12395565918501);
#626=CYLINDRICAL_SURFACE('',#711,2.12395565918501);
#627=CYLINDRICAL_SURFACE('',#713,1.61289999999738);
#628=CYLINDRICAL_SURFACE('',#714,1.61289999999997);
#629=CYLINDRICAL_SURFACE('',#717,1.7);
#630=CYLINDRICAL_SURFACE('',#718,1.7);
#631=CYLINDRICAL_SURFACE('',#719,1.7);
#632=CYLINDRICAL_SURFACE('',#720,1.7);
#633=ADVANCED_FACE('',(#53),#621,.T.);
#634=ADVANCED_FACE('',(#54),#33,.T.);
#635=ADVANCED_FACE('',(#55,#15,#16,#17,#18,#19),#34,.F.);
#636=ADVANCED_FACE('',(#56),#622,.T.);
#637=ADVANCED_FACE('',(#57),#35,.T.);
#638=ADVANCED_FACE('',(#58),#623,.T.);
#639=ADVANCED_FACE('',(#59),#624,.T.);
#640=ADVANCED_FACE('',(#60,#20,#21,#22,#23,#24,#25,#26),#36,.T.);
#641=ADVANCED_FACE('',(#61),#37,.T.);
#642=ADVANCED_FACE('',(#62),#38,.T.);
#643=ADVANCED_FACE('',(#63),#39,.F.);
#644=ADVANCED_FACE('',(#64),#40,.T.);
#645=ADVANCED_FACE('',(#65,#27,#28),#41,.T.);
#646=ADVANCED_FACE('',(#66),#42,.T.);
#647=ADVANCED_FACE('',(#67),#43,.T.);
#648=ADVANCED_FACE('',(#68),#44,.T.);
#649=ADVANCED_FACE('',(#69,#29,#30),#45,.F.);
#650=ADVANCED_FACE('',(#70,#31,#32),#46,.T.);
#651=ADVANCED_FACE('',(#71),#47,.T.);
#652=ADVANCED_FACE('',(#72),#625,.F.);
#653=ADVANCED_FACE('',(#73),#626,.F.);
#654=ADVANCED_FACE('',(#74),#48,.T.);
#655=ADVANCED_FACE('',(#75),#627,.F.);
#656=ADVANCED_FACE('',(#76),#628,.F.);
#657=ADVANCED_FACE('',(#77),#49,.T.);
#658=ADVANCED_FACE('',(#78),#50,.F.);
#659=ADVANCED_FACE('',(#79),#629,.F.);
#660=ADVANCED_FACE('',(#80),#630,.F.);
#661=ADVANCED_FACE('',(#81),#631,.F.);
#662=ADVANCED_FACE('',(#82),#632,.F.);
#663=ADVANCED_FACE('',(#83),#51,.T.);
#664=ADVANCED_FACE('',(#84),#52,.T.);
#665=CLOSED_SHELL('',(#633,#634,#635,#636,#637,#638,#639,#640,#641,#642,
#643,#644,#645,#646,#647,#648,#649,#650,#651,#652,#653,#654,#655,#656,#657,
#658,#659,#660,#661,#662,#663,#664));
#666=AXIS2_PLACEMENT_3D('',#903,#723,#724);
#667=AXIS2_PLACEMENT_3D('',#904,#725,#726);
#668=AXIS2_PLACEMENT_3D('',#907,#727,#728);
#669=AXIS2_PLACEMENT_3D('',#911,#730,#731);
#670=AXIS2_PLACEMENT_3D('',#913,#733,#734);
#671=AXIS2_PLACEMENT_3D('',#919,#738,#739);
#672=AXIS2_PLACEMENT_3D('',#923,#741,#742);
#673=AXIS2_PLACEMENT_3D('',#927,#744,#745);
#674=AXIS2_PLACEMENT_3D('',#930,#747,#748);
#675=AXIS2_PLACEMENT_3D('',#932,#749,#750);
#676=AXIS2_PLACEMENT_3D('',#934,#751,#752);
#677=AXIS2_PLACEMENT_3D('',#936,#753,#754);
#678=AXIS2_PLACEMENT_3D('',#938,#755,#756);
#679=AXIS2_PLACEMENT_3D('',#947,#761,#762);
#680=AXIS2_PLACEMENT_3D('',#950,#763,#764);
#681=AXIS2_PLACEMENT_3D('',#953,#767,#768);
#682=AXIS2_PLACEMENT_3D('',#957,#771,#772);
#683=AXIS2_PLACEMENT_3D('',#959,#773,#774);
#684=AXIS2_PLACEMENT_3D('',#961,#776,#777);
#685=AXIS2_PLACEMENT_3D('',#963,#778,#779);
#686=AXIS2_PLACEMENT_3D('',#965,#781,#782);
#687=AXIS2_PLACEMENT_3D('',#969,#785,#786);
#688=AXIS2_PLACEMENT_3D('',#971,#787,#788);
#689=AXIS2_PLACEMENT_3D('',#973,#789,#790);
#690=AXIS2_PLACEMENT_3D('',#975,#791,#792);
#691=AXIS2_PLACEMENT_3D('',#977,#793,#794);
#692=AXIS2_PLACEMENT_3D('',#979,#795,#796);
#693=AXIS2_PLACEMENT_3D('',#988,#801,#802);
#694=AXIS2_PLACEMENT_3D('',#1007,#813,#814);
#695=AXIS2_PLACEMENT_3D('',#1011,#817,#818);
#696=AXIS2_PLACEMENT_3D('',#1015,#821,#822);
#697=AXIS2_PLACEMENT_3D('',#1023,#827,#828);
#698=AXIS2_PLACEMENT_3D('',#1028,#831,#832);
#699=AXIS2_PLACEMENT_3D('',#1030,#833,#834);
#700=AXIS2_PLACEMENT_3D('',#1031,#835,#836);
#701=AXIS2_PLACEMENT_3D('',#1033,#838,#839);
#702=AXIS2_PLACEMENT_3D('',#1037,#842,#843);
#703=AXIS2_PLACEMENT_3D('',#1045,#848,#849);
#704=AXIS2_PLACEMENT_3D('',#1050,#852,#853);
#705=AXIS2_PLACEMENT_3D('',#1052,#854,#855);
#706=AXIS2_PLACEMENT_3D('',#1053,#856,#857);
#707=AXIS2_PLACEMENT_3D('',#1058,#860,#861);
#708=AXIS2_PLACEMENT_3D('',#1060,#862,#863);
#709=AXIS2_PLACEMENT_3D('',#1061,#864,#865);
#710=AXIS2_PLACEMENT_3D('',#1063,#867,#868);
#711=AXIS2_PLACEMENT_3D('',#1065,#870,#871);
#712=AXIS2_PLACEMENT_3D('',#1067,#873,#874);
#713=AXIS2_PLACEMENT_3D('',#1069,#876,#877);
#714=AXIS2_PLACEMENT_3D('',#1071,#879,#880);
#715=AXIS2_PLACEMENT_3D('',#1073,#882,#883);
#716=AXIS2_PLACEMENT_3D('',#1075,#885,#886);
#717=AXIS2_PLACEMENT_3D('',#1076,#887,#888);
#718=AXIS2_PLACEMENT_3D('',#1078,#890,#891);
#719=AXIS2_PLACEMENT_3D('',#1080,#893,#894);
#720=AXIS2_PLACEMENT_3D('',#1082,#896,#897);
#721=AXIS2_PLACEMENT_3D('',#1084,#899,#900);
#722=AXIS2_PLACEMENT_3D('',#1085,#901,#902);
#723=DIRECTION('axis',(0.,0.,1.));
#724=DIRECTION('refdir',(1.,0.,0.));
#725=DIRECTION('center_axis',(0.,0.,1.));
#726=DIRECTION('ref_axis',(-0.707106781186547,0.707106781186547,0.));
#727=DIRECTION('center_axis',(0.,0.,-1.));
#728=DIRECTION('ref_axis',(-0.707106781186547,0.707106781186547,0.));
#729=DIRECTION('',(0.,0.,-1.));
#730=DIRECTION('center_axis',(0.,0.,1.));
#731=DIRECTION('ref_axis',(-0.707106781186547,0.707106781186547,0.));
#732=DIRECTION('',(0.,0.,1.));
#733=DIRECTION('center_axis',(-1.,0.,0.));
#734=DIRECTION('ref_axis',(0.,-1.,0.));
#735=DIRECTION('',(0.,-1.,0.));
#736=DIRECTION('',(0.,0.,-1.));
#737=DIRECTION('',(0.,-1.,0.));
#738=DIRECTION('center_axis',(0.,0.,1.));
#739=DIRECTION('ref_axis',(-1.,0.,0.));
#740=DIRECTION('',(-1.,0.,0.));
#741=DIRECTION('center_axis',(0.,0.,1.));
#742=DIRECTION('ref_axis',(0.707106781186547,0.707106781186547,0.));
#743=DIRECTION('',(0.,1.,0.));
#744=DIRECTION('center_axis',(0.,0.,1.));
#745=DIRECTION('ref_axis',(0.707106781186547,-0.707106781186547,0.));
#746=DIRECTION('',(1.,0.,0.));
#747=DIRECTION('center_axis',(0.,0.,1.));
#748=DIRECTION('ref_axis',(-0.707106781186547,-0.707106781186547,0.));
#749=DIRECTION('center_axis',(0.,0.,-1.));
#750=DIRECTION('ref_axis',(-1.,0.,0.));
#751=DIRECTION('center_axis',(0.,0.,-1.));
#752=DIRECTION('ref_axis',(-1.,0.,0.));
#753=DIRECTION('center_axis',(0.,0.,-1.));
#754=DIRECTION('ref_axis',(-1.,0.,0.));
#755=DIRECTION('center_axis',(0.,0.,-1.));
#756=DIRECTION('ref_axis',(-1.,0.,0.));
#757=DIRECTION('',(0.,-1.,0.));
#758=DIRECTION('',(-1.,0.,0.));
#759=DIRECTION('',(0.,1.,0.));
#760=DIRECTION('',(-1.,0.,0.));
#761=DIRECTION('center_axis',(0.,0.,1.));
#762=DIRECTION('ref_axis',(0.707106781186547,0.707106781186547,0.));
#763=DIRECTION('center_axis',(0.,0.,-1.));
#764=DIRECTION('ref_axis',(0.707106781186547,0.707106781186547,0.));
#765=DIRECTION('',(0.,0.,-1.));
#766=DIRECTION('',(0.,0.,1.));
#767=DIRECTION('center_axis',(1.,0.,0.));
#768=DIRECTION('ref_axis',(0.,1.,0.));
#769=DIRECTION('',(0.,1.,0.));
#770=DIRECTION('',(0.,0.,1.));
#771=DIRECTION('center_axis',(0.,0.,1.));
#772=DIRECTION('ref_axis',(0.707106781186547,-0.707106781186547,0.));
#773=DIRECTION('center_axis',(0.,0.,-1.));
#774=DIRECTION('ref_axis',(0.707106781186547,-0.707106781186547,0.));
#775=DIRECTION('',(0.,0.,-1.));
#776=DIRECTION('center_axis',(0.,0.,1.));
#777=DIRECTION('ref_axis',(-0.707106781186547,-0.707106781186547,0.));
#778=DIRECTION('center_axis',(0.,0.,-1.));
#779=DIRECTION('ref_axis',(-0.707106781186547,-0.707106781186547,0.));
#780=DIRECTION('',(0.,0.,1.));
#781=DIRECTION('center_axis',(0.,0.,1.));
#782=DIRECTION('ref_axis',(-1.,0.,0.));
#783=DIRECTION('',(1.,0.,0.));
#784=DIRECTION('',(-1.,0.,0.));
#785=DIRECTION('center_axis',(0.,0.,-1.));
#786=DIRECTION('ref_axis',(-1.,0.,0.));
#787=DIRECTION('center_axis',(0.,0.,-1.));
#788=DIRECTION('ref_axis',(-1.,0.,0.));
#789=DIRECTION('center_axis',(0.,0.,-1.));
#790=DIRECTION('ref_axis',(-1.,0.,0.));
#791=DIRECTION('center_axis',(0.,0.,-1.));
#792=DIRECTION('ref_axis',(-1.,0.,0.));
#793=DIRECTION('center_axis',(0.,0.,-1.));
#794=DIRECTION('ref_axis',(-1.,-1.57772181044202E-30,0.));
#795=DIRECTION('center_axis',(0.,0.,-1.));
#796=DIRECTION('ref_axis',(-1.,-1.57772181044202E-30,0.));
#797=DIRECTION('',(-1.,0.,0.));
#798=DIRECTION('',(0.,1.,0.));
#799=DIRECTION('',(1.,0.,0.));
#800=DIRECTION('',(0.,-1.,0.));
#801=DIRECTION('center_axis',(0.,1.,0.));
#802=DIRECTION('ref_axis',(0.,0.,1.));
#803=DIRECTION('',(-1.,0.,-7.39557098644698E-32));
#804=DIRECTION('',(0.,0.,-1.));
#805=DIRECTION('',(1.,0.,7.39557098644698E-32));
#806=DIRECTION('',(0.,0.,-1.));
#807=DIRECTION('',(0.,0.,1.));
#808=DIRECTION('',(-1.,0.,0.));
#809=DIRECTION('',(0.,0.,1.));
#810=DIRECTION('',(-1.,0.,0.));
#811=DIRECTION('',(0.,0.,1.));
#812=DIRECTION('',(0.,0.,-1.));
#813=DIRECTION('center_axis',(-1.,0.,0.));
#814=DIRECTION('ref_axis',(0.,-1.,0.));
#815=DIRECTION('',(0.,1.,0.));
#816=DIRECTION('',(0.,0.,1.));
#817=DIRECTION('center_axis',(0.,0.,1.));
#818=DIRECTION('ref_axis',(1.,0.,0.));
#819=DIRECTION('',(0.,-1.,0.));
#820=DIRECTION('',(-1.,0.,0.));
#821=DIRECTION('center_axis',(-1.,0.,0.));
#822=DIRECTION('ref_axis',(0.,0.,1.));
#823=DIRECTION('',(0.,1.,0.));
#824=DIRECTION('',(0.,0.,1.));
#825=DIRECTION('',(0.,-1.,0.));
#826=DIRECTION('',(0.,0.,1.));
#827=DIRECTION('center_axis',(0.,0.,-1.));
#828=DIRECTION('ref_axis',(1.,0.,0.));
#829=DIRECTION('',(0.,-1.,0.));
#830=DIRECTION('',(-1.,0.,0.));
#831=DIRECTION('center_axis',(0.,0.,1.));
#832=DIRECTION('ref_axis',(-1.,-1.57772181044202E-30,0.));
#833=DIRECTION('center_axis',(0.,0.,1.));
#834=DIRECTION('ref_axis',(-1.,-1.57772181044202E-30,0.));
#835=DIRECTION('center_axis',(-1.,0.,0.));
#836=DIRECTION('ref_axis',(0.,0.,1.));
#837=DIRECTION('',(0.,0.,1.));
#838=DIRECTION('center_axis',(1.,0.,0.));
#839=DIRECTION('ref_axis',(0.,0.,-1.));
#840=DIRECTION('',(0.,-1.,-1.09476442525378E-47));
#841=DIRECTION('',(0.,0.,-1.));
#842=DIRECTION('center_axis',(1.,0.,0.));
#843=DIRECTION('ref_axis',(0.,0.,-1.));
#844=DIRECTION('',(0.,0.,-1.));
#845=DIRECTION('',(0.,1.,0.));
#846=DIRECTION('',(0.,0.,-1.));
#847=DIRECTION('',(0.,-1.,0.));
#848=DIRECTION('center_axis',(-7.39557098644698E-32,-1.09476442525378E-47,
1.));
#849=DIRECTION('ref_axis',(1.,1.57772181044202E-30,7.39557098644698E-32));
#850=DIRECTION('',(-1.,0.,-7.39557098644699E-32));
#851=DIRECTION('',(0.,-1.,0.));
#852=DIRECTION('center_axis',(7.39557098644699E-32,1.23946970632523E-47,
-1.));
#853=DIRECTION('ref_axis',(1.,1.57772181044202E-30,7.39557098644699E-32));
#854=DIRECTION('center_axis',(7.39557098644699E-32,1.23946970632523E-47,
-1.));
#855=DIRECTION('ref_axis',(1.,1.57772181044202E-30,7.39557098644699E-32));
#856=DIRECTION('center_axis',(-7.39557098644698E-32,-1.09476442525378E-47,
1.));
#857=DIRECTION('ref_axis',(1.,1.57772181044202E-30,7.39557098644698E-32));
#858=DIRECTION('',(1.57772181044202E-30,-1.,-1.09476442525376E-47));
#859=DIRECTION('',(1.,0.,7.39557098644698E-32));
#860=DIRECTION('center_axis',(-7.39557098644698E-32,-1.09476442525378E-47,
1.));
#861=DIRECTION('ref_axis',(1.,1.57772181044202E-30,0.));
#862=DIRECTION('center_axis',(-7.39557098644698E-32,-1.09476442525378E-47,
1.));
#863=DIRECTION('ref_axis',(1.,1.57772181044202E-30,0.));
#864=DIRECTION('center_axis',(1.,1.57772181044202E-30,0.));
#865=DIRECTION('ref_axis',(-1.57772181044202E-30,1.,1.09476442525376E-47));
#866=DIRECTION('',(0.,0.,-1.));
#867=DIRECTION('center_axis',(0.,0.,1.));
#868=DIRECTION('ref_axis',(1.,1.57772181044202E-30,0.));
#869=DIRECTION('',(0.,0.,-1.));
#870=DIRECTION('center_axis',(0.,0.,1.));
#871=DIRECTION('ref_axis',(1.,1.57772181044202E-30,0.));
#872=DIRECTION('',(0.,0.,-1.));
#873=DIRECTION('center_axis',(0.,-1.,0.));
#874=DIRECTION('ref_axis',(1.,0.,0.));
#875=DIRECTION('',(-1.,0.,0.));
#876=DIRECTION('center_axis',(0.,0.,1.));
#877=DIRECTION('ref_axis',(-1.,-1.57772181044202E-30,0.));
#878=DIRECTION('',(0.,0.,1.));
#879=DIRECTION('center_axis',(0.,0.,1.));
#880=DIRECTION('ref_axis',(-1.,-1.57772181044202E-30,0.));
#881=DIRECTION('',(0.,0.,1.));
#882=DIRECTION('center_axis',(0.,-1.,0.));
#883=DIRECTION('ref_axis',(0.,0.,-1.));
#884=DIRECTION('',(-1.,0.,0.));
#885=DIRECTION('center_axis',(0.,0.,1.));
#886=DIRECTION('ref_axis',(1.,0.,0.));
#887=DIRECTION('center_axis',(0.,0.,1.));
#888=DIRECTION('ref_axis',(-1.,0.,0.));
#889=DIRECTION('',(0.,0.,-1.));
#890=DIRECTION('center_axis',(0.,0.,1.));
#891=DIRECTION('ref_axis',(-1.,0.,0.));
#892=DIRECTION('',(0.,0.,-1.));
#893=DIRECTION('center_axis',(0.,0.,1.));
#894=DIRECTION('ref_axis',(-1.,0.,0.));
#895=DIRECTION('',(0.,0.,-1.));
#896=DIRECTION('center_axis',(0.,0.,1.));
#897=DIRECTION('ref_axis',(-1.,0.,0.));
#898=DIRECTION('',(0.,0.,-1.));
#899=DIRECTION('center_axis',(0.,1.,0.));
#900=DIRECTION('ref_axis',(-1.,0.,0.));
#901=DIRECTION('center_axis',(0.,-1.,0.));
#902=DIRECTION('ref_axis',(1.,0.,0.));
#903=CARTESIAN_POINT('',(0.,0.,0.));
#904=CARTESIAN_POINT('Origin',(14.7447980008328,-4.46386514911163,18.5));
#905=CARTESIAN_POINT('',(7.24479800083278,-4.46386514911163,28.5));
#906=CARTESIAN_POINT('',(14.7447980008328,3.03613485088837,28.5));
#907=CARTESIAN_POINT('Origin',(14.7447980008328,-4.46386514911163,28.5));
#908=CARTESIAN_POINT('',(14.7447980008328,3.03613485088837,18.5));
#909=CARTESIAN_POINT('',(14.7447980008328,3.03613485088837,18.5));
#910=CARTESIAN_POINT('',(7.24479800083278,-4.46386514911163,18.5));
#911=CARTESIAN_POINT('Origin',(14.7447980008328,-4.46386514911163,18.5));
#912=CARTESIAN_POINT('',(7.24479800083278,-4.46386514911163,18.5));
#913=CARTESIAN_POINT('Origin',(7.24479800083278,3.03613485088837,18.5));
#914=CARTESIAN_POINT('',(7.24479800083278,-68.0638651491116,18.5));
#915=CARTESIAN_POINT('',(7.24479800083278,3.03613485088837,18.5));
#916=CARTESIAN_POINT('',(7.24479800083278,-68.0638651491116,28.5));
#917=CARTESIAN_POINT('',(7.24479800083278,-68.0638651491116,18.5));
#918=CARTESIAN_POINT('',(7.24479800083278,3.03613485088837,28.5));
#919=CARTESIAN_POINT('Origin',(58.2647980008328,-36.2638651491116,18.5));
#920=CARTESIAN_POINT('',(101.784798000833,3.03613485088837,18.5));
#921=CARTESIAN_POINT('',(109.284798000833,3.03613485088837,18.5));
#922=CARTESIAN_POINT('',(109.284798000833,-4.46386514911163,18.5));
#923=CARTESIAN_POINT('Origin',(101.784798000833,-4.46386514911163,18.5));
#924=CARTESIAN_POINT('',(109.284798000833,-68.0638651491116,18.5));
#925=CARTESIAN_POINT('',(109.284798000833,-75.5638651491116,18.5));
#926=CARTESIAN_POINT('',(101.784798000833,-75.5638651491116,18.5));
#927=CARTESIAN_POINT('Origin',(101.784798000833,-68.0638651491116,18.5));
#928=CARTESIAN_POINT('',(14.7447980008328,-75.5638651491116,18.5));
#929=CARTESIAN_POINT('',(7.24479800083278,-75.5638651491116,18.5));
#930=CARTESIAN_POINT('Origin',(14.7447980008328,-68.0638651491116,18.5));
#931=CARTESIAN_POINT('',(13.9447980008328,-70.5638651491116,18.5));
#932=CARTESIAN_POINT('Origin',(12.2447980008328,-70.5638651491116,18.5));
#933=CARTESIAN_POINT('',(13.9447980008328,-1.96386514911163,18.5));
#934=CARTESIAN_POINT('Origin',(12.2447980008328,-1.96386514911163,18.5));
#935=CARTESIAN_POINT('',(105.984798000833,-1.96386514911163,18.5));
#936=CARTESIAN_POINT('Origin',(104.284798000833,-1.96386514911163,18.5));
#937=CARTESIAN_POINT('',(105.984798000833,-70.5638651491116,18.5));
#938=CARTESIAN_POINT('Origin',(104.284798000833,-70.5638651491116,18.5));
#939=CARTESIAN_POINT('',(99.2847980008328,-6.96386514911163,18.5));
#940=CARTESIAN_POINT('',(99.2847980008328,-60.9638651491116,18.5));
#941=CARTESIAN_POINT('',(99.2847980008328,-6.96386514911163,18.5));
#942=CARTESIAN_POINT('',(12.5447980008328,-6.96386514911163,18.5));
#943=CARTESIAN_POINT('',(37.7547980008328,-6.96386514911163,18.5));
#944=CARTESIAN_POINT('',(12.5447980008328,-60.9638651491116,18.5));
#945=CARTESIAN_POINT('',(12.5447980008328,-47.3465617168347,18.5));
#946=CARTESIAN_POINT('',(99.2847980008328,-60.9638651491116,18.5));
#947=CARTESIAN_POINT('Origin',(101.784798000833,-4.46386514911163,18.5));
#948=CARTESIAN_POINT('',(101.784798000833,3.03613485088837,28.5));
#949=CARTESIAN_POINT('',(109.284798000833,-4.46386514911163,28.5));
#950=CARTESIAN_POINT('Origin',(101.784798000833,-4.46386514911163,28.5));
#951=CARTESIAN_POINT('',(109.284798000833,-4.46386514911163,18.5));
#952=CARTESIAN_POINT('',(101.784798000833,3.03613485088837,18.5));
#953=CARTESIAN_POINT('Origin',(109.284798000833,-75.5638651491116,18.5));
#954=CARTESIAN_POINT('',(109.284798000833,-68.0638651491116,28.5));
#955=CARTESIAN_POINT('',(109.284798000833,-75.5638651491116,28.5));
#956=CARTESIAN_POINT('',(109.284798000833,-68.0638651491116,18.5));
#957=CARTESIAN_POINT('Origin',(101.784798000833,-68.0638651491116,18.5));
#958=CARTESIAN_POINT('',(101.784798000833,-75.5638651491116,28.5));
#959=CARTESIAN_POINT('Origin',(101.784798000833,-68.0638651491116,28.5));
#960=CARTESIAN_POINT('',(101.784798000833,-75.5638651491116,18.5));
#961=CARTESIAN_POINT('Origin',(14.7447980008328,-68.0638651491116,18.5));
#962=CARTESIAN_POINT('',(14.7447980008328,-75.5638651491116,28.5));
#963=CARTESIAN_POINT('Origin',(14.7447980008328,-68.0638651491116,28.5));
#964=CARTESIAN_POINT('',(14.7447980008328,-75.5638651491116,18.5));
#965=CARTESIAN_POINT('Origin',(58.2647980008328,-36.2638651491116,28.5));
#966=CARTESIAN_POINT('',(7.24479800083278,-75.5638651491116,28.5));
#967=CARTESIAN_POINT('',(109.284798000833,3.03613485088837,28.5));
#968=CARTESIAN_POINT('',(105.984798000833,-70.5638651491116,28.5));
#969=CARTESIAN_POINT('Origin',(104.284798000833,-70.5638651491116,28.5));
#970=CARTESIAN_POINT('',(105.984798000833,-1.96386514911163,28.5));
#971=CARTESIAN_POINT('Origin',(104.284798000833,-1.96386514911163,28.5));
#972=CARTESIAN_POINT('',(13.9447980008328,-1.96386514911163,28.5));
#973=CARTESIAN_POINT('Origin',(12.2447980008328,-1.96386514911163,28.5));
#974=CARTESIAN_POINT('',(13.9447980008328,-70.5638651491116,28.5));
#975=CARTESIAN_POINT('Origin',(12.2447980008328,-70.5638651491116,28.5));
#976=CARTESIAN_POINT('',(84.5915000000001,-57.3514999999998,28.5));
#977=CARTESIAN_POINT('Origin',(82.9786000000002,-57.3514999999998,28.5));
#978=CARTESIAN_POINT('',(84.5914999999977,-20.648500000003,28.5));
#979=CARTESIAN_POINT('Origin',(82.9786000000003,-20.648500000003,28.5));
#980=CARTESIAN_POINT('',(80.0000011771917,-17.3638651491116,28.5));
#981=CARTESIAN_POINT('',(12.5447980008328,-17.3638651491116,28.5));
#982=CARTESIAN_POINT('',(17.2447980008328,-17.3638651491116,28.5));
#983=CARTESIAN_POINT('',(80.0000011771917,-60.9638651491116,28.5));
#984=CARTESIAN_POINT('',(80.0000011771917,-26.8138651491116,28.5));
#985=CARTESIAN_POINT('',(12.5447980008328,-60.9638651491116,28.5));
#986=CARTESIAN_POINT('',(99.2847980008328,-60.9638651491116,28.5));
#987=CARTESIAN_POINT('',(12.5447980008328,-27.9173034322776,28.5));
#988=CARTESIAN_POINT('Origin',(99.2847980008328,-60.9638651491116,18.5));
#989=CARTESIAN_POINT('',(18.0000002682209,-60.9638651491116,26.8256));
#990=CARTESIAN_POINT('',(12.5447980008328,-60.9638651491116,26.8256));
#991=CARTESIAN_POINT('',(57.2423989981812,-60.9638651491116,26.8256));
#992=CARTESIAN_POINT('',(18.0000002682209,-60.9638651491116,28.4996));
#993=CARTESIAN_POINT('',(18.0000002682209,-60.9638651491116,22.6628));
#994=CARTESIAN_POINT('',(12.5447980008328,-60.9638651491116,28.4996));
#995=CARTESIAN_POINT('',(57.2423989981812,-60.9638651491116,28.4996));
#996=CARTESIAN_POINT('',(12.5447980008328,-60.9638651491116,18.5));
#997=CARTESIAN_POINT('',(80.0000011771917,-60.9638651491116,26.8410600424356));
#998=CARTESIAN_POINT('',(80.0000011771917,-60.9638651491116,23.5));
#999=CARTESIAN_POINT('',(92.2847980008328,-60.9638651491116,26.8410600424356));
#1000=CARTESIAN_POINT('',(89.1423995890123,-60.9638651491116,26.8410600424356));
#1001=CARTESIAN_POINT('',(92.2847980008328,-60.9638651491116,22.5));
#1002=CARTESIAN_POINT('',(92.2847980008328,-60.9638651491116,18.5));
#1003=CARTESIAN_POINT('',(99.2847980008328,-60.9638651491116,22.5));
#1004=CARTESIAN_POINT('',(99.2847980008328,-60.9638651491116,22.5));
#1005=CARTESIAN_POINT('',(99.2847980008328,-60.9638651491116,18.5));
#1006=CARTESIAN_POINT('',(12.5447980008328,-60.9638651491116,18.5));
#1007=CARTESIAN_POINT('Origin',(99.2847980008328,-6.96386514911163,18.5));
#1008=CARTESIAN_POINT('',(99.2847980008328,-6.96386514911163,22.5));
#1009=CARTESIAN_POINT('',(99.2847980008328,-6.96386514911163,22.5));
#1010=CARTESIAN_POINT('',(99.2847980008328,-6.96386514911163,18.5));
#1011=CARTESIAN_POINT('Origin',(99.2847980008328,-6.96386514911163,22.5));
#1012=CARTESIAN_POINT('',(92.2847980008328,-6.96386514911163,22.5));
#1013=CARTESIAN_POINT('',(92.2847980008328,-6.96386514911163,22.5));
#1014=CARTESIAN_POINT('',(58.2647980008328,-6.96386514911163,22.5));
#1015=CARTESIAN_POINT('Origin',(92.2847980008328,-6.96386514911163,18.5));
#1016=CARTESIAN_POINT('',(92.2847980008328,-17.3638651491116,26.8410600424356));
#1017=CARTESIAN_POINT('',(92.2847980008328,-36.2638651491116,26.8410600424356));
#1018=CARTESIAN_POINT('',(92.2847980008328,-17.3638651491116,24.5));
#1019=CARTESIAN_POINT('',(92.2847980008328,-17.3638651491116,18.5));
#1020=CARTESIAN_POINT('',(92.2847980008328,-6.96386514911163,24.5));
#1021=CARTESIAN_POINT('',(92.2847980008328,-6.96386514911163,24.5));
#1022=CARTESIAN_POINT('',(92.2847980008328,-6.96386514911163,18.5));
#1023=CARTESIAN_POINT('Origin',(79.0000011771917,-17.3638651491116,26.8410600424356));
#1024=CARTESIAN_POINT('',(80.0000011771917,-17.3638651491116,26.8410600424356));
#1025=CARTESIAN_POINT('',(80.0000011771917,-17.3638651491116,26.8410600424356));
#1026=CARTESIAN_POINT('',(49.1223995890123,-17.3638651491116,26.8410600424356));
#1027=CARTESIAN_POINT('',(84.5914999999977,-20.648500000003,26.8410600424356));
#1028=CARTESIAN_POINT('Origin',(82.9786000000003,-20.648500000003,26.8410600424356));
#1029=CARTESIAN_POINT('',(84.5915000000001,-57.3514999999998,26.8410600424356));
#1030=CARTESIAN_POINT('Origin',(82.9786000000002,-57.3514999999998,26.8410600424356));
#1031=CARTESIAN_POINT('Origin',(80.0000011771917,-17.3638651491116,28.5));
#1032=CARTESIAN_POINT('',(80.0000011771917,-17.3638651491116,23.5));
#1033=CARTESIAN_POINT('Origin',(12.5447980008328,-19.5707417154435,18.5));
#1034=CARTESIAN_POINT('',(12.5447980008328,-17.3638651491116,28.4996));
#1035=CARTESIAN_POINT('',(12.5447980008328,-29.3042957593742,28.4996));
#1036=CARTESIAN_POINT('',(12.5447980008328,-17.3638651491116,18.5));
#1037=CARTESIAN_POINT('Origin',(12.5447980008328,-19.5707417154435,18.5));
#1038=CARTESIAN_POINT('',(12.5447980008328,-6.96386514911163,24.5));
#1039=CARTESIAN_POINT('',(12.5447980008328,-6.96386514911163,18.5));
#1040=CARTESIAN_POINT('',(12.5447980008328,-17.3638651491116,24.5));
#1041=CARTESIAN_POINT('',(12.5447980008328,-13.2673034322776,24.5));
#1042=CARTESIAN_POINT('',(12.5447980008328,-17.3638651491116,26.8256));
#1043=CARTESIAN_POINT('',(12.5447980008328,-17.3638651491116,18.5));
#1044=CARTESIAN_POINT('',(12.5447980008328,-18.5853706610264,26.8256));
#1045=CARTESIAN_POINT('Origin',(15.1999999955297,-39.0378498033049,26.8256));
#1046=CARTESIAN_POINT('',(18.0000002682209,-17.3638651491116,26.8256));
#1047=CARTESIAN_POINT('',(17.6223991345268,-17.3638651491116,26.8256));
#1048=CARTESIAN_POINT('',(18.0000002682209,-60.4757000000004,26.8256));
#1049=CARTESIAN_POINT('',(13.2906443408151,-57.3515000000005,26.8256));
#1050=CARTESIAN_POINT('Origin',(15.4146000000001,-57.3515000000005,26.8256));
#1051=CARTESIAN_POINT('',(13.2906443408147,-20.6485000000004,26.8256));
#1052=CARTESIAN_POINT('Origin',(15.4145999999997,-20.6485000000004,26.8256));
#1053=CARTESIAN_POINT('Origin',(15.1999999955297,-39.0378498033049,28.4996));
#1054=CARTESIAN_POINT('',(18.0000002682209,-17.3638651491116,28.4996));
#1055=CARTESIAN_POINT('',(18.0000002682209,-49.7567749016527,28.4996));
#1056=CARTESIAN_POINT('',(14.8947980008328,-17.3638651491116,28.4996));
#1057=CARTESIAN_POINT('',(13.2906443408151,-57.3515000000005,28.4996));
#1058=CARTESIAN_POINT('Origin',(15.4146000000001,-57.3515000000005,28.4996));
#1059=CARTESIAN_POINT('',(13.2906443408147,-20.6485000000004,28.4996));
#1060=CARTESIAN_POINT('Origin',(15.4145999999997,-20.6485000000004,28.4996));
#1061=CARTESIAN_POINT('Origin',(18.0000002682209,-60.4757000000004,26.8256));
#1062=CARTESIAN_POINT('',(18.0000002682209,-17.3638651491116,23.4998));
#1063=CARTESIAN_POINT('Origin',(15.4146000000001,-57.3515000000005,26.8256));
#1064=CARTESIAN_POINT('',(13.2906443408151,-57.3515000000005,26.8256));
#1065=CARTESIAN_POINT('Origin',(15.4145999999997,-20.6485000000004,26.8256));
#1066=CARTESIAN_POINT('',(13.2906443408147,-20.6485000000004,26.8256));
#1067=CARTESIAN_POINT('Origin',(17.2447980008328,-6.96386514911163,18.5));
#1068=CARTESIAN_POINT('',(17.2447980008328,-6.96386514911163,24.5));
#1069=CARTESIAN_POINT('Origin',(82.9786000000003,-20.648500000003,25.2));
#1070=CARTESIAN_POINT('',(84.5914999999977,-20.648500000003,25.2));
#1071=CARTESIAN_POINT('Origin',(82.9786000000002,-57.3514999999998,25.2));
#1072=CARTESIAN_POINT('',(84.5915000000001,-57.3514999999998,25.2));
#1073=CARTESIAN_POINT('Origin',(17.2447980008328,-17.3638651491116,18.5));
#1074=CARTESIAN_POINT('',(17.2447980008328,-17.3638651491116,24.5));
#1075=CARTESIAN_POINT('Origin',(17.2447980008328,-6.96386514911163,24.5));
#1076=CARTESIAN_POINT('Origin',(12.2447980008328,-70.5638651491116,18.5));
#1077=CARTESIAN_POINT('',(13.9447980008328,-70.5638651491116,18.5));
#1078=CARTESIAN_POINT('Origin',(12.2447980008328,-1.96386514911163,18.5));
#1079=CARTESIAN_POINT('',(13.9447980008328,-1.96386514911163,18.5));
#1080=CARTESIAN_POINT('Origin',(104.284798000833,-1.96386514911163,18.5));
#1081=CARTESIAN_POINT('',(105.984798000833,-1.96386514911163,18.5));
#1082=CARTESIAN_POINT('Origin',(104.284798000833,-70.5638651491116,18.5));
#1083=CARTESIAN_POINT('',(105.984798000833,-70.5638651491116,18.5));
#1084=CARTESIAN_POINT('Origin',(109.284798000833,3.03613485088837,18.5));
#1085=CARTESIAN_POINT('Origin',(7.24479800083278,-75.5638651491116,18.5));
#1086=UNCERTAINTY_MEASURE_WITH_UNIT(LENGTH_MEASURE(0.01),#1090,
'DISTANCE_ACCURACY_VALUE',
'Maximum model space distance between geometric entities at asserted c
onnectivities');
#1087=UNCERTAINTY_MEASURE_WITH_UNIT(LENGTH_MEASURE(0.01),#1090,
'DISTANCE_ACCURACY_VALUE',
'Maximum model space distance between geometric entities at asserted c
onnectivities');
#1088=(
GEOMETRIC_REPRESENTATION_CONTEXT(3)
GLOBAL_UNCERTAINTY_ASSIGNED_CONTEXT((#1086))
GLOBAL_UNIT_ASSIGNED_CONTEXT((#1090,#1091,#1092))
REPRESENTATION_CONTEXT('','3D')
);
#1089=(
GEOMETRIC_REPRESENTATION_CONTEXT(3)
GLOBAL_UNCERTAINTY_ASSIGNED_CONTEXT((#1087))
GLOBAL_UNIT_ASSIGNED_CONTEXT((#1090,#1091,#1092))
REPRESENTATION_CONTEXT('','3D')
);
#1090=(
LENGTH_UNIT()
NAMED_UNIT(*)
SI_UNIT(.MILLI.,.METRE.)
);
#1091=(
NAMED_UNIT(*)
PLANE_ANGLE_UNIT()
SI_UNIT($,.RADIAN.)
);
#1092=(
NAMED_UNIT(*)
SI_UNIT($,.STERADIAN.)
SOLID_ANGLE_UNIT()
);
#1093=SHAPE_DEFINITION_REPRESENTATION(#1094,#1095);
#1094=PRODUCT_DEFINITION_SHAPE('',$,#1097);
#1095=SHAPE_REPRESENTATION('',(#666),#1088);
#1096=PRODUCT_DEFINITION_CONTEXT('part definition',#1101,'design');
#1097=PRODUCT_DEFINITION('Hermes 1','Hermesnew',#1098,#1096);
#1098=PRODUCT_DEFINITION_FORMATION('',$,#1103);
#1099=PRODUCT_RELATED_PRODUCT_CATEGORY('Hermesnew','Hermesnew',(#1103));
#1100=APPLICATION_PROTOCOL_DEFINITION('international standard',
'automotive_design',2009,#1101);
#1101=APPLICATION_CONTEXT(
'Core Data for Automotive Mechanical Design Process');
#1102=PRODUCT_CONTEXT('part definition',#1101,'mechanical');
#1103=PRODUCT('Hermes 1','Hermesnew','KiCad electronic assembly',(#1102));
#1104=PRESENTATION_STYLE_ASSIGNMENT((#1105));
#1105=SURFACE_STYLE_USAGE(.BOTH.,#1106);
#1106=SURFACE_SIDE_STYLE('',(#1107));
#1107=SURFACE_STYLE_FILL_AREA(#1108);
#1108=FILL_AREA_STYLE('Steel - Satin',(#1109));
#1109=FILL_AREA_STYLE_COLOUR('Steel - Satin',#1110);
#1110=COLOUR_RGB('Steel - Satin',0.627450980392157,0.627450980392157,0.627450980392157);
ENDSEC;
END-ISO-10303-21;
