ISO-10303-21;
HEADER;
/* Generated by software containing ST-Developer
 * from STEP Tools, Inc. (www.steptools.com) 
 */

FILE_DESCRIPTION(
/* description */ ('KiCad electronic assembly'),
/* implementation_level */ '2;1');

FILE_NAME(
/* name */ 'Hermes Bottom [1].step',
/* time_stamp */ '2026-07-29T11:50:52+05:30',
/* author */ (''),
/* organization */ (''),
/* preprocessor_version */ 'ST-DEVELOPER v20.1',
/* originating_system */ 'Autodesk Translation Framework v14.24.0.0',
/* authorisation */ '');

FILE_SCHEMA (('AUTOMOTIVE_DESIGN { 1 0 10303 214 3 1 1 }'));
ENDSEC;

DATA;
#10=MECHANICAL_DESIGN_GEOMETRIC_PRESENTATION_REPRESENTATION('',(#13),#1512);
#11=SHAPE_REPRESENTATION_RELATIONSHIP('SRR','None',#1518,#12);
#12=ADVANCED_BREP_SHAPE_REPRESENTATION('',(#14),#1511);
#13=STYLED_ITEM('',(#1527),#14);
#14=MANIFOLD_SOLID_BREP('Body2',#860);
#15=ELLIPSE('',#900,1.96299091524474,1.70000000000001);
#16=ELLIPSE('',#903,1.96299091524473,1.7);
#17=ELLIPSE('',#906,1.96299091524473,1.7);
#18=ELLIPSE('',#909,1.96299091524473,1.7);
#19=(
BOUNDED_SURFACE()
B_SPLINE_SURFACE(5,1,((#1281,#1282),(#1283,#1284),(#1285,#1286),(#1287,
#1288),(#1289,#1290),(#1291,#1292),(#1293,#1294),(#1295,#1296),(#1297,#1298),
(#1299,#1300),(#1301,#1302),(#1303,#1304),(#1305,#1306)),.UNSPECIFIED.,
 .F.,.F.,.F.)
B_SPLINE_SURFACE_WITH_KNOTS((6,1,1,1,1,1,1,1,6),(2,2),(-1.,-0.9,-0.8,-0.7,
-0.6,-0.5,-0.4,-0.3,-0.206472524352577),(0.,7.),.UNSPECIFIED.)
GEOMETRIC_REPRESENTATION_ITEM()
RATIONAL_B_SPLINE_SURFACE(((1.,1.),(1.,1.),(1.,1.),(1.,1.),(1.,1.),(1.,
1.),(1.,1.),(1.,1.),(1.,1.),(1.,1.),(1.,1.),(1.,1.),(1.,1.)))
REPRESENTATION_ITEM('')
SURFACE()
);
#20=(
BOUNDED_SURFACE()
B_SPLINE_SURFACE(5,1,((#1342,#1343),(#1344,#1345),(#1346,#1347),(#1348,
#1349),(#1350,#1351),(#1352,#1353),(#1354,#1355),(#1356,#1357),(#1358,#1359),
(#1360,#1361),(#1362,#1363),(#1364,#1365),(#1366,#1367)),.UNSPECIFIED.,
 .F.,.F.,.F.)
B_SPLINE_SURFACE_WITH_KNOTS((6,1,1,1,1,1,1,1,6),(2,2),(0.217608087544722,
0.3,0.4,0.5,0.6,0.7,0.8,0.9,1.),(0.,7.),.UNSPECIFIED.)
GEOMETRIC_REPRESENTATION_ITEM()
RATIONAL_B_SPLINE_SURFACE(((1.,1.),(1.,1.),(1.,1.),(1.,1.),(1.,1.),(1.,
1.),(1.,1.),(1.,1.),(1.,1.),(1.,1.),(1.,1.),(1.,1.),(1.,1.)))
REPRESENTATION_ITEM('')
SURFACE()
);
#21=(
BOUNDED_CURVE()
B_SPLINE_CURVE(5,(#1261,#1262,#1263,#1264,#1265,#1266),.UNSPECIFIED.,.F.,
 .F.)
B_SPLINE_CURVE_WITH_KNOTS((6,6),(0.997258339942895,1.),.UNSPECIFIED.)
CURVE()
GEOMETRIC_REPRESENTATION_ITEM()
RATIONAL_B_SPLINE_CURVE((1.,1.,1.,1.,1.,1.))
REPRESENTATION_ITEM('')
);
#22=(
BOUNDED_CURVE()
B_SPLINE_CURVE(5,(#1270,#1271,#1272,#1273,#1274,#1275),.UNSPECIFIED.,.F.,
 .F.)
B_SPLINE_CURVE_WITH_KNOTS((6,6),(-1.,-0.994908343201813),.UNSPECIFIED.)
CURVE()
GEOMETRIC_REPRESENTATION_ITEM()
RATIONAL_B_SPLINE_CURVE((1.,1.,1.,1.,1.,1.))
REPRESENTATION_ITEM('')
);
#23=(
BOUNDED_CURVE()
B_SPLINE_CURVE(5,(#1309,#1310,#1311,#1312,#1313,#1314,#1315,#1316,#1317,
#1318,#1319,#1320,#1321),.UNSPECIFIED.,.F.,.F.)
B_SPLINE_CURVE_WITH_KNOTS((6,1,1,1,1,1,1,1,6),(0.206472524352576,0.3,0.4,
0.5,0.6,0.7,0.8,0.9,1.),.UNSPECIFIED.)
CURVE()
GEOMETRIC_REPRESENTATION_ITEM()
RATIONAL_B_SPLINE_CURVE((1.,1.,1.,1.,1.,1.,1.,1.,1.,1.,1.,1.,1.))
REPRESENTATION_ITEM('')
);
#24=(
BOUNDED_CURVE()
B_SPLINE_CURVE(5,(#1324,#1325,#1326,#1327,#1328,#1329,#1330,#1331,#1332,
#1333,#1334,#1335,#1336),.UNSPECIFIED.,.F.,.F.)
B_SPLINE_CURVE_WITH_KNOTS((6,1,1,1,1,1,1,1,6),(-0.994908343201813,-0.9,
-0.8,-0.7,-0.6,-0.5,-0.4,-0.3,-0.206472524352577),.UNSPECIFIED.)
CURVE()
GEOMETRIC_REPRESENTATION_ITEM()
RATIONAL_B_SPLINE_CURVE((1.,1.,1.,1.,1.,1.,1.,1.,1.,1.,1.,1.,1.))
REPRESENTATION_ITEM('')
);
#25=(
BOUNDED_CURVE()
B_SPLINE_CURVE(5,(#1369,#1370,#1371,#1372,#1373,#1374,#1375,#1376,#1377,
#1378,#1379,#1380,#1381),.UNSPECIFIED.,.F.,.F.)
B_SPLINE_CURVE_WITH_KNOTS((6,1,1,1,1,1,1,1,6),(0.217608087544722,0.3,0.4,
0.5,0.6,0.7,0.8,0.9,1.),.UNSPECIFIED.)
CURVE()
GEOMETRIC_REPRESENTATION_ITEM()
RATIONAL_B_SPLINE_CURVE((1.,1.,1.,1.,1.,1.,1.,1.,1.,1.,1.,1.,1.))
REPRESENTATION_ITEM('')
);
#26=(
BOUNDED_CURVE()
B_SPLINE_CURVE(5,(#1383,#1384,#1385,#1386,#1387,#1388,#1389,#1390,#1391,
#1392,#1393,#1394,#1395),.UNSPECIFIED.,.F.,.F.)
B_SPLINE_CURVE_WITH_KNOTS((6,1,1,1,1,1,1,1,6),(0.217608087544722,0.3,0.4,
0.5,0.6,0.7,0.8,0.9,0.997258339942895),.UNSPECIFIED.)
CURVE()
GEOMETRIC_REPRESENTATION_ITEM()
RATIONAL_B_SPLINE_CURVE((1.,1.,1.,1.,1.,1.,1.,1.,1.,1.,1.,1.,1.))
REPRESENTATION_ITEM('')
);
#27=FACE_BOUND('',#116,.T.);
#28=FACE_BOUND('',#118,.T.);
#29=FACE_BOUND('',#119,.T.);
#30=FACE_BOUND('',#120,.T.);
#31=FACE_BOUND('',#121,.T.);
#32=FACE_BOUND('',#122,.T.);
#33=FACE_BOUND('',#126,.T.);
#34=FACE_BOUND('',#127,.T.);
#35=FACE_BOUND('',#128,.T.);
#36=FACE_BOUND('',#129,.T.);
#37=FACE_BOUND('',#147,.T.);
#38=FACE_BOUND('',#148,.T.);
#39=FACE_BOUND('',#150,.T.);
#40=FACE_BOUND('',#151,.T.);
#41=FACE_BOUND('',#153,.T.);
#42=FACE_BOUND('',#154,.T.);
#43=FACE_BOUND('',#157,.T.);
#44=FACE_BOUND('',#158,.T.);
#45=PLANE('',#865);
#46=PLANE('',#866);
#47=PLANE('',#876);
#48=PLANE('',#877);
#49=PLANE('',#885);
#50=PLANE('',#887);
#51=PLANE('',#888);
#52=PLANE('',#889);
#53=PLANE('',#890);
#54=PLANE('',#891);
#55=PLANE('',#910);
#56=PLANE('',#911);
#57=PLANE('',#912);
#58=PLANE('',#916);
#59=PLANE('',#917);
#60=PLANE('',#918);
#61=PLANE('',#923);
#62=PLANE('',#924);
#63=PLANE('',#925);
#64=PLANE('',#926);
#65=PLANE('',#927);
#66=PLANE('',#928);
#67=PLANE('',#929);
#68=PLANE('',#930);
#69=PLANE('',#931);
#70=PLANE('',#932);
#71=FACE_OUTER_BOUND('',#114,.T.);
#72=FACE_OUTER_BOUND('',#115,.T.);
#73=FACE_OUTER_BOUND('',#117,.T.);
#74=FACE_OUTER_BOUND('',#123,.T.);
#75=FACE_OUTER_BOUND('',#124,.T.);
#76=FACE_OUTER_BOUND('',#125,.T.);
#77=FACE_OUTER_BOUND('',#130,.T.);
#78=FACE_OUTER_BOUND('',#131,.T.);
#79=FACE_OUTER_BOUND('',#132,.T.);
#80=FACE_OUTER_BOUND('',#133,.T.);
#81=FACE_OUTER_BOUND('',#134,.T.);
#82=FACE_OUTER_BOUND('',#135,.T.);
#83=FACE_OUTER_BOUND('',#136,.T.);
#84=FACE_OUTER_BOUND('',#137,.T.);
#85=FACE_OUTER_BOUND('',#138,.T.);
#86=FACE_OUTER_BOUND('',#139,.T.);
#87=FACE_OUTER_BOUND('',#140,.T.);
#88=FACE_OUTER_BOUND('',#141,.T.);
#89=FACE_OUTER_BOUND('',#142,.T.);
#90=FACE_OUTER_BOUND('',#143,.T.);
#91=FACE_OUTER_BOUND('',#144,.T.);
#92=FACE_OUTER_BOUND('',#145,.T.);
#93=FACE_OUTER_BOUND('',#146,.T.);
#94=FACE_OUTER_BOUND('',#149,.T.);
#95=FACE_OUTER_BOUND('',#152,.T.);
#96=FACE_OUTER_BOUND('',#155,.T.);
#97=FACE_OUTER_BOUND('',#156,.T.);
#98=FACE_OUTER_BOUND('',#159,.T.);
#99=FACE_OUTER_BOUND('',#160,.T.);
#100=FACE_OUTER_BOUND('',#161,.T.);
#101=FACE_OUTER_BOUND('',#162,.T.);
#102=FACE_OUTER_BOUND('',#163,.T.);
#103=FACE_OUTER_BOUND('',#164,.T.);
#104=FACE_OUTER_BOUND('',#165,.T.);
#105=FACE_OUTER_BOUND('',#166,.T.);
#106=FACE_OUTER_BOUND('',#167,.T.);
#107=FACE_OUTER_BOUND('',#168,.T.);
#108=FACE_OUTER_BOUND('',#169,.T.);
#109=FACE_OUTER_BOUND('',#170,.T.);
#110=FACE_OUTER_BOUND('',#171,.T.);
#111=FACE_OUTER_BOUND('',#172,.T.);
#112=FACE_OUTER_BOUND('',#173,.T.);
#113=FACE_OUTER_BOUND('',#174,.T.);
#114=EDGE_LOOP('',(#564,#565,#566,#567));
#115=EDGE_LOOP('',(#568,#569,#570,#571));
#116=EDGE_LOOP('',(#572,#573,#574,#575));
#117=EDGE_LOOP('',(#576,#577,#578,#579,#580,#581,#582,#583));
#118=EDGE_LOOP('',(#584,#585,#586,#587));
#119=EDGE_LOOP('',(#588));
#120=EDGE_LOOP('',(#589));
#121=EDGE_LOOP('',(#590));
#122=EDGE_LOOP('',(#591));
#123=EDGE_LOOP('',(#592,#593,#594,#595));
#124=EDGE_LOOP('',(#596,#597,#598,#599));
#125=EDGE_LOOP('',(#600,#601,#602,#603,#604,#605,#606,#607,#608,#609,#610,
#611,#612,#613));
#126=EDGE_LOOP('',(#614));
#127=EDGE_LOOP('',(#615));
#128=EDGE_LOOP('',(#616));
#129=EDGE_LOOP('',(#617));
#130=EDGE_LOOP('',(#618,#619,#620,#621));
#131=EDGE_LOOP('',(#622,#623,#624,#625,#626,#627,#628,#629));
#132=EDGE_LOOP('',(#630,#631,#632,#633));
#133=EDGE_LOOP('',(#634,#635,#636));
#134=EDGE_LOOP('',(#637,#638,#639));
#135=EDGE_LOOP('',(#640,#641,#642,#643));
#136=EDGE_LOOP('',(#644,#645,#646,#647));
#137=EDGE_LOOP('',(#648,#649,#650,#651,#652,#653));
#138=EDGE_LOOP('',(#654,#655,#656,#657));
#139=EDGE_LOOP('',(#658,#659,#660,#661,#662,#663));
#140=EDGE_LOOP('',(#664,#665,#666,#667));
#141=EDGE_LOOP('',(#668,#669,#670,#671));
#142=EDGE_LOOP('',(#672,#673,#674,#675));
#143=EDGE_LOOP('',(#676,#677,#678,#679));
#144=EDGE_LOOP('',(#680,#681,#682,#683));
#145=EDGE_LOOP('',(#684,#685,#686,#687));
#146=EDGE_LOOP('',(#688,#689,#690,#691));
#147=EDGE_LOOP('',(#692));
#148=EDGE_LOOP('',(#693));
#149=EDGE_LOOP('',(#694,#695,#696,#697));
#150=EDGE_LOOP('',(#698));
#151=EDGE_LOOP('',(#699));
#152=EDGE_LOOP('',(#700,#701,#702,#703));
#153=EDGE_LOOP('',(#704));
#154=EDGE_LOOP('',(#705));
#155=EDGE_LOOP('',(#706,#707,#708,#709));
#156=EDGE_LOOP('',(#710,#711,#712,#713));
#157=EDGE_LOOP('',(#714));
#158=EDGE_LOOP('',(#715));
#159=EDGE_LOOP('',(#716,#717,#718,#719,#720,#721,#722,#723,#724,#725));
#160=EDGE_LOOP('',(#726,#727,#728,#729,#730,#731,#732,#733,#734,#735));
#161=EDGE_LOOP('',(#736,#737,#738,#739));
#162=EDGE_LOOP('',(#740,#741,#742,#743));
#163=EDGE_LOOP('',(#744,#745,#746,#747));
#164=EDGE_LOOP('',(#748,#749,#750,#751));
#165=EDGE_LOOP('',(#752,#753,#754,#755));
#166=EDGE_LOOP('',(#756,#757,#758,#759,#760,#761));
#167=EDGE_LOOP('',(#762,#763,#764,#765));
#168=EDGE_LOOP('',(#766,#767,#768,#769));
#169=EDGE_LOOP('',(#770,#771,#772,#773,#774,#775));
#170=EDGE_LOOP('',(#776,#777,#778,#779,#780,#781));
#171=EDGE_LOOP('',(#782,#783,#784,#785,#786,#787,#788,#789));
#172=EDGE_LOOP('',(#790,#791,#792,#793));
#173=EDGE_LOOP('',(#794,#795,#796,#797));
#174=EDGE_LOOP('',(#798,#799,#800,#801));
#175=LINE('',#1166,#258);
#176=LINE('',#1169,#259);
#177=LINE('',#1172,#260);
#178=LINE('',#1174,#261);
#179=LINE('',#1175,#262);
#180=LINE('',#1178,#263);
#181=LINE('',#1180,#264);
#182=LINE('',#1182,#265);
#183=LINE('',#1183,#266);
#184=LINE('',#1186,#267);
#185=LINE('',#1190,#268);
#186=LINE('',#1194,#269);
#187=LINE('',#1198,#270);
#188=LINE('',#1200,#271);
#189=LINE('',#1202,#272);
#190=LINE('',#1203,#273);
#191=LINE('',#1216,#274);
#192=LINE('',#1217,#275);
#193=LINE('',#1220,#276);
#194=LINE('',#1221,#277);
#195=LINE('',#1226,#278);
#196=LINE('',#1228,#279);
#197=LINE('',#1230,#280);
#198=LINE('',#1232,#281);
#199=LINE('',#1234,#282);
#200=LINE('',#1236,#283);
#201=LINE('',#1238,#284);
#202=LINE('',#1240,#285);
#203=LINE('',#1250,#286);
#204=LINE('',#1253,#287);
#205=LINE('',#1255,#288);
#206=LINE('',#1256,#289);
#207=LINE('',#1257,#290);
#208=LINE('',#1267,#291);
#209=LINE('',#1276,#292);
#210=LINE('',#1278,#293);
#211=LINE('',#1280,#294);
#212=LINE('',#1323,#295);
#213=LINE('',#1337,#296);
#214=LINE('',#1340,#297);
#215=LINE('',#1341,#298);
#216=LINE('',#1396,#299);
#217=LINE('',#1401,#300);
#218=LINE('',#1407,#301);
#219=LINE('',#1413,#302);
#220=LINE('',#1419,#303);
#221=LINE('',#1425,#304);
#222=LINE('',#1431,#305);
#223=LINE('',#1435,#306);
#224=LINE('',#1437,#307);
#225=LINE('',#1438,#308);
#226=LINE('',#1441,#309);
#227=LINE('',#1443,#310);
#228=LINE('',#1444,#311);
#229=LINE('',#1447,#312);
#230=LINE('',#1449,#313);
#231=LINE('',#1450,#314);
#232=LINE('',#1456,#315);
#233=LINE('',#1458,#316);
#234=LINE('',#1459,#317);
#235=LINE('',#1463,#318);
#236=LINE('',#1465,#319);
#237=LINE('',#1467,#320);
#238=LINE('',#1469,#321);
#239=LINE('',#1473,#322);
#240=LINE('',#1475,#323);
#241=LINE('',#1477,#324);
#242=LINE('',#1478,#325);
#243=LINE('',#1481,#326);
#244=LINE('',#1482,#327);
#245=LINE('',#1484,#328);
#246=LINE('',#1485,#329);
#247=LINE('',#1488,#330);
#248=LINE('',#1489,#331);
#249=LINE('',#1491,#332);
#250=LINE('',#1494,#333);
#251=LINE('',#1496,#334);
#252=LINE('',#1498,#335);
#253=LINE('',#1499,#336);
#254=LINE('',#1501,#337);
#255=LINE('',#1502,#338);
#256=LINE('',#1504,#339);
#257=LINE('',#1506,#340);
#258=VECTOR('',#939,10.);
#259=VECTOR('',#942,10.);
#260=VECTOR('',#945,10.);
#261=VECTOR('',#946,10.);
#262=VECTOR('',#947,10.);
#263=VECTOR('',#948,10.);
#264=VECTOR('',#949,10.);
#265=VECTOR('',#950,10.);
#266=VECTOR('',#951,10.);
#267=VECTOR('',#954,10.);
#268=VECTOR('',#957,10.);
#269=VECTOR('',#960,10.);
#270=VECTOR('',#963,10.);
#271=VECTOR('',#964,10.);
#272=VECTOR('',#965,10.);
#273=VECTOR('',#966,10.);
#274=VECTOR('',#979,10.);
#275=VECTOR('',#980,10.);
#276=VECTOR('',#983,10.);
#277=VECTOR('',#984,10.);
#278=VECTOR('',#989,10.);
#279=VECTOR('',#990,10.);
#280=VECTOR('',#991,10.);
#281=VECTOR('',#992,10.);
#282=VECTOR('',#993,10.);
#283=VECTOR('',#994,10.);
#284=VECTOR('',#995,10.);
#285=VECTOR('',#998,10.);
#286=VECTOR('',#1009,10.);
#287=VECTOR('',#1012,10.);
#288=VECTOR('',#1013,10.);
#289=VECTOR('',#1014,10.);
#290=VECTOR('',#1015,10.);
#291=VECTOR('',#1020,10.);
#292=VECTOR('',#1023,10.);
#293=VECTOR('',#1026,10.);
#294=VECTOR('',#1029,10.);
#295=VECTOR('',#1030,10.);
#296=VECTOR('',#1031,10.);
#297=VECTOR('',#1034,10.);
#298=VECTOR('',#1035,10.);
#299=VECTOR('',#1036,10.);
#300=VECTOR('',#1041,10.);
#301=VECTOR('',#1048,10.);
#302=VECTOR('',#1055,1.70000000000001);
#303=VECTOR('',#1062,1.7);
#304=VECTOR('',#1069,1.7);
#305=VECTOR('',#1076,1.7);
#306=VECTOR('',#1081,10.);
#307=VECTOR('',#1082,10.);
#308=VECTOR('',#1083,10.);
#309=VECTOR('',#1086,10.);
#310=VECTOR('',#1087,10.);
#311=VECTOR('',#1088,10.);
#312=VECTOR('',#1091,10.);
#313=VECTOR('',#1092,10.);
#314=VECTOR('',#1093,10.);
#315=VECTOR('',#1100,10.);
#316=VECTOR('',#1103,10.);
#317=VECTOR('',#1104,10.);
#318=VECTOR('',#1111,1.7);
#319=VECTOR('',#1114,1.7);
#320=VECTOR('',#1117,1.7);
#321=VECTOR('',#1120,1.7);
#322=VECTOR('',#1123,10.);
#323=VECTOR('',#1124,10.);
#324=VECTOR('',#1125,10.);
#325=VECTOR('',#1126,10.);
#326=VECTOR('',#1129,10.);
#327=VECTOR('',#1130,10.);
#328=VECTOR('',#1131,10.);
#329=VECTOR('',#1132,10.);
#330=VECTOR('',#1135,10.);
#331=VECTOR('',#1136,10.);
#332=VECTOR('',#1139,10.);
#333=VECTOR('',#1142,10.);
#334=VECTOR('',#1143,10.);
#335=VECTOR('',#1144,10.);
#336=VECTOR('',#1145,10.);
#337=VECTOR('',#1148,10.);
#338=VECTOR('',#1149,10.);
#339=VECTOR('',#1152,10.);
#340=VECTOR('',#1155,10.);
#341=CIRCLE('',#863,7.5);
#342=CIRCLE('',#864,7.5);
#343=CIRCLE('',#867,7.5);
#344=CIRCLE('',#868,7.5);
#345=CIRCLE('',#869,7.5);
#346=CIRCLE('',#870,1.7);
#347=CIRCLE('',#871,1.7);
#348=CIRCLE('',#872,1.7);
#349=CIRCLE('',#873,1.7);
#350=CIRCLE('',#875,7.5);
#351=CIRCLE('',#878,7.5);
#352=CIRCLE('',#879,7.5);
#353=CIRCLE('',#880,1.7);
#354=CIRCLE('',#881,1.7);
#355=CIRCLE('',#882,1.7);
#356=CIRCLE('',#883,1.7);
#357=CIRCLE('',#893,14.5);
#358=CIRCLE('',#894,14.5);
#359=CIRCLE('',#896,14.5);
#360=CIRCLE('',#897,14.5);
#361=CIRCLE('',#899,1.70000000000001);
#362=CIRCLE('',#902,1.7);
#363=CIRCLE('',#905,1.7);
#364=CIRCLE('',#908,1.7);
#365=CIRCLE('',#914,11.0000001639128);
#366=CIRCLE('',#915,11.0000001639128);
#367=VERTEX_POINT('',#1162);
#368=VERTEX_POINT('',#1163);
#369=VERTEX_POINT('',#1165);
#370=VERTEX_POINT('',#1167);
#371=VERTEX_POINT('',#1171);
#372=VERTEX_POINT('',#1173);
#373=VERTEX_POINT('',#1176);
#374=VERTEX_POINT('',#1177);
#375=VERTEX_POINT('',#1179);
#376=VERTEX_POINT('',#1181);
#377=VERTEX_POINT('',#1185);
#378=VERTEX_POINT('',#1187);
#379=VERTEX_POINT('',#1189);
#380=VERTEX_POINT('',#1191);
#381=VERTEX_POINT('',#1193);
#382=VERTEX_POINT('',#1196);
#383=VERTEX_POINT('',#1197);
#384=VERTEX_POINT('',#1199);
#385=VERTEX_POINT('',#1201);
#386=VERTEX_POINT('',#1204);
#387=VERTEX_POINT('',#1206);
#388=VERTEX_POINT('',#1208);
#389=VERTEX_POINT('',#1210);
#390=VERTEX_POINT('',#1213);
#391=VERTEX_POINT('',#1214);
#392=VERTEX_POINT('',#1219);
#393=VERTEX_POINT('',#1223);
#394=VERTEX_POINT('',#1225);
#395=VERTEX_POINT('',#1227);
#396=VERTEX_POINT('',#1229);
#397=VERTEX_POINT('',#1231);
#398=VERTEX_POINT('',#1233);
#399=VERTEX_POINT('',#1235);
#400=VERTEX_POINT('',#1237);
#401=VERTEX_POINT('',#1241);
#402=VERTEX_POINT('',#1243);
#403=VERTEX_POINT('',#1245);
#404=VERTEX_POINT('',#1247);
#405=VERTEX_POINT('',#1252);
#406=VERTEX_POINT('',#1254);
#407=VERTEX_POINT('',#1260);
#408=VERTEX_POINT('',#1269);
#409=VERTEX_POINT('',#1307);
#410=VERTEX_POINT('',#1308);
#411=VERTEX_POINT('',#1322);
#412=VERTEX_POINT('',#1339);
#413=VERTEX_POINT('',#1368);
#414=VERTEX_POINT('',#1382);
#415=VERTEX_POINT('',#1398);
#416=VERTEX_POINT('',#1400);
#417=VERTEX_POINT('',#1404);
#418=VERTEX_POINT('',#1406);
#419=VERTEX_POINT('',#1410);
#420=VERTEX_POINT('',#1412);
#421=VERTEX_POINT('',#1416);
#422=VERTEX_POINT('',#1418);
#423=VERTEX_POINT('',#1422);
#424=VERTEX_POINT('',#1424);
#425=VERTEX_POINT('',#1428);
#426=VERTEX_POINT('',#1430);
#427=VERTEX_POINT('',#1434);
#428=VERTEX_POINT('',#1436);
#429=VERTEX_POINT('',#1440);
#430=VERTEX_POINT('',#1442);
#431=VERTEX_POINT('',#1446);
#432=VERTEX_POINT('',#1448);
#433=VERTEX_POINT('',#1452);
#434=VERTEX_POINT('',#1454);
#435=VERTEX_POINT('',#1471);
#436=VERTEX_POINT('',#1472);
#437=VERTEX_POINT('',#1474);
#438=VERTEX_POINT('',#1476);
#439=VERTEX_POINT('',#1480);
#440=VERTEX_POINT('',#1483);
#441=VERTEX_POINT('',#1487);
#442=VERTEX_POINT('',#1493);
#443=VERTEX_POINT('',#1495);
#444=VERTEX_POINT('',#1497);
#445=EDGE_CURVE('',#367,#368,#341,.T.);
#446=EDGE_CURVE('',#368,#369,#175,.T.);
#447=EDGE_CURVE('',#369,#370,#342,.T.);
#448=EDGE_CURVE('',#370,#367,#176,.T.);
#449=EDGE_CURVE('',#371,#368,#177,.T.);
#450=EDGE_CURVE('',#372,#371,#178,.T.);
#451=EDGE_CURVE('',#369,#372,#179,.T.);
#452=EDGE_CURVE('',#373,#374,#180,.T.);
#453=EDGE_CURVE('',#374,#375,#181,.T.);
#454=EDGE_CURVE('',#375,#376,#182,.T.);
#455=EDGE_CURVE('',#376,#373,#183,.T.);
#456=EDGE_CURVE('',#367,#377,#184,.T.);
#457=EDGE_CURVE('',#378,#377,#343,.T.);
#458=EDGE_CURVE('',#378,#379,#185,.T.);
#459=EDGE_CURVE('',#380,#379,#344,.T.);
#460=EDGE_CURVE('',#380,#381,#186,.T.);
#461=EDGE_CURVE('',#371,#381,#345,.T.);
#462=EDGE_CURVE('',#382,#383,#187,.T.);
#463=EDGE_CURVE('',#383,#384,#188,.T.);
#464=EDGE_CURVE('',#384,#385,#189,.T.);
#465=EDGE_CURVE('',#385,#382,#190,.T.);
#466=EDGE_CURVE('',#386,#386,#346,.T.);
#467=EDGE_CURVE('',#387,#387,#347,.T.);
#468=EDGE_CURVE('',#388,#388,#348,.T.);
#469=EDGE_CURVE('',#389,#389,#349,.T.);
#470=EDGE_CURVE('',#390,#391,#350,.T.);
#471=EDGE_CURVE('',#391,#378,#191,.T.);
#472=EDGE_CURVE('',#377,#390,#192,.T.);
#473=EDGE_CURVE('',#392,#391,#193,.T.);
#474=EDGE_CURVE('',#379,#392,#194,.T.);
#475=EDGE_CURVE('',#393,#372,#351,.T.);
#476=EDGE_CURVE('',#393,#394,#195,.T.);
#477=EDGE_CURVE('',#394,#395,#196,.T.);
#478=EDGE_CURVE('',#395,#396,#197,.T.);
#479=EDGE_CURVE('',#397,#396,#198,.T.);
#480=EDGE_CURVE('',#397,#398,#199,.T.);
#481=EDGE_CURVE('',#398,#399,#200,.T.);
#482=EDGE_CURVE('',#399,#400,#201,.T.);
#483=EDGE_CURVE('',#392,#400,#352,.T.);
#484=EDGE_CURVE('',#390,#370,#202,.T.);
#485=EDGE_CURVE('',#401,#401,#353,.T.);
#486=EDGE_CURVE('',#402,#402,#354,.T.);
#487=EDGE_CURVE('',#403,#403,#355,.T.);
#488=EDGE_CURVE('',#404,#404,#356,.T.);
#489=EDGE_CURVE('',#400,#380,#203,.T.);
#490=EDGE_CURVE('',#405,#399,#204,.T.);
#491=EDGE_CURVE('',#406,#405,#205,.T.);
#492=EDGE_CURVE('',#406,#394,#206,.T.);
#493=EDGE_CURVE('',#381,#393,#207,.T.);
#494=EDGE_CURVE('',#397,#407,#21,.T.);
#495=EDGE_CURVE('',#407,#398,#208,.T.);
#496=EDGE_CURVE('',#408,#396,#22,.T.);
#497=EDGE_CURVE('',#408,#395,#209,.T.);
#498=EDGE_CURVE('',#406,#408,#210,.T.);
#499=EDGE_CURVE('',#407,#405,#211,.T.);
#500=EDGE_CURVE('',#409,#410,#23,.T.);
#501=EDGE_CURVE('',#411,#409,#212,.T.);
#502=EDGE_CURVE('',#396,#411,#24,.T.);
#503=EDGE_CURVE('',#410,#406,#213,.T.);
#504=EDGE_CURVE('',#412,#405,#214,.T.);
#505=EDGE_CURVE('',#412,#410,#215,.T.);
#506=EDGE_CURVE('',#413,#412,#25,.T.);
#507=EDGE_CURVE('',#414,#397,#26,.T.);
#508=EDGE_CURVE('',#413,#414,#216,.T.);
#509=EDGE_CURVE('',#415,#414,#357,.T.);
#510=EDGE_CURVE('',#416,#415,#217,.T.);
#511=EDGE_CURVE('',#413,#416,#358,.T.);
#512=EDGE_CURVE('',#417,#409,#359,.T.);
#513=EDGE_CURVE('',#417,#418,#218,.T.);
#514=EDGE_CURVE('',#411,#418,#360,.T.);
#515=EDGE_CURVE('',#419,#419,#361,.T.);
#516=EDGE_CURVE('',#419,#420,#219,.T.);
#517=EDGE_CURVE('',#420,#420,#15,.T.);
#518=EDGE_CURVE('',#421,#421,#362,.T.);
#519=EDGE_CURVE('',#421,#422,#220,.T.);
#520=EDGE_CURVE('',#422,#422,#16,.T.);
#521=EDGE_CURVE('',#423,#423,#363,.T.);
#522=EDGE_CURVE('',#423,#424,#221,.T.);
#523=EDGE_CURVE('',#424,#424,#17,.T.);
#524=EDGE_CURVE('',#425,#425,#364,.T.);
#525=EDGE_CURVE('',#425,#426,#222,.T.);
#526=EDGE_CURVE('',#426,#426,#18,.T.);
#527=EDGE_CURVE('',#427,#417,#223,.T.);
#528=EDGE_CURVE('',#427,#428,#224,.T.);
#529=EDGE_CURVE('',#418,#428,#225,.T.);
#530=EDGE_CURVE('',#429,#416,#226,.T.);
#531=EDGE_CURVE('',#430,#415,#227,.T.);
#532=EDGE_CURVE('',#429,#430,#228,.T.);
#533=EDGE_CURVE('',#431,#429,#229,.T.);
#534=EDGE_CURVE('',#432,#430,#230,.T.);
#535=EDGE_CURVE('',#431,#432,#231,.T.);
#536=EDGE_CURVE('',#433,#431,#365,.T.);
#537=EDGE_CURVE('',#434,#432,#366,.T.);
#538=EDGE_CURVE('',#433,#434,#232,.T.);
#539=EDGE_CURVE('',#433,#427,#233,.T.);
#540=EDGE_CURVE('',#428,#434,#234,.T.);
#541=EDGE_CURVE('',#404,#389,#235,.T.);
#542=EDGE_CURVE('',#403,#388,#236,.T.);
#543=EDGE_CURVE('',#402,#387,#237,.T.);
#544=EDGE_CURVE('',#401,#386,#238,.T.);
#545=EDGE_CURVE('',#435,#436,#239,.T.);
#546=EDGE_CURVE('',#437,#435,#240,.T.);
#547=EDGE_CURVE('',#438,#437,#241,.T.);
#548=EDGE_CURVE('',#436,#438,#242,.T.);
#549=EDGE_CURVE('',#436,#439,#243,.T.);
#550=EDGE_CURVE('',#374,#438,#244,.T.);
#551=EDGE_CURVE('',#373,#440,#245,.T.);
#552=EDGE_CURVE('',#439,#440,#246,.T.);
#553=EDGE_CURVE('',#440,#441,#247,.T.);
#554=EDGE_CURVE('',#376,#441,#248,.T.);
#555=EDGE_CURVE('',#375,#437,#249,.T.);
#556=EDGE_CURVE('',#439,#442,#250,.T.);
#557=EDGE_CURVE('',#442,#443,#251,.T.);
#558=EDGE_CURVE('',#443,#444,#252,.T.);
#559=EDGE_CURVE('',#444,#435,#253,.T.);
#560=EDGE_CURVE('',#441,#382,#254,.T.);
#561=EDGE_CURVE('',#442,#385,#255,.T.);
#562=EDGE_CURVE('',#444,#383,#256,.T.);
#563=EDGE_CURVE('',#443,#384,#257,.T.);
#564=ORIENTED_EDGE('',*,*,#445,.T.);
#565=ORIENTED_EDGE('',*,*,#446,.T.);
#566=ORIENTED_EDGE('',*,*,#447,.T.);
#567=ORIENTED_EDGE('',*,*,#448,.T.);
#568=ORIENTED_EDGE('',*,*,#446,.F.);
#569=ORIENTED_EDGE('',*,*,#449,.F.);
#570=ORIENTED_EDGE('',*,*,#450,.F.);
#571=ORIENTED_EDGE('',*,*,#451,.F.);
#572=ORIENTED_EDGE('',*,*,#452,.T.);
#573=ORIENTED_EDGE('',*,*,#453,.T.);
#574=ORIENTED_EDGE('',*,*,#454,.T.);
#575=ORIENTED_EDGE('',*,*,#455,.T.);
#576=ORIENTED_EDGE('',*,*,#445,.F.);
#577=ORIENTED_EDGE('',*,*,#456,.T.);
#578=ORIENTED_EDGE('',*,*,#457,.F.);
#579=ORIENTED_EDGE('',*,*,#458,.T.);
#580=ORIENTED_EDGE('',*,*,#459,.F.);
#581=ORIENTED_EDGE('',*,*,#460,.T.);
#582=ORIENTED_EDGE('',*,*,#461,.F.);
#583=ORIENTED_EDGE('',*,*,#449,.T.);
#584=ORIENTED_EDGE('',*,*,#462,.T.);
#585=ORIENTED_EDGE('',*,*,#463,.T.);
#586=ORIENTED_EDGE('',*,*,#464,.T.);
#587=ORIENTED_EDGE('',*,*,#465,.T.);
#588=ORIENTED_EDGE('',*,*,#466,.T.);
#589=ORIENTED_EDGE('',*,*,#467,.T.);
#590=ORIENTED_EDGE('',*,*,#468,.T.);
#591=ORIENTED_EDGE('',*,*,#469,.T.);
#592=ORIENTED_EDGE('',*,*,#470,.T.);
#593=ORIENTED_EDGE('',*,*,#471,.T.);
#594=ORIENTED_EDGE('',*,*,#457,.T.);
#595=ORIENTED_EDGE('',*,*,#472,.T.);
#596=ORIENTED_EDGE('',*,*,#471,.F.);
#597=ORIENTED_EDGE('',*,*,#473,.F.);
#598=ORIENTED_EDGE('',*,*,#474,.F.);
#599=ORIENTED_EDGE('',*,*,#458,.F.);
#600=ORIENTED_EDGE('',*,*,#447,.F.);
#601=ORIENTED_EDGE('',*,*,#451,.T.);
#602=ORIENTED_EDGE('',*,*,#475,.F.);
#603=ORIENTED_EDGE('',*,*,#476,.T.);
#604=ORIENTED_EDGE('',*,*,#477,.T.);
#605=ORIENTED_EDGE('',*,*,#478,.T.);
#606=ORIENTED_EDGE('',*,*,#479,.F.);
#607=ORIENTED_EDGE('',*,*,#480,.T.);
#608=ORIENTED_EDGE('',*,*,#481,.T.);
#609=ORIENTED_EDGE('',*,*,#482,.T.);
#610=ORIENTED_EDGE('',*,*,#483,.F.);
#611=ORIENTED_EDGE('',*,*,#473,.T.);
#612=ORIENTED_EDGE('',*,*,#470,.F.);
#613=ORIENTED_EDGE('',*,*,#484,.T.);
#614=ORIENTED_EDGE('',*,*,#485,.T.);
#615=ORIENTED_EDGE('',*,*,#486,.T.);
#616=ORIENTED_EDGE('',*,*,#487,.T.);
#617=ORIENTED_EDGE('',*,*,#488,.T.);
#618=ORIENTED_EDGE('',*,*,#459,.T.);
#619=ORIENTED_EDGE('',*,*,#474,.T.);
#620=ORIENTED_EDGE('',*,*,#483,.T.);
#621=ORIENTED_EDGE('',*,*,#489,.T.);
#622=ORIENTED_EDGE('',*,*,#489,.F.);
#623=ORIENTED_EDGE('',*,*,#482,.F.);
#624=ORIENTED_EDGE('',*,*,#490,.F.);
#625=ORIENTED_EDGE('',*,*,#491,.F.);
#626=ORIENTED_EDGE('',*,*,#492,.T.);
#627=ORIENTED_EDGE('',*,*,#476,.F.);
#628=ORIENTED_EDGE('',*,*,#493,.F.);
#629=ORIENTED_EDGE('',*,*,#460,.F.);
#630=ORIENTED_EDGE('',*,*,#461,.T.);
#631=ORIENTED_EDGE('',*,*,#493,.T.);
#632=ORIENTED_EDGE('',*,*,#475,.T.);
#633=ORIENTED_EDGE('',*,*,#450,.T.);
#634=ORIENTED_EDGE('',*,*,#494,.T.);
#635=ORIENTED_EDGE('',*,*,#495,.T.);
#636=ORIENTED_EDGE('',*,*,#480,.F.);
#637=ORIENTED_EDGE('',*,*,#496,.T.);
#638=ORIENTED_EDGE('',*,*,#478,.F.);
#639=ORIENTED_EDGE('',*,*,#497,.F.);
#640=ORIENTED_EDGE('',*,*,#498,.T.);
#641=ORIENTED_EDGE('',*,*,#497,.T.);
#642=ORIENTED_EDGE('',*,*,#477,.F.);
#643=ORIENTED_EDGE('',*,*,#492,.F.);
#644=ORIENTED_EDGE('',*,*,#499,.T.);
#645=ORIENTED_EDGE('',*,*,#490,.T.);
#646=ORIENTED_EDGE('',*,*,#481,.F.);
#647=ORIENTED_EDGE('',*,*,#495,.F.);
#648=ORIENTED_EDGE('',*,*,#500,.F.);
#649=ORIENTED_EDGE('',*,*,#501,.F.);
#650=ORIENTED_EDGE('',*,*,#502,.F.);
#651=ORIENTED_EDGE('',*,*,#496,.F.);
#652=ORIENTED_EDGE('',*,*,#498,.F.);
#653=ORIENTED_EDGE('',*,*,#503,.F.);
#654=ORIENTED_EDGE('',*,*,#491,.T.);
#655=ORIENTED_EDGE('',*,*,#504,.F.);
#656=ORIENTED_EDGE('',*,*,#505,.T.);
#657=ORIENTED_EDGE('',*,*,#503,.T.);
#658=ORIENTED_EDGE('',*,*,#506,.T.);
#659=ORIENTED_EDGE('',*,*,#504,.T.);
#660=ORIENTED_EDGE('',*,*,#499,.F.);
#661=ORIENTED_EDGE('',*,*,#494,.F.);
#662=ORIENTED_EDGE('',*,*,#507,.F.);
#663=ORIENTED_EDGE('',*,*,#508,.F.);
#664=ORIENTED_EDGE('',*,*,#508,.T.);
#665=ORIENTED_EDGE('',*,*,#509,.F.);
#666=ORIENTED_EDGE('',*,*,#510,.F.);
#667=ORIENTED_EDGE('',*,*,#511,.F.);
#668=ORIENTED_EDGE('',*,*,#501,.T.);
#669=ORIENTED_EDGE('',*,*,#512,.F.);
#670=ORIENTED_EDGE('',*,*,#513,.T.);
#671=ORIENTED_EDGE('',*,*,#514,.F.);
#672=ORIENTED_EDGE('',*,*,#515,.F.);
#673=ORIENTED_EDGE('',*,*,#516,.T.);
#674=ORIENTED_EDGE('',*,*,#517,.F.);
#675=ORIENTED_EDGE('',*,*,#516,.F.);
#676=ORIENTED_EDGE('',*,*,#518,.F.);
#677=ORIENTED_EDGE('',*,*,#519,.T.);
#678=ORIENTED_EDGE('',*,*,#520,.F.);
#679=ORIENTED_EDGE('',*,*,#519,.F.);
#680=ORIENTED_EDGE('',*,*,#521,.F.);
#681=ORIENTED_EDGE('',*,*,#522,.T.);
#682=ORIENTED_EDGE('',*,*,#523,.F.);
#683=ORIENTED_EDGE('',*,*,#522,.F.);
#684=ORIENTED_EDGE('',*,*,#524,.F.);
#685=ORIENTED_EDGE('',*,*,#525,.T.);
#686=ORIENTED_EDGE('',*,*,#526,.F.);
#687=ORIENTED_EDGE('',*,*,#525,.F.);
#688=ORIENTED_EDGE('',*,*,#527,.F.);
#689=ORIENTED_EDGE('',*,*,#528,.T.);
#690=ORIENTED_EDGE('',*,*,#529,.F.);
#691=ORIENTED_EDGE('',*,*,#513,.F.);
#692=ORIENTED_EDGE('',*,*,#517,.T.);
#693=ORIENTED_EDGE('',*,*,#523,.T.);
#694=ORIENTED_EDGE('',*,*,#530,.T.);
#695=ORIENTED_EDGE('',*,*,#510,.T.);
#696=ORIENTED_EDGE('',*,*,#531,.F.);
#697=ORIENTED_EDGE('',*,*,#532,.F.);
#698=ORIENTED_EDGE('',*,*,#520,.T.);
#699=ORIENTED_EDGE('',*,*,#526,.T.);
#700=ORIENTED_EDGE('',*,*,#533,.T.);
#701=ORIENTED_EDGE('',*,*,#532,.T.);
#702=ORIENTED_EDGE('',*,*,#534,.F.);
#703=ORIENTED_EDGE('',*,*,#535,.F.);
#704=ORIENTED_EDGE('',*,*,#518,.T.);
#705=ORIENTED_EDGE('',*,*,#524,.T.);
#706=ORIENTED_EDGE('',*,*,#536,.T.);
#707=ORIENTED_EDGE('',*,*,#535,.T.);
#708=ORIENTED_EDGE('',*,*,#537,.F.);
#709=ORIENTED_EDGE('',*,*,#538,.F.);
#710=ORIENTED_EDGE('',*,*,#539,.F.);
#711=ORIENTED_EDGE('',*,*,#538,.T.);
#712=ORIENTED_EDGE('',*,*,#540,.F.);
#713=ORIENTED_EDGE('',*,*,#528,.F.);
#714=ORIENTED_EDGE('',*,*,#515,.T.);
#715=ORIENTED_EDGE('',*,*,#521,.T.);
#716=ORIENTED_EDGE('',*,*,#539,.T.);
#717=ORIENTED_EDGE('',*,*,#527,.T.);
#718=ORIENTED_EDGE('',*,*,#512,.T.);
#719=ORIENTED_EDGE('',*,*,#500,.T.);
#720=ORIENTED_EDGE('',*,*,#505,.F.);
#721=ORIENTED_EDGE('',*,*,#506,.F.);
#722=ORIENTED_EDGE('',*,*,#511,.T.);
#723=ORIENTED_EDGE('',*,*,#530,.F.);
#724=ORIENTED_EDGE('',*,*,#533,.F.);
#725=ORIENTED_EDGE('',*,*,#536,.F.);
#726=ORIENTED_EDGE('',*,*,#479,.T.);
#727=ORIENTED_EDGE('',*,*,#502,.T.);
#728=ORIENTED_EDGE('',*,*,#514,.T.);
#729=ORIENTED_EDGE('',*,*,#529,.T.);
#730=ORIENTED_EDGE('',*,*,#540,.T.);
#731=ORIENTED_EDGE('',*,*,#537,.T.);
#732=ORIENTED_EDGE('',*,*,#534,.T.);
#733=ORIENTED_EDGE('',*,*,#531,.T.);
#734=ORIENTED_EDGE('',*,*,#509,.T.);
#735=ORIENTED_EDGE('',*,*,#507,.T.);
#736=ORIENTED_EDGE('',*,*,#488,.F.);
#737=ORIENTED_EDGE('',*,*,#541,.T.);
#738=ORIENTED_EDGE('',*,*,#469,.F.);
#739=ORIENTED_EDGE('',*,*,#541,.F.);
#740=ORIENTED_EDGE('',*,*,#487,.F.);
#741=ORIENTED_EDGE('',*,*,#542,.T.);
#742=ORIENTED_EDGE('',*,*,#468,.F.);
#743=ORIENTED_EDGE('',*,*,#542,.F.);
#744=ORIENTED_EDGE('',*,*,#486,.F.);
#745=ORIENTED_EDGE('',*,*,#543,.T.);
#746=ORIENTED_EDGE('',*,*,#467,.F.);
#747=ORIENTED_EDGE('',*,*,#543,.F.);
#748=ORIENTED_EDGE('',*,*,#485,.F.);
#749=ORIENTED_EDGE('',*,*,#544,.T.);
#750=ORIENTED_EDGE('',*,*,#466,.F.);
#751=ORIENTED_EDGE('',*,*,#544,.F.);
#752=ORIENTED_EDGE('',*,*,#545,.F.);
#753=ORIENTED_EDGE('',*,*,#546,.F.);
#754=ORIENTED_EDGE('',*,*,#547,.F.);
#755=ORIENTED_EDGE('',*,*,#548,.F.);
#756=ORIENTED_EDGE('',*,*,#549,.F.);
#757=ORIENTED_EDGE('',*,*,#548,.T.);
#758=ORIENTED_EDGE('',*,*,#550,.F.);
#759=ORIENTED_EDGE('',*,*,#452,.F.);
#760=ORIENTED_EDGE('',*,*,#551,.T.);
#761=ORIENTED_EDGE('',*,*,#552,.F.);
#762=ORIENTED_EDGE('',*,*,#553,.F.);
#763=ORIENTED_EDGE('',*,*,#551,.F.);
#764=ORIENTED_EDGE('',*,*,#455,.F.);
#765=ORIENTED_EDGE('',*,*,#554,.T.);
#766=ORIENTED_EDGE('',*,*,#453,.F.);
#767=ORIENTED_EDGE('',*,*,#550,.T.);
#768=ORIENTED_EDGE('',*,*,#547,.T.);
#769=ORIENTED_EDGE('',*,*,#555,.F.);
#770=ORIENTED_EDGE('',*,*,#545,.T.);
#771=ORIENTED_EDGE('',*,*,#549,.T.);
#772=ORIENTED_EDGE('',*,*,#556,.T.);
#773=ORIENTED_EDGE('',*,*,#557,.T.);
#774=ORIENTED_EDGE('',*,*,#558,.T.);
#775=ORIENTED_EDGE('',*,*,#559,.T.);
#776=ORIENTED_EDGE('',*,*,#553,.T.);
#777=ORIENTED_EDGE('',*,*,#560,.T.);
#778=ORIENTED_EDGE('',*,*,#465,.F.);
#779=ORIENTED_EDGE('',*,*,#561,.F.);
#780=ORIENTED_EDGE('',*,*,#556,.F.);
#781=ORIENTED_EDGE('',*,*,#552,.T.);
#782=ORIENTED_EDGE('',*,*,#559,.F.);
#783=ORIENTED_EDGE('',*,*,#562,.T.);
#784=ORIENTED_EDGE('',*,*,#462,.F.);
#785=ORIENTED_EDGE('',*,*,#560,.F.);
#786=ORIENTED_EDGE('',*,*,#554,.F.);
#787=ORIENTED_EDGE('',*,*,#454,.F.);
#788=ORIENTED_EDGE('',*,*,#555,.T.);
#789=ORIENTED_EDGE('',*,*,#546,.T.);
#790=ORIENTED_EDGE('',*,*,#557,.F.);
#791=ORIENTED_EDGE('',*,*,#561,.T.);
#792=ORIENTED_EDGE('',*,*,#464,.F.);
#793=ORIENTED_EDGE('',*,*,#563,.F.);
#794=ORIENTED_EDGE('',*,*,#558,.F.);
#795=ORIENTED_EDGE('',*,*,#563,.T.);
#796=ORIENTED_EDGE('',*,*,#463,.F.);
#797=ORIENTED_EDGE('',*,*,#562,.F.);
#798=ORIENTED_EDGE('',*,*,#448,.F.);
#799=ORIENTED_EDGE('',*,*,#484,.F.);
#800=ORIENTED_EDGE('',*,*,#472,.F.);
#801=ORIENTED_EDGE('',*,*,#456,.F.);
#802=CYLINDRICAL_SURFACE('',#862,7.5);
#803=CYLINDRICAL_SURFACE('',#874,7.5);
#804=CYLINDRICAL_SURFACE('',#884,7.5);
#805=CYLINDRICAL_SURFACE('',#886,7.5);
#806=CYLINDRICAL_SURFACE('',#892,14.5);
#807=CYLINDRICAL_SURFACE('',#895,14.5);
#808=CYLINDRICAL_SURFACE('',#898,1.70000000000001);
#809=CYLINDRICAL_SURFACE('',#901,1.7);
#810=CYLINDRICAL_SURFACE('',#904,1.7);
#811=CYLINDRICAL_SURFACE('',#907,1.7);
#812=CYLINDRICAL_SURFACE('',#913,11.0000001639128);
#813=CYLINDRICAL_SURFACE('',#919,1.7);
#814=CYLINDRICAL_SURFACE('',#920,1.7);
#815=CYLINDRICAL_SURFACE('',#921,1.7);
#816=CYLINDRICAL_SURFACE('',#922,1.7);
#817=ADVANCED_FACE('',(#71),#802,.T.);
#818=ADVANCED_FACE('',(#72,#27),#45,.T.);
#819=ADVANCED_FACE('',(#73,#28,#29,#30,#31,#32),#46,.T.);
#820=ADVANCED_FACE('',(#74),#803,.T.);
#821=ADVANCED_FACE('',(#75),#47,.T.);
#822=ADVANCED_FACE('',(#76,#33,#34,#35,#36),#48,.F.);
#823=ADVANCED_FACE('',(#77),#804,.T.);
#824=ADVANCED_FACE('',(#78),#49,.T.);
#825=ADVANCED_FACE('',(#79),#805,.T.);
#826=ADVANCED_FACE('',(#80),#50,.T.);
#827=ADVANCED_FACE('',(#81),#51,.T.);
#828=ADVANCED_FACE('',(#82),#52,.T.);
#829=ADVANCED_FACE('',(#83),#53,.T.);
#830=ADVANCED_FACE('',(#84),#19,.T.);
#831=ADVANCED_FACE('',(#85),#54,.T.);
#832=ADVANCED_FACE('',(#86),#20,.T.);
#833=ADVANCED_FACE('',(#87),#806,.T.);
#834=ADVANCED_FACE('',(#88),#807,.T.);
#835=ADVANCED_FACE('',(#89),#808,.F.);
#836=ADVANCED_FACE('',(#90),#809,.F.);
#837=ADVANCED_FACE('',(#91),#810,.F.);
#838=ADVANCED_FACE('',(#92),#811,.F.);
#839=ADVANCED_FACE('',(#93,#37,#38),#55,.T.);
#840=ADVANCED_FACE('',(#94,#39,#40),#56,.T.);
#841=ADVANCED_FACE('',(#95,#41,#42),#57,.T.);
#842=ADVANCED_FACE('',(#96),#812,.F.);
#843=ADVANCED_FACE('',(#97,#43,#44),#58,.T.);
#844=ADVANCED_FACE('',(#98),#59,.T.);
#845=ADVANCED_FACE('',(#99),#60,.F.);
#846=ADVANCED_FACE('',(#100),#813,.F.);
#847=ADVANCED_FACE('',(#101),#814,.F.);
#848=ADVANCED_FACE('',(#102),#815,.F.);
#849=ADVANCED_FACE('',(#103),#816,.F.);
#850=ADVANCED_FACE('',(#104),#61,.F.);
#851=ADVANCED_FACE('',(#105),#62,.F.);
#852=ADVANCED_FACE('',(#106),#63,.F.);
#853=ADVANCED_FACE('',(#107),#64,.F.);
#854=ADVANCED_FACE('',(#108),#65,.T.);
#855=ADVANCED_FACE('',(#109),#66,.T.);
#856=ADVANCED_FACE('',(#110),#67,.T.);
#857=ADVANCED_FACE('',(#111),#68,.T.);
#858=ADVANCED_FACE('',(#112),#69,.T.);
#859=ADVANCED_FACE('',(#113),#70,.T.);
#860=CLOSED_SHELL('',(#817,#818,#819,#820,#821,#822,#823,#824,#825,#826,
#827,#828,#829,#830,#831,#832,#833,#834,#835,#836,#837,#838,#839,#840,#841,
#842,#843,#844,#845,#846,#847,#848,#849,#850,#851,#852,#853,#854,#855,#856,
#857,#858,#859));
#861=AXIS2_PLACEMENT_3D('',#1160,#933,#934);
#862=AXIS2_PLACEMENT_3D('',#1161,#935,#936);
#863=AXIS2_PLACEMENT_3D('',#1164,#937,#938);
#864=AXIS2_PLACEMENT_3D('',#1168,#940,#941);
#865=AXIS2_PLACEMENT_3D('',#1170,#943,#944);
#866=AXIS2_PLACEMENT_3D('',#1184,#952,#953);
#867=AXIS2_PLACEMENT_3D('',#1188,#955,#956);
#868=AXIS2_PLACEMENT_3D('',#1192,#958,#959);
#869=AXIS2_PLACEMENT_3D('',#1195,#961,#962);
#870=AXIS2_PLACEMENT_3D('',#1205,#967,#968);
#871=AXIS2_PLACEMENT_3D('',#1207,#969,#970);
#872=AXIS2_PLACEMENT_3D('',#1209,#971,#972);
#873=AXIS2_PLACEMENT_3D('',#1211,#973,#974);
#874=AXIS2_PLACEMENT_3D('',#1212,#975,#976);
#875=AXIS2_PLACEMENT_3D('',#1215,#977,#978);
#876=AXIS2_PLACEMENT_3D('',#1218,#981,#982);
#877=AXIS2_PLACEMENT_3D('',#1222,#985,#986);
#878=AXIS2_PLACEMENT_3D('',#1224,#987,#988);
#879=AXIS2_PLACEMENT_3D('',#1239,#996,#997);
#880=AXIS2_PLACEMENT_3D('',#1242,#999,#1000);
#881=AXIS2_PLACEMENT_3D('',#1244,#1001,#1002);
#882=AXIS2_PLACEMENT_3D('',#1246,#1003,#1004);
#883=AXIS2_PLACEMENT_3D('',#1248,#1005,#1006);
#884=AXIS2_PLACEMENT_3D('',#1249,#1007,#1008);
#885=AXIS2_PLACEMENT_3D('',#1251,#1010,#1011);
#886=AXIS2_PLACEMENT_3D('',#1258,#1016,#1017);
#887=AXIS2_PLACEMENT_3D('',#1259,#1018,#1019);
#888=AXIS2_PLACEMENT_3D('',#1268,#1021,#1022);
#889=AXIS2_PLACEMENT_3D('',#1277,#1024,#1025);
#890=AXIS2_PLACEMENT_3D('',#1279,#1027,#1028);
#891=AXIS2_PLACEMENT_3D('',#1338,#1032,#1033);
#892=AXIS2_PLACEMENT_3D('',#1397,#1037,#1038);
#893=AXIS2_PLACEMENT_3D('',#1399,#1039,#1040);
#894=AXIS2_PLACEMENT_3D('',#1402,#1042,#1043);
#895=AXIS2_PLACEMENT_3D('',#1403,#1044,#1045);
#896=AXIS2_PLACEMENT_3D('',#1405,#1046,#1047);
#897=AXIS2_PLACEMENT_3D('',#1408,#1049,#1050);
#898=AXIS2_PLACEMENT_3D('',#1409,#1051,#1052);
#899=AXIS2_PLACEMENT_3D('',#1411,#1053,#1054);
#900=AXIS2_PLACEMENT_3D('',#1414,#1056,#1057);
#901=AXIS2_PLACEMENT_3D('',#1415,#1058,#1059);
#902=AXIS2_PLACEMENT_3D('',#1417,#1060,#1061);
#903=AXIS2_PLACEMENT_3D('',#1420,#1063,#1064);
#904=AXIS2_PLACEMENT_3D('',#1421,#1065,#1066);
#905=AXIS2_PLACEMENT_3D('',#1423,#1067,#1068);
#906=AXIS2_PLACEMENT_3D('',#1426,#1070,#1071);
#907=AXIS2_PLACEMENT_3D('',#1427,#1072,#1073);
#908=AXIS2_PLACEMENT_3D('',#1429,#1074,#1075);
#909=AXIS2_PLACEMENT_3D('',#1432,#1077,#1078);
#910=AXIS2_PLACEMENT_3D('',#1433,#1079,#1080);
#911=AXIS2_PLACEMENT_3D('',#1439,#1084,#1085);
#912=AXIS2_PLACEMENT_3D('',#1445,#1089,#1090);
#913=AXIS2_PLACEMENT_3D('',#1451,#1094,#1095);
#914=AXIS2_PLACEMENT_3D('',#1453,#1096,#1097);
#915=AXIS2_PLACEMENT_3D('',#1455,#1098,#1099);
#916=AXIS2_PLACEMENT_3D('',#1457,#1101,#1102);
#917=AXIS2_PLACEMENT_3D('',#1460,#1105,#1106);
#918=AXIS2_PLACEMENT_3D('',#1461,#1107,#1108);
#919=AXIS2_PLACEMENT_3D('',#1462,#1109,#1110);
#920=AXIS2_PLACEMENT_3D('',#1464,#1112,#1113);
#921=AXIS2_PLACEMENT_3D('',#1466,#1115,#1116);
#922=AXIS2_PLACEMENT_3D('',#1468,#1118,#1119);
#923=AXIS2_PLACEMENT_3D('',#1470,#1121,#1122);
#924=AXIS2_PLACEMENT_3D('',#1479,#1127,#1128);
#925=AXIS2_PLACEMENT_3D('',#1486,#1133,#1134);
#926=AXIS2_PLACEMENT_3D('',#1490,#1137,#1138);
#927=AXIS2_PLACEMENT_3D('',#1492,#1140,#1141);
#928=AXIS2_PLACEMENT_3D('',#1500,#1146,#1147);
#929=AXIS2_PLACEMENT_3D('',#1503,#1150,#1151);
#930=AXIS2_PLACEMENT_3D('',#1505,#1153,#1154);
#931=AXIS2_PLACEMENT_3D('',#1507,#1156,#1157);
#932=AXIS2_PLACEMENT_3D('',#1508,#1158,#1159);
#933=DIRECTION('axis',(0.,0.,1.));
#934=DIRECTION('refdir',(1.,0.,0.));
#935=DIRECTION('center_axis',(0.,1.22464679914735E-16,-1.));
#936=DIRECTION('ref_axis',(0.707106781186547,0.707106781186547,0.));
#937=DIRECTION('center_axis',(0.,-1.22464679914735E-16,1.));
#938=DIRECTION('ref_axis',(0.707106781186547,0.707106781186547,0.));
#939=DIRECTION('',(0.,-1.22464679914735E-16,1.));
#940=DIRECTION('center_axis',(0.,1.22464679914735E-16,-1.));
#941=DIRECTION('ref_axis',(0.707106781186547,0.707106781186547,0.));
#942=DIRECTION('',(0.,1.22464679914735E-16,-1.));
#943=DIRECTION('center_axis',(0.,1.,1.22464679914735E-16));
#944=DIRECTION('ref_axis',(1.,0.,0.));
#945=DIRECTION('',(1.,0.,0.));
#946=DIRECTION('',(0.,1.22464679914735E-16,-1.));
#947=DIRECTION('',(-1.,0.,0.));
#948=DIRECTION('',(0.,-1.22464679914735E-16,1.));
#949=DIRECTION('',(-1.,0.,0.));
#950=DIRECTION('',(0.,1.22464679914735E-16,-1.));
#951=DIRECTION('',(1.,0.,0.));
#952=DIRECTION('center_axis',(0.,1.22464679914735E-16,-1.));
#953=DIRECTION('ref_axis',(1.,0.,0.));
#954=DIRECTION('',(0.,-1.,-1.22464679914735E-16));
#955=DIRECTION('center_axis',(0.,-1.22464679914735E-16,1.));
#956=DIRECTION('ref_axis',(0.707106781186547,-0.707106781186547,0.));
#957=DIRECTION('',(-1.,0.,0.));
#958=DIRECTION('center_axis',(0.,-1.22464679914735E-16,1.));
#959=DIRECTION('ref_axis',(-0.707106781186547,-0.707106781186547,0.));
#960=DIRECTION('',(0.,1.,1.22464679914735E-16));
#961=DIRECTION('center_axis',(0.,-1.22464679914735E-16,1.));
#962=DIRECTION('ref_axis',(-0.707106781186547,0.707106781186547,0.));
#963=DIRECTION('',(0.,-1.,-1.22464679914735E-16));
#964=DIRECTION('',(1.,0.,0.));
#965=DIRECTION('',(0.,1.,1.22464679914735E-16));
#966=DIRECTION('',(-1.,0.,0.));
#967=DIRECTION('center_axis',(0.,-1.22464679914735E-16,1.));
#968=DIRECTION('ref_axis',(1.,0.,0.));
#969=DIRECTION('center_axis',(0.,-1.22464679914735E-16,1.));
#970=DIRECTION('ref_axis',(1.,0.,0.));
#971=DIRECTION('center_axis',(0.,-1.22464679914735E-16,1.));
#972=DIRECTION('ref_axis',(1.,0.,0.));
#973=DIRECTION('center_axis',(0.,-1.22464679914735E-16,1.));
#974=DIRECTION('ref_axis',(1.,0.,0.));
#975=DIRECTION('center_axis',(0.,-1.22464679914735E-16,1.));
#976=DIRECTION('ref_axis',(0.707106781186547,-0.707106781186547,0.));
#977=DIRECTION('center_axis',(0.,1.22464679914735E-16,-1.));
#978=DIRECTION('ref_axis',(0.707106781186547,-0.707106781186547,0.));
#979=DIRECTION('',(0.,1.22464679914735E-16,-1.));
#980=DIRECTION('',(0.,-1.22464679914735E-16,1.));
#981=DIRECTION('center_axis',(0.,-1.,-1.22464679914735E-16));
#982=DIRECTION('ref_axis',(-1.,0.,0.));
#983=DIRECTION('',(1.,0.,0.));
#984=DIRECTION('',(0.,-1.22464679914735E-16,1.));
#985=DIRECTION('center_axis',(0.,1.22464679914735E-16,-1.));
#986=DIRECTION('ref_axis',(1.,0.,0.));
#987=DIRECTION('center_axis',(0.,1.22464679914735E-16,-1.));
#988=DIRECTION('ref_axis',(-0.707106781186547,0.707106781186547,0.));
#989=DIRECTION('',(0.,-1.,-1.22464679914735E-16));
#990=DIRECTION('',(1.,0.,0.));
#991=DIRECTION('',(0.,-1.,-1.22464679914735E-16));
#992=DIRECTION('',(0.,1.,1.22464679914735E-16));
#993=DIRECTION('',(0.,-1.,-1.22464679914735E-16));
#994=DIRECTION('',(-1.,0.,0.));
#995=DIRECTION('',(0.,-1.,-1.22464679914735E-16));
#996=DIRECTION('center_axis',(0.,1.22464679914735E-16,-1.));
#997=DIRECTION('ref_axis',(-0.707106781186547,-0.707106781186547,0.));
#998=DIRECTION('',(0.,1.,1.22464679914735E-16));
#999=DIRECTION('center_axis',(0.,1.22464679914735E-16,-1.));
#1000=DIRECTION('ref_axis',(1.,0.,0.));
#1001=DIRECTION('center_axis',(0.,1.22464679914735E-16,-1.));
#1002=DIRECTION('ref_axis',(1.,0.,0.));
#1003=DIRECTION('center_axis',(0.,1.22464679914735E-16,-1.));
#1004=DIRECTION('ref_axis',(1.,0.,0.));
#1005=DIRECTION('center_axis',(0.,1.22464679914735E-16,-1.));
#1006=DIRECTION('ref_axis',(1.,0.,0.));
#1007=DIRECTION('center_axis',(0.,1.22464679914735E-16,-1.));
#1008=DIRECTION('ref_axis',(-0.707106781186547,-0.707106781186547,0.));
#1009=DIRECTION('',(0.,1.22464679914735E-16,-1.));
#1010=DIRECTION('center_axis',(-1.,0.,0.));
#1011=DIRECTION('ref_axis',(0.,1.,1.22464679914735E-16));
#1012=DIRECTION('',(0.,-1.22464679914735E-16,1.));
#1013=DIRECTION('',(0.,-1.,-1.22464679914735E-16));
#1014=DIRECTION('',(0.,-1.22464679914735E-16,1.));
#1015=DIRECTION('',(0.,-1.22464679914735E-16,1.));
#1016=DIRECTION('center_axis',(0.,1.22464679914735E-16,-1.));
#1017=DIRECTION('ref_axis',(-0.707106781186547,0.707106781186547,0.));
#1018=DIRECTION('center_axis',(-1.,0.,0.));
#1019=DIRECTION('ref_axis',(0.,-1.,-1.22464679914735E-16));
#1020=DIRECTION('',(0.,-1.22464679914735E-16,1.));
#1021=DIRECTION('center_axis',(-1.,0.,0.));
#1022=DIRECTION('ref_axis',(0.,-1.,-1.22464679914735E-16));
#1023=DIRECTION('',(0.,-1.22464679914735E-16,1.));
#1024=DIRECTION('center_axis',(0.,-1.,-1.22464679914735E-16));
#1025=DIRECTION('ref_axis',(1.,0.,0.));
#1026=DIRECTION('',(1.,0.,0.));
#1027=DIRECTION('center_axis',(0.,1.,1.22464679914735E-16));
#1028=DIRECTION('ref_axis',(-1.,0.,0.));
#1029=DIRECTION('',(-1.,0.,0.));
#1030=DIRECTION('',(-1.,0.,0.));
#1031=DIRECTION('',(1.,0.,0.));
#1032=DIRECTION('center_axis',(0.,1.22464679914735E-16,-1.));
#1033=DIRECTION('ref_axis',(0.,1.,1.22464679914735E-16));
#1034=DIRECTION('',(1.,0.,0.));
#1035=DIRECTION('',(0.,1.,1.22464679914735E-16));
#1036=DIRECTION('',(1.,0.,0.));
#1037=DIRECTION('center_axis',(1.,0.,0.));
#1038=DIRECTION('ref_axis',(0.,1.,3.0626842058625E-16));
#1039=DIRECTION('center_axis',(1.,0.,0.));
#1040=DIRECTION('ref_axis',(0.,1.,3.0626842058625E-16));
#1041=DIRECTION('',(1.,0.,0.));
#1042=DIRECTION('center_axis',(-1.,0.,0.));
#1043=DIRECTION('ref_axis',(0.,1.,3.0626842058625E-16));
#1044=DIRECTION('center_axis',(1.,0.,0.));
#1045=DIRECTION('ref_axis',(0.,1.,3.0626842058625E-16));
#1046=DIRECTION('center_axis',(-1.,0.,0.));
#1047=DIRECTION('ref_axis',(0.,1.,3.0626842058625E-16));
#1048=DIRECTION('',(1.,0.,0.));
#1049=DIRECTION('center_axis',(1.,0.,0.));
#1050=DIRECTION('ref_axis',(0.,1.,3.0626842058625E-16));
#1051=DIRECTION('center_axis',(0.,0.,-1.));
#1052=DIRECTION('ref_axis',(-1.,0.,0.));
#1053=DIRECTION('center_axis',(0.,0.,-1.));
#1054=DIRECTION('ref_axis',(-1.,0.,0.));
#1055=DIRECTION('',(0.,0.,-1.));
#1056=DIRECTION('center_axis',(0.,-0.5,0.866025403784439));
#1057=DIRECTION('ref_axis',(0.,0.866025403784439,0.5));
#1058=DIRECTION('center_axis',(0.,0.,-1.));
#1059=DIRECTION('ref_axis',(-1.,0.,0.));
#1060=DIRECTION('center_axis',(0.,0.,-1.));
#1061=DIRECTION('ref_axis',(-1.,0.,0.));
#1062=DIRECTION('',(0.,0.,-1.));
#1063=DIRECTION('center_axis',(0.,0.500000000000001,0.866025403784438));
#1064=DIRECTION('ref_axis',(0.,0.866025403784438,-0.500000000000001));
#1065=DIRECTION('center_axis',(0.,0.,-1.));
#1066=DIRECTION('ref_axis',(-1.,0.,0.));
#1067=DIRECTION('center_axis',(0.,0.,-1.));
#1068=DIRECTION('ref_axis',(-1.,0.,0.));
#1069=DIRECTION('',(0.,0.,-1.));
#1070=DIRECTION('center_axis',(0.,-0.5,0.866025403784439));
#1071=DIRECTION('ref_axis',(0.,0.866025403784439,0.5));
#1072=DIRECTION('center_axis',(0.,0.,-1.));
#1073=DIRECTION('ref_axis',(-1.,0.,0.));
#1074=DIRECTION('center_axis',(0.,0.,-1.));
#1075=DIRECTION('ref_axis',(-1.,0.,0.));
#1076=DIRECTION('',(0.,0.,-1.));
#1077=DIRECTION('center_axis',(0.,0.500000000000001,0.866025403784438));
#1078=DIRECTION('ref_axis',(0.,0.866025403784438,-0.500000000000001));
#1079=DIRECTION('center_axis',(0.,0.5,-0.866025403784439));
#1080=DIRECTION('ref_axis',(0.,0.866025403784439,0.5));
#1081=DIRECTION('',(0.,-0.866025403784439,-0.5));
#1082=DIRECTION('',(1.,0.,0.));
#1083=DIRECTION('',(0.,0.866025403784439,0.5));
#1084=DIRECTION('center_axis',(0.,-0.500000000000001,-0.866025403784438));
#1085=DIRECTION('ref_axis',(0.,0.866025403784438,-0.500000000000001));
#1086=DIRECTION('',(0.,0.866025403784438,-0.500000000000001));
#1087=DIRECTION('',(0.,0.866025403784438,-0.500000000000001));
#1088=DIRECTION('',(1.,0.,0.));
#1089=DIRECTION('center_axis',(0.,0.,1.));
#1090=DIRECTION('ref_axis',(0.,-1.,0.));
#1091=DIRECTION('',(0.,-1.,0.));
#1092=DIRECTION('',(0.,-1.,0.));
#1093=DIRECTION('',(1.,0.,0.));
#1094=DIRECTION('center_axis',(1.,0.,0.));
#1095=DIRECTION('ref_axis',(0.,1.,0.));
#1096=DIRECTION('center_axis',(-1.,0.,0.));
#1097=DIRECTION('ref_axis',(0.,1.,0.));
#1098=DIRECTION('center_axis',(-1.,0.,0.));
#1099=DIRECTION('ref_axis',(0.,1.,0.));
#1100=DIRECTION('',(1.,0.,0.));
#1101=DIRECTION('center_axis',(0.,0.,1.));
#1102=DIRECTION('ref_axis',(0.,-1.,0.));
#1103=DIRECTION('',(0.,1.,0.));
#1104=DIRECTION('',(0.,-1.,0.));
#1105=DIRECTION('center_axis',(-1.,0.,0.));
#1106=DIRECTION('ref_axis',(0.,-1.,0.));
#1107=DIRECTION('center_axis',(-1.,0.,0.));
#1108=DIRECTION('ref_axis',(0.,-1.,0.));
#1109=DIRECTION('center_axis',(0.,1.22464679914735E-16,-1.));
#1110=DIRECTION('ref_axis',(1.,0.,0.));
#1111=DIRECTION('',(0.,1.22464679914735E-16,-1.));
#1112=DIRECTION('center_axis',(0.,1.22464679914735E-16,-1.));
#1113=DIRECTION('ref_axis',(1.,0.,0.));
#1114=DIRECTION('',(0.,1.22464679914735E-16,-1.));
#1115=DIRECTION('center_axis',(0.,1.22464679914735E-16,-1.));
#1116=DIRECTION('ref_axis',(1.,0.,0.));
#1117=DIRECTION('',(0.,1.22464679914735E-16,-1.));
#1118=DIRECTION('center_axis',(0.,1.22464679914735E-16,-1.));
#1119=DIRECTION('ref_axis',(1.,0.,0.));
#1120=DIRECTION('',(0.,1.22464679914735E-16,-1.));
#1121=DIRECTION('center_axis',(0.,-1.,-1.22464679914735E-16));
#1122=DIRECTION('ref_axis',(0.,1.22464679914735E-16,-1.));
#1123=DIRECTION('',(1.,0.,0.));
#1124=DIRECTION('',(0.,1.22464679914735E-16,-1.));
#1125=DIRECTION('',(-1.,0.,0.));
#1126=DIRECTION('',(0.,-1.22464679914735E-16,1.));
#1127=DIRECTION('center_axis',(1.,0.,0.));
#1128=DIRECTION('ref_axis',(0.,-1.22464679914735E-16,1.));
#1129=DIRECTION('',(0.,1.,1.22464679914735E-16));
#1130=DIRECTION('',(0.,-1.,-1.22464679914735E-16));
#1131=DIRECTION('',(0.,-1.,-1.22464679914735E-16));
#1132=DIRECTION('',(0.,1.22464679914735E-16,-1.));
#1133=DIRECTION('center_axis',(0.,1.22464679914735E-16,-1.));
#1134=DIRECTION('ref_axis',(1.,0.,0.));
#1135=DIRECTION('',(-1.,0.,0.));
#1136=DIRECTION('',(0.,-1.,-1.22464679914735E-16));
#1137=DIRECTION('center_axis',(0.,-1.22464679914735E-16,1.));
#1138=DIRECTION('ref_axis',(-1.,0.,0.));
#1139=DIRECTION('',(0.,-1.,-1.22464679914735E-16));
#1140=DIRECTION('center_axis',(0.,1.22464679914735E-16,-1.));
#1141=DIRECTION('ref_axis',(1.,0.,0.));
#1142=DIRECTION('',(1.,0.,0.));
#1143=DIRECTION('',(0.,-1.,-1.22464679914735E-16));
#1144=DIRECTION('',(-1.,0.,0.));
#1145=DIRECTION('',(0.,1.,1.22464679914735E-16));
#1146=DIRECTION('center_axis',(0.,-1.,-1.22464679914735E-16));
#1147=DIRECTION('ref_axis',(-1.,0.,0.));
#1148=DIRECTION('',(0.,1.22464679914735E-16,-1.));
#1149=DIRECTION('',(0.,1.22464679914735E-16,-1.));
#1150=DIRECTION('center_axis',(1.,0.,0.));
#1151=DIRECTION('ref_axis',(0.,-1.,-1.22464679914735E-16));
#1152=DIRECTION('',(0.,1.22464679914735E-16,-1.));
#1153=DIRECTION('center_axis',(-1.,0.,0.));
#1154=DIRECTION('ref_axis',(0.,1.,1.22464679914735E-16));
#1155=DIRECTION('',(0.,1.22464679914735E-16,-1.));
#1156=DIRECTION('center_axis',(0.,1.,1.22464679914735E-16));
#1157=DIRECTION('ref_axis',(1.,0.,0.));
#1158=DIRECTION('center_axis',(1.,0.,0.));
#1159=DIRECTION('ref_axis',(0.,-1.,-1.22464679914735E-16));
#1160=CARTESIAN_POINT('',(0.,0.,0.));
#1161=CARTESIAN_POINT('Origin',(89.8,-15.4025,-36.4999999403954));
#1162=CARTESIAN_POINT('',(97.3,-15.4025,-61.4999999403953));
#1163=CARTESIAN_POINT('',(89.8,-7.90249999999999,-61.4999999403953));
#1164=CARTESIAN_POINT('Origin',(89.8,-15.4025,-61.4999999403953));
#1165=CARTESIAN_POINT('',(89.8,-7.90249999999999,-36.4449999403953));
#1166=CARTESIAN_POINT('',(89.8,-7.90249999999999,-36.4999999403954));
#1167=CARTESIAN_POINT('',(97.3,-15.4025,-36.4449999403954));
#1168=CARTESIAN_POINT('Origin',(89.8,-15.4025,-36.4449999403953));
#1169=CARTESIAN_POINT('',(97.3,-15.4025,-36.4999999403954));
#1170=CARTESIAN_POINT('Origin',(7.30000000000002,-7.90249999999999,-36.4999999403954));
#1171=CARTESIAN_POINT('',(14.8,-7.90249999999999,-61.4999999403953));
#1172=CARTESIAN_POINT('',(97.3,-7.90249999999999,-61.4999999403953));
#1173=CARTESIAN_POINT('',(14.8,-7.90249999999999,-36.4449999403953));
#1174=CARTESIAN_POINT('',(14.8,-7.90249999999999,-36.4999999403953));
#1175=CARTESIAN_POINT('',(97.3,-7.90249999999999,-36.4449999403953));
#1176=CARTESIAN_POINT('',(27.2999984353781,-7.90249999999999,-47.5000001043081));
#1177=CARTESIAN_POINT('',(27.2999984353781,-7.90249999999999,-38.4999999701977));
#1178=CARTESIAN_POINT('',(27.2999984353781,-7.90249999999999,-42.0000000223517));
#1179=CARTESIAN_POINT('',(17.2999982863665,-7.90249999999999,-38.4999999701977));
#1180=CARTESIAN_POINT('',(17.2999992176891,-7.90249999999999,-38.4999999701977));
#1181=CARTESIAN_POINT('',(17.2999982863665,-7.90249999999999,-47.5000001043081));
#1182=CARTESIAN_POINT('',(17.2999982863665,-7.90249999999999,-37.4999999552965));
#1183=CARTESIAN_POINT('',(12.2999991431833,-7.90249999999999,-47.5000001043081));
#1184=CARTESIAN_POINT('Origin',(52.3,-37.9025,-61.4999999403954));
#1185=CARTESIAN_POINT('',(97.3,-60.4025,-61.4999999403954));
#1186=CARTESIAN_POINT('',(97.3,-67.9025,-61.4999999403954));
#1187=CARTESIAN_POINT('',(89.8,-67.9025,-61.4999999403954));
#1188=CARTESIAN_POINT('Origin',(89.8,-60.4025,-61.4999999403954));
#1189=CARTESIAN_POINT('',(14.8,-67.9025,-61.4999999403954));
#1190=CARTESIAN_POINT('',(7.30000000000002,-67.9025,-61.4999999403954));
#1191=CARTESIAN_POINT('',(7.30000000000002,-60.4025,-61.4999999403954));
#1192=CARTESIAN_POINT('Origin',(14.8,-60.4025,-61.4999999403954));
#1193=CARTESIAN_POINT('',(7.30000000000002,-15.4025,-61.4999999403953));
#1194=CARTESIAN_POINT('',(7.30000000000002,-7.90249999999999,-61.4999999403953));
#1195=CARTESIAN_POINT('Origin',(14.8,-15.4025,-61.4999999403953));
#1196=CARTESIAN_POINT('',(17.3,-17.9025,-61.4999999403953));
#1197=CARTESIAN_POINT('',(17.3,-57.9025,-61.4999999403954));
#1198=CARTESIAN_POINT('',(17.3,-17.9025,-61.4999999403953));
#1199=CARTESIAN_POINT('',(87.3,-57.9025,-61.4999999403954));
#1200=CARTESIAN_POINT('',(17.3,-57.9025,-61.4999999403954));
#1201=CARTESIAN_POINT('',(87.3,-17.9025,-61.4999999403953));
#1202=CARTESIAN_POINT('',(87.3,-57.9025,-61.4999999403954));
#1203=CARTESIAN_POINT('',(87.3,-17.9025,-61.4999999403953));
#1204=CARTESIAN_POINT('',(10.6,-62.9025,-61.4999999403954));
#1205=CARTESIAN_POINT('Origin',(12.3,-62.9025,-61.4999999403954));
#1206=CARTESIAN_POINT('',(90.6,-12.9025,-61.4999999403953));
#1207=CARTESIAN_POINT('Origin',(92.3,-12.9025,-61.4999999403953));
#1208=CARTESIAN_POINT('',(10.6,-12.9025,-61.4999999403953));
#1209=CARTESIAN_POINT('Origin',(12.3,-12.9025,-61.4999999403953));
#1210=CARTESIAN_POINT('',(90.6,-62.9025,-61.4999999403954));
#1211=CARTESIAN_POINT('Origin',(92.3,-62.9025,-61.4999999403954));
#1212=CARTESIAN_POINT('Origin',(89.8,-60.4025,-36.4999999403954));
#1213=CARTESIAN_POINT('',(97.3,-60.4025,-36.4449999403954));
#1214=CARTESIAN_POINT('',(89.8,-67.9025,-36.4449999403954));
#1215=CARTESIAN_POINT('Origin',(89.8,-60.4025,-36.4449999403954));
#1216=CARTESIAN_POINT('',(89.8,-67.9025,-36.4999999403954));
#1217=CARTESIAN_POINT('',(97.3,-60.4025,-36.4999999403954));
#1218=CARTESIAN_POINT('Origin',(97.3,-67.9025,-36.4999999403954));
#1219=CARTESIAN_POINT('',(14.8,-67.9025,-36.4449999403954));
#1220=CARTESIAN_POINT('',(7.30000000000002,-67.9025,-36.4449999403954));
#1221=CARTESIAN_POINT('',(14.8,-67.9025,-36.4999999403954));
#1222=CARTESIAN_POINT('Origin',(52.3,-37.9025,-36.4449999403954));
#1223=CARTESIAN_POINT('',(7.30000000000002,-15.4025,-36.4449999403953));
#1224=CARTESIAN_POINT('Origin',(14.8,-15.4025,-36.4449999403953));
#1225=CARTESIAN_POINT('',(7.30000000000002,-17.9025005215406,-36.4450002384186));
#1226=CARTESIAN_POINT('',(7.30000000000002,-7.90249999999999,-36.4449999403953));
#1227=CARTESIAN_POINT('',(77.2447980008328,-17.9025005215406,-36.4450002384186));
#1228=CARTESIAN_POINT('',(7.2447980008328,-17.9025005215406,-36.4450002384186));
#1229=CARTESIAN_POINT('',(77.2447980008328,-18.0744741853447,-36.4449999403953));
#1230=CARTESIAN_POINT('',(77.2447980008328,-37.9025004097819,-36.4449999403954));
#1231=CARTESIAN_POINT('',(77.2447980008328,-57.7513584753837,-36.4449999403954));
#1232=CARTESIAN_POINT('',(77.2447980008328,-38.4512300173387,-36.4449999403954));
#1233=CARTESIAN_POINT('',(77.2447980008328,-57.9025011175871,-36.4450002384186));
#1234=CARTESIAN_POINT('',(77.2447980008328,-37.9025004097819,-36.4449999403954));
#1235=CARTESIAN_POINT('',(7.30000000000002,-57.9025011175871,-36.4450002384186));
#1236=CARTESIAN_POINT('',(7.2447980008328,-57.9025011175871,-36.4450002384186));
#1237=CARTESIAN_POINT('',(7.30000000000002,-60.4025,-36.4449999403954));
#1238=CARTESIAN_POINT('',(7.30000000000002,-7.90249999999999,-36.4449999403953));
#1239=CARTESIAN_POINT('Origin',(14.8,-60.4025,-36.4449999403954));
#1240=CARTESIAN_POINT('',(97.3,-67.9025,-36.4449999403954));
#1241=CARTESIAN_POINT('',(10.6,-62.9025,-36.4449999403954));
#1242=CARTESIAN_POINT('Origin',(12.3,-62.9025,-36.4449999403954));
#1243=CARTESIAN_POINT('',(90.6,-12.9025,-36.4449999403953));
#1244=CARTESIAN_POINT('Origin',(92.3,-12.9025,-36.4449999403953));
#1245=CARTESIAN_POINT('',(10.6,-12.9025,-36.4449999403953));
#1246=CARTESIAN_POINT('Origin',(12.3,-12.9025,-36.4449999403953));
#1247=CARTESIAN_POINT('',(90.6,-62.9025,-36.4449999403954));
#1248=CARTESIAN_POINT('Origin',(92.3,-62.9025,-36.4449999403954));
#1249=CARTESIAN_POINT('Origin',(14.8,-60.4025,-36.4999999403954));
#1250=CARTESIAN_POINT('',(7.30000000000002,-60.4025,-36.4999999403954));
#1251=CARTESIAN_POINT('Origin',(7.30000000000002,-67.9025,-36.4999999403954));
#1252=CARTESIAN_POINT('',(7.30000000000002,-57.9025011175871,-36.5000002384186));
#1253=CARTESIAN_POINT('',(7.30000000000002,-57.9025011175871,-36.5000002384186));
#1254=CARTESIAN_POINT('',(7.30000000000002,-17.9025005215406,-36.5000002384186));
#1255=CARTESIAN_POINT('',(7.30000000000002,-7.90249999999999,-36.4999999403954));
#1256=CARTESIAN_POINT('',(7.30000000000002,-17.9025005215406,-36.5000002384186));
#1257=CARTESIAN_POINT('',(7.30000000000002,-15.4025,-36.4999999403953));
#1258=CARTESIAN_POINT('Origin',(14.8,-15.4025,-36.4999999403953));
#1259=CARTESIAN_POINT('Origin',(77.2447980008328,-17.9025005215406,-36.4999999403954));
#1260=CARTESIAN_POINT('',(77.2447980008328,-57.9025011175871,-36.5000002384186));
#1261=CARTESIAN_POINT('Ctrl Pts',(77.2447980008328,-57.7513584753752,-36.4449999403923));
#1262=CARTESIAN_POINT('Ctrl Pts',(77.2447980008328,-57.7814731772605,-36.4559587233863));
#1263=CARTESIAN_POINT('Ctrl Pts',(77.2447980008328,-57.811644790881,-36.4669381441169));
#1264=CARTESIAN_POINT('Ctrl Pts',(77.2447980008328,-57.8418733182631,-36.4779382033338));
#1265=CARTESIAN_POINT('Ctrl Pts',(77.2447980008328,-57.8721587604693,-36.4889589014261));
#1266=CARTESIAN_POINT('Ctrl Pts',(77.2447980008328,-57.9025011175871,-36.5000002384186));
#1267=CARTESIAN_POINT('',(77.2447980008328,-57.9025011175871,-36.5000002384186));
#1268=CARTESIAN_POINT('Origin',(77.2447980008328,-17.9025005215406,-36.4999999403954));
#1269=CARTESIAN_POINT('',(77.2447980008328,-17.9025005215406,-36.5000002384186));
#1270=CARTESIAN_POINT('Ctrl Pts',(77.2447980008328,-17.9025005215406,-36.5000002384186));
#1271=CARTESIAN_POINT('Ctrl Pts',(77.2447980008328,-17.9369832619483,-36.4889720202331));
#1272=CARTESIAN_POINT('Ctrl Pts',(77.2447980008328,-17.9714219989266,-36.4779578812119));
#1273=CARTESIAN_POINT('Ctrl Pts',(77.2447980008328,-18.0058167325538,-36.4669578213301));
#1274=CARTESIAN_POINT('Ctrl Pts',(77.2447980008328,-18.0401674619571,-36.4559718408668));
#1275=CARTESIAN_POINT('Ctrl Pts',(77.2447980008328,-18.074474185315,-36.4449999404048));
#1276=CARTESIAN_POINT('',(77.2447980008328,-17.9025005215406,-36.5000002384186));
#1277=CARTESIAN_POINT('Origin',(7.30000000000002,-17.9025005215406,-36.5000002384186));
#1278=CARTESIAN_POINT('',(7.2447980008328,-17.9025005215406,-36.5000002384186));
#1279=CARTESIAN_POINT('Origin',(77.2447980008328,-57.9025011175871,-36.5000002384186));
#1280=CARTESIAN_POINT('',(7.2447980008328,-57.9025011175871,-36.5000002384186));
#1281=CARTESIAN_POINT('Ctrl Pts',(7.2447980008328,-17.9025005215406,-36.5000002384186));
#1282=CARTESIAN_POINT('Ctrl Pts',(77.2447980008328,-17.9025005215406,-36.5000002384186));
#1283=CARTESIAN_POINT('Ctrl Pts',(7.2447980008328,-18.5797405982855,-36.2834063354399));
#1284=CARTESIAN_POINT('Ctrl Pts',(77.2447980008328,-18.5797405982855,-36.2834063354399));
#1285=CARTESIAN_POINT('Ctrl Pts',(7.2447980008328,-19.9002739961145,-35.8610800000245));
#1286=CARTESIAN_POINT('Ctrl Pts',(77.2447980008328,-19.9002739961145,-35.8610800000245));
#1287=CARTESIAN_POINT('Ctrl Pts',(7.2447980008328,-21.7792373808756,-35.2601737709837));
#1288=CARTESIAN_POINT('Ctrl Pts',(77.2447980008328,-21.7792373808756,-35.2601737709837));
#1289=CARTESIAN_POINT('Ctrl Pts',(7.2447980008328,-24.0774671209131,-34.5252138981844));
#1290=CARTESIAN_POINT('Ctrl Pts',(77.2447980008328,-24.0774671209131,-34.5252138981844));
#1291=CARTESIAN_POINT('Ctrl Pts',(7.2447980008328,-26.5804097366087,-33.7248454997371));
#1292=CARTESIAN_POINT('Ctrl Pts',(77.2447980008328,-26.5804097366087,-33.7248454997371));
#1293=CARTESIAN_POINT('Ctrl Pts',(7.2447980008328,-28.6764425025798,-33.0546599907902));
#1294=CARTESIAN_POINT('Ctrl Pts',(77.2447980008328,-28.6764425025798,-33.0546599907902));
#1295=CARTESIAN_POINT('Ctrl Pts',(7.2447980008328,-30.324486325243,-32.5277848764475));
#1296=CARTESIAN_POINT('Ctrl Pts',(77.2447980008328,-30.324486325243,-32.5277848764475));
#1297=CARTESIAN_POINT('Ctrl Pts',(7.2447980008328,-31.4770728804563,-32.1593758433193));
#1298=CARTESIAN_POINT('Ctrl Pts',(77.2447980008328,-31.4770728804563,-32.1593758433193));
#1299=CARTESIAN_POINT('Ctrl Pts',(7.2447980008328,-32.0212499221532,-31.9854824469959));
#1300=CARTESIAN_POINT('Ctrl Pts',(77.2447980008328,-32.0212499221532,-31.9854824469959));
#1301=CARTESIAN_POINT('Ctrl Pts',(7.2447980008328,-32.2394627166132,-31.915761104922));
#1302=CARTESIAN_POINT('Ctrl Pts',(77.2447980008328,-32.2394627166132,-31.915761104922));
#1303=CARTESIAN_POINT('Ctrl Pts',(7.2447980008328,-32.3185396975199,-31.8904853581422));
#1304=CARTESIAN_POINT('Ctrl Pts',(77.2447980008328,-32.3185396975199,-31.8904853581422));
#1305=CARTESIAN_POINT('Ctrl Pts',(7.2447980008328,-32.3443028837649,-31.8822442884602));
#1306=CARTESIAN_POINT('Ctrl Pts',(77.2447980008328,-32.3443028837649,-31.8822442884602));
#1307=CARTESIAN_POINT('',(7.2447980008328,-32.3443028837649,-31.8822442884602));
#1308=CARTESIAN_POINT('',(7.2447980008328,-17.9025005215406,-36.5000002384186));
#1309=CARTESIAN_POINT('Ctrl Pts',(7.2447980008328,-32.3443028837649,-31.8822442884602));
#1310=CARTESIAN_POINT('Ctrl Pts',(7.2447980008328,-32.3185396975199,-31.8904853581422));
#1311=CARTESIAN_POINT('Ctrl Pts',(7.2447980008328,-32.2394627166132,-31.915761104922));
#1312=CARTESIAN_POINT('Ctrl Pts',(7.2447980008328,-32.0212499221532,-31.9854824469959));
#1313=CARTESIAN_POINT('Ctrl Pts',(7.2447980008328,-31.4770728804563,-32.1593758433193));
#1314=CARTESIAN_POINT('Ctrl Pts',(7.2447980008328,-30.324486325243,-32.5277848764475));
#1315=CARTESIAN_POINT('Ctrl Pts',(7.2447980008328,-28.6764425025798,-33.0546599907902));
#1316=CARTESIAN_POINT('Ctrl Pts',(7.2447980008328,-26.5804097366087,-33.7248454997371));
#1317=CARTESIAN_POINT('Ctrl Pts',(7.2447980008328,-24.0774671209131,-34.5252138981844));
#1318=CARTESIAN_POINT('Ctrl Pts',(7.2447980008328,-21.7792373808756,-35.2601737709837));
#1319=CARTESIAN_POINT('Ctrl Pts',(7.2447980008328,-19.9002739961145,-35.8610800000245));
#1320=CARTESIAN_POINT('Ctrl Pts',(7.2447980008328,-18.5797405982855,-36.2834063354399));
#1321=CARTESIAN_POINT('Ctrl Pts',(7.2447980008328,-17.9025005215406,-36.5000002384186));
#1322=CARTESIAN_POINT('',(77.2447980008328,-32.3443028837649,-31.8822442884602));
#1323=CARTESIAN_POINT('',(7.24479800083278,-32.3443028837649,-31.8822442884602));
#1324=CARTESIAN_POINT('Ctrl Pts',(77.2447980008328,-18.074474185315,-36.4449999404048));
#1325=CARTESIAN_POINT('Ctrl Pts',(77.2447980008328,-18.7139505686685,-36.2404840164349));
#1326=CARTESIAN_POINT('Ctrl Pts',(77.2447980008328,-19.9958101113585,-35.8305268717952));
#1327=CARTESIAN_POINT('Ctrl Pts',(77.2447980008328,-21.8376984252303,-35.2414782925149));
#1328=CARTESIAN_POINT('Ctrl Pts',(77.2447980008328,-24.1029553704824,-34.5170634957904));
#1329=CARTESIAN_POINT('Ctrl Pts',(77.2447980008328,-26.5804097366087,-33.7248454997371));
#1330=CARTESIAN_POINT('Ctrl Pts',(77.2447980008328,-28.6764425025798,-33.0546599907902));
#1331=CARTESIAN_POINT('Ctrl Pts',(77.2447980008328,-30.324486325243,-32.5277848764475));
#1332=CARTESIAN_POINT('Ctrl Pts',(77.2447980008328,-31.4770728804563,-32.1593758433193));
#1333=CARTESIAN_POINT('Ctrl Pts',(77.2447980008328,-32.0212499221532,-31.9854824469959));
#1334=CARTESIAN_POINT('Ctrl Pts',(77.2447980008328,-32.2394627166132,-31.915761104922));
#1335=CARTESIAN_POINT('Ctrl Pts',(77.2447980008328,-32.3185396975199,-31.8904853581422));
#1336=CARTESIAN_POINT('Ctrl Pts',(77.2447980008328,-32.3443028837649,-31.8822442884602));
#1337=CARTESIAN_POINT('',(7.2447980008328,-17.9025005215406,-36.5000002384186));
#1338=CARTESIAN_POINT('Origin',(7.2447980008328,-57.9025011175871,-36.5000002384186));
#1339=CARTESIAN_POINT('',(7.2447980008328,-57.9025011175871,-36.5000002384186));
#1340=CARTESIAN_POINT('',(7.2447980008328,-57.9025011175871,-36.5000002384186));
#1341=CARTESIAN_POINT('',(7.2447980008328,-57.9025011175871,-36.5000002384186));
#1342=CARTESIAN_POINT('Ctrl Pts',(7.2447980008328,-45.6143877361895,-31.9034621781145));
#1343=CARTESIAN_POINT('Ctrl Pts',(77.2447980008328,-45.6143877361895,-31.9034621781145));
#1344=CARTESIAN_POINT('Ctrl Pts',(7.2447980008328,-45.6114851675235,-31.9049521360836));
#1345=CARTESIAN_POINT('Ctrl Pts',(77.2447980008328,-45.6114851675235,-31.9049521360836));
#1346=CARTESIAN_POINT('Ctrl Pts',(7.2447980008328,-45.6032346081884,-31.9091500738424));
#1347=CARTESIAN_POINT('Ctrl Pts',(77.2447980008328,-45.6032346081884,-31.9091500738424));
#1348=CARTESIAN_POINT('Ctrl Pts',(7.2447980008328,-45.5855040252887,-31.9185140802501));
#1349=CARTESIAN_POINT('Ctrl Pts',(77.2447980008328,-45.5855040252887,-31.9185140802501));
#1350=CARTESIAN_POINT('Ctrl Pts',(7.2447980008328,-45.5684576228356,-31.9355872976237));
#1351=CARTESIAN_POINT('Ctrl Pts',(77.2447980008328,-45.5684576228356,-31.9355872976237));
#1352=CARTESIAN_POINT('Ctrl Pts',(7.2447980008328,-45.6919762798564,-32.0086881183133));
#1353=CARTESIAN_POINT('Ctrl Pts',(77.2447980008328,-45.6919762798564,-32.0086881183133));
#1354=CARTESIAN_POINT('Ctrl Pts',(7.2447980008328,-46.197334644869,-32.2145031341472));
#1355=CARTESIAN_POINT('Ctrl Pts',(77.2447980008328,-46.197334644869,-32.2145031341472));
#1356=CARTESIAN_POINT('Ctrl Pts',(7.2447980008328,-47.3506846332909,-32.6486861352265));
#1357=CARTESIAN_POINT('Ctrl Pts',(77.2447980008328,-47.3506846332909,-32.6486861352265));
#1358=CARTESIAN_POINT('Ctrl Pts',(7.2447980008328,-49.4438475044414,-33.4182173039562));
#1359=CARTESIAN_POINT('Ctrl Pts',(77.2447980008328,-49.4438475044414,-33.4182173039562));
#1360=CARTESIAN_POINT('Ctrl Pts',(7.2447980008328,-52.0950844563984,-34.3856773539185));
#1361=CARTESIAN_POINT('Ctrl Pts',(77.2447980008328,-52.0950844563984,-34.3856773539185));
#1362=CARTESIAN_POINT('Ctrl Pts',(7.2447980008328,-54.733792675026,-35.3467415037405));
#1363=CARTESIAN_POINT('Ctrl Pts',(77.2447980008328,-54.733792675026,-35.3467415037405));
#1364=CARTESIAN_POINT('Ctrl Pts',(7.2447980008328,-56.7957863358214,-36.0972757298174));
#1365=CARTESIAN_POINT('Ctrl Pts',(77.2447980008328,-56.7957863358214,-36.0972757298174));
#1366=CARTESIAN_POINT('Ctrl Pts',(7.2447980008328,-57.9025011175871,-36.5000002384186));
#1367=CARTESIAN_POINT('Ctrl Pts',(77.2447980008328,-57.9025011175871,-36.5000002384186));
#1368=CARTESIAN_POINT('',(7.2447980008328,-45.6143877362044,-31.9034621781435));
#1369=CARTESIAN_POINT('Ctrl Pts',(7.2447980008328,-45.6143877361895,-31.9034621781145));
#1370=CARTESIAN_POINT('Ctrl Pts',(7.2447980008328,-45.6114851675235,-31.9049521360836));
#1371=CARTESIAN_POINT('Ctrl Pts',(7.2447980008328,-45.6032346081884,-31.9091500738424));
#1372=CARTESIAN_POINT('Ctrl Pts',(7.2447980008328,-45.5855040252887,-31.9185140802501));
#1373=CARTESIAN_POINT('Ctrl Pts',(7.2447980008328,-45.5684576228356,-31.9355872976237));
#1374=CARTESIAN_POINT('Ctrl Pts',(7.2447980008328,-45.6919762798564,-32.0086881183133));
#1375=CARTESIAN_POINT('Ctrl Pts',(7.2447980008328,-46.197334644869,-32.2145031341472));
#1376=CARTESIAN_POINT('Ctrl Pts',(7.2447980008328,-47.3506846332909,-32.6486861352265));
#1377=CARTESIAN_POINT('Ctrl Pts',(7.2447980008328,-49.4438475044414,-33.4182173039562));
#1378=CARTESIAN_POINT('Ctrl Pts',(7.2447980008328,-52.0950844563984,-34.3856773539185));
#1379=CARTESIAN_POINT('Ctrl Pts',(7.2447980008328,-54.733792675026,-35.3467415037405));
#1380=CARTESIAN_POINT('Ctrl Pts',(7.2447980008328,-56.7957863358214,-36.0972757298174));
#1381=CARTESIAN_POINT('Ctrl Pts',(7.2447980008328,-57.9025011175871,-36.5000002384186));
#1382=CARTESIAN_POINT('',(77.2447980008328,-45.6143877362044,-31.9034621781435));
#1383=CARTESIAN_POINT('Ctrl Pts',(77.2447980008328,-45.6143877361895,-31.9034621781145));
#1384=CARTESIAN_POINT('Ctrl Pts',(77.2447980008328,-45.6114851675235,-31.9049521360836));
#1385=CARTESIAN_POINT('Ctrl Pts',(77.2447980008328,-45.6032346081884,-31.9091500738424));
#1386=CARTESIAN_POINT('Ctrl Pts',(77.2447980008328,-45.5855040252887,-31.9185140802501));
#1387=CARTESIAN_POINT('Ctrl Pts',(77.2447980008328,-45.5684576228356,-31.9355872976237));
#1388=CARTESIAN_POINT('Ctrl Pts',(77.2447980008328,-45.6919762798564,-32.0086881183133));
#1389=CARTESIAN_POINT('Ctrl Pts',(77.2447980008328,-46.197334644869,-32.2145031341472));
#1390=CARTESIAN_POINT('Ctrl Pts',(77.2447980008328,-47.3506846332909,-32.6486861352265));
#1391=CARTESIAN_POINT('Ctrl Pts',(77.2447980008328,-49.4323700223677,-33.4139977182202));
#1392=CARTESIAN_POINT('Ctrl Pts',(77.2447980008328,-52.0587863892003,-34.3724316500329));
#1393=CARTESIAN_POINT('Ctrl Pts',(77.2447980008328,-54.6616111208844,-35.3204513615068));
#1394=CARTESIAN_POINT('Ctrl Pts',(77.2447980008328,-56.683061949826,-36.0562453101341));
#1395=CARTESIAN_POINT('Ctrl Pts',(77.2447980008328,-57.7513584753752,-36.4449999403923));
#1396=CARTESIAN_POINT('',(7.2447980008328,-45.6143877361895,-31.9034621781145));
#1397=CARTESIAN_POINT('Origin',(7.2447980008328,-38.9999600346774,-18.9999996125698));
#1398=CARTESIAN_POINT('',(77.2447980008328,-53.1696157571881,-22.0774753160517));
#1399=CARTESIAN_POINT('Origin',(77.2447980008328,-38.9999600346774,-18.9999996125698));
#1400=CARTESIAN_POINT('',(7.2447980008328,-53.1696157571881,-22.0774753160517));
#1401=CARTESIAN_POINT('',(7.2447980008328,-53.1696157571881,-22.0774753160517));
#1402=CARTESIAN_POINT('Origin',(7.2447980008328,-38.9999600346774,-18.9999996125698));
#1403=CARTESIAN_POINT('Origin',(7.2447980008328,-38.9999600346774,-18.9999996125698));
#1404=CARTESIAN_POINT('',(7.2447980008328,-24.8303043121668,-22.0774753160517));
#1405=CARTESIAN_POINT('Origin',(7.2447980008328,-38.9999600346774,-18.9999996125698));
#1406=CARTESIAN_POINT('',(77.2447980008328,-24.8303043121668,-22.0774753160517));
#1407=CARTESIAN_POINT('',(7.2447980008328,-24.8303043121668,-22.0774753160517));
#1408=CARTESIAN_POINT('Origin',(77.2447980008328,-38.9999600346774,-18.9999996125698));
#1409=CARTESIAN_POINT('Origin',(72.0647980008328,-22.4999600346774,-18.9999996125698));
#1410=CARTESIAN_POINT('',(73.7647980008328,-22.4999600346774,-18.9999996125698));
#1411=CARTESIAN_POINT('Origin',(72.0647980008328,-22.4999600346774,-18.9999996125698));
#1412=CARTESIAN_POINT('',(73.7647980008328,-22.4999600346774,-20.7320504201387));
#1413=CARTESIAN_POINT('',(73.7647980008328,-22.4999600346774,-18.9999996125698));
#1414=CARTESIAN_POINT('Origin',(72.0647980008328,-22.4999600346774,-20.7320504201387));
#1415=CARTESIAN_POINT('Origin',(72.0650011026859,-55.4274193242967,-18.9999996125698));
#1416=CARTESIAN_POINT('',(73.765001102686,-55.4274193242967,-18.9999996125698));
#1417=CARTESIAN_POINT('Origin',(72.0650011026859,-55.4274193242967,-18.9999996125698));
#1418=CARTESIAN_POINT('',(73.7650011026859,-55.4274193242967,-20.7739318188042));
#1419=CARTESIAN_POINT('',(73.7650011026859,-55.4274193242967,-18.9999996125698));
#1420=CARTESIAN_POINT('Origin',(72.0650011026859,-55.4274193242967,-20.7739318188042));
#1421=CARTESIAN_POINT('Origin',(12.4247980008328,-22.4999600346774,-18.9999996125698));
#1422=CARTESIAN_POINT('',(14.1247980008328,-22.4999600346774,-18.9999996125698));
#1423=CARTESIAN_POINT('Origin',(12.4247980008328,-22.4999600346774,-18.9999996125698));
#1424=CARTESIAN_POINT('',(14.1247980008328,-22.4999600346774,-20.7320504201387));
#1425=CARTESIAN_POINT('',(14.1247980008328,-22.4999600346774,-18.9999996125698));
#1426=CARTESIAN_POINT('Origin',(12.4247980008328,-22.4999600346774,-20.7320504201387));
#1427=CARTESIAN_POINT('Origin',(12.4247980008328,-55.4999600346774,-18.9999996125698));
#1428=CARTESIAN_POINT('',(14.1247980008328,-55.4999600346774,-18.9999996125698));
#1429=CARTESIAN_POINT('Origin',(12.4247980008328,-55.4999600346774,-18.9999996125698));
#1430=CARTESIAN_POINT('',(14.1247980008328,-55.4999600346774,-20.7320504201387));
#1431=CARTESIAN_POINT('',(14.1247980008328,-55.4999600346774,-18.9999996125698));
#1432=CARTESIAN_POINT('Origin',(12.4247980008328,-55.4999600346774,-20.7320504201387));
#1433=CARTESIAN_POINT('Origin',(7.2447980008328,-24.8303043121668,-22.0774753160517));
#1434=CARTESIAN_POINT('',(7.2447980008328,-19.4999600346774,-18.9999996125698));
#1435=CARTESIAN_POINT('',(7.2447980008328,-19.4999600346774,-18.9999996125698));
#1436=CARTESIAN_POINT('',(77.2447980008328,-19.4999600346774,-18.9999996125698));
#1437=CARTESIAN_POINT('',(7.2447980008328,-19.4999600346774,-18.9999996125698));
#1438=CARTESIAN_POINT('',(77.2447980008328,-19.4999600346774,-18.9999996125698));
#1439=CARTESIAN_POINT('Origin',(7.2447980008328,-58.4999600346774,-18.9999996125698));
#1440=CARTESIAN_POINT('',(7.2447980008328,-58.4999600346774,-18.9999996125698));
#1441=CARTESIAN_POINT('',(7.2447980008328,-58.4999600346774,-18.9999996125698));
#1442=CARTESIAN_POINT('',(77.2447980008328,-58.4999600346774,-18.9999996125698));
#1443=CARTESIAN_POINT('',(77.2447980008328,-58.4999600346774,-18.9999996125698));
#1444=CARTESIAN_POINT('',(7.2447980008328,-58.4999600346774,-18.9999996125698));
#1445=CARTESIAN_POINT('Origin',(7.2447980008328,-49.9999601985902,-18.9999996125698));
#1446=CARTESIAN_POINT('',(7.2447980008328,-49.9999601985902,-18.9999996125698));
#1447=CARTESIAN_POINT('',(7.2447980008328,-53.4999600346774,-18.9999996125698));
#1448=CARTESIAN_POINT('',(77.2447980008328,-49.9999601985902,-18.9999996125698));
#1449=CARTESIAN_POINT('',(77.2447980008328,-53.4999600346774,-18.9999996125698));
#1450=CARTESIAN_POINT('',(7.2447980008328,-49.9999601985902,-18.9999996125698));
#1451=CARTESIAN_POINT('Origin',(7.2447980008328,-38.9999600346774,-18.9999996125698));
#1452=CARTESIAN_POINT('',(7.2447980008328,-27.9999598707646,-18.9999996125698));
#1453=CARTESIAN_POINT('Origin',(7.2447980008328,-38.9999600346774,-18.9999996125698));
#1454=CARTESIAN_POINT('',(77.2447980008328,-27.9999598707646,-18.9999996125698));
#1455=CARTESIAN_POINT('Origin',(77.2447980008328,-38.9999600346774,-18.9999996125698));
#1456=CARTESIAN_POINT('',(7.2447980008328,-27.9999598707646,-18.9999996125698));
#1457=CARTESIAN_POINT('Origin',(7.2447980008328,-19.4999600346774,-18.9999996125698));
#1458=CARTESIAN_POINT('',(7.2447980008328,-24.4999600346774,-18.9999996125698));
#1459=CARTESIAN_POINT('',(77.2447980008328,-24.4999600346774,-18.9999996125698));
#1460=CARTESIAN_POINT('Origin',(7.2447980008328,-38.9999600346774,-26.2499996125698));
#1461=CARTESIAN_POINT('Origin',(77.2447980008328,-38.9999600346774,-26.2499996125698));
#1462=CARTESIAN_POINT('Origin',(92.3,-62.9025,-36.4999999403954));
#1463=CARTESIAN_POINT('',(90.6,-62.9025,-36.4999999403954));
#1464=CARTESIAN_POINT('Origin',(12.3,-12.9025,-36.4999999403954));
#1465=CARTESIAN_POINT('',(10.6,-12.9025,-36.4999999403954));
#1466=CARTESIAN_POINT('Origin',(92.3,-12.9025,-36.4999999403954));
#1467=CARTESIAN_POINT('',(90.6,-12.9025,-36.4999999403954));
#1468=CARTESIAN_POINT('Origin',(12.3,-62.9025,-36.4999999403954));
#1469=CARTESIAN_POINT('',(10.6,-62.9025,-36.4999999403954));
#1470=CARTESIAN_POINT('Origin',(22.2999983608723,-19.9025,-43.0000000372529));
#1471=CARTESIAN_POINT('',(17.2999982863665,-19.9025,-39.4999999403954));
#1472=CARTESIAN_POINT('',(27.2999984353781,-19.9025,-39.4999999403954));
#1473=CARTESIAN_POINT('',(37.2999991804362,-19.9025,-39.4999999403954));
#1474=CARTESIAN_POINT('',(17.2999982863665,-19.9025,-38.4999999701977));
#1475=CARTESIAN_POINT('',(17.2999982863665,-19.9025,-38.4999999701977));
#1476=CARTESIAN_POINT('',(27.2999984353781,-19.9025,-38.4999999701977));
#1477=CARTESIAN_POINT('',(27.2999984353781,-19.9025,-38.4999999701977));
#1478=CARTESIAN_POINT('',(27.2999984353781,-19.9025,-47.5000001043081));
#1479=CARTESIAN_POINT('Origin',(27.2999984353781,-7.90249999999999,-47.5000001043081));
#1480=CARTESIAN_POINT('',(27.2999984353781,-17.9025,-39.4999999403954));
#1481=CARTESIAN_POINT('',(27.2999984353781,-22.9025,-39.4999999403954));
#1482=CARTESIAN_POINT('',(27.2999984353781,-7.90249999999999,-38.4999999701977));
#1483=CARTESIAN_POINT('',(27.2999984353781,-17.9025,-47.5000001043081));
#1484=CARTESIAN_POINT('',(27.2999984353781,-7.90249999999999,-47.5000001043081));
#1485=CARTESIAN_POINT('',(27.2999984353781,-17.9025,-42.0000000223517));
#1486=CARTESIAN_POINT('Origin',(17.2999982863665,-7.90249999999999,-47.5000001043081));
#1487=CARTESIAN_POINT('',(17.2999982863665,-17.9025,-47.5000001043081));
#1488=CARTESIAN_POINT('',(52.2999991431833,-17.9025,-47.5000001043081));
#1489=CARTESIAN_POINT('',(17.2999982863665,-7.90249999999999,-47.5000001043081));
#1490=CARTESIAN_POINT('Origin',(27.2999984353781,-7.90249999999999,-38.4999999701977));
#1491=CARTESIAN_POINT('',(17.2999982863665,-7.90249999999999,-38.4999999701977));
#1492=CARTESIAN_POINT('Origin',(52.3,-37.9025,-39.4999999403954));
#1493=CARTESIAN_POINT('',(87.3,-17.9025,-39.4999999403954));
#1494=CARTESIAN_POINT('',(87.3,-17.9025,-39.4999999403954));
#1495=CARTESIAN_POINT('',(87.3,-57.9025,-39.4999999403954));
#1496=CARTESIAN_POINT('',(87.3,-57.9025,-39.4999999403954));
#1497=CARTESIAN_POINT('',(17.3,-57.9025,-39.4999999403954));
#1498=CARTESIAN_POINT('',(17.3,-57.9025,-39.4999999403954));
#1499=CARTESIAN_POINT('',(17.3,-17.9025,-39.4999999403954));
#1500=CARTESIAN_POINT('Origin',(87.3,-17.9025,-36.4999999403954));
#1501=CARTESIAN_POINT('',(17.3,-17.9025,-36.4999999403954));
#1502=CARTESIAN_POINT('',(87.3,-17.9025,-36.4999999403954));
#1503=CARTESIAN_POINT('Origin',(17.3,-17.9025,-36.4999999403954));
#1504=CARTESIAN_POINT('',(17.3,-57.9025,-36.4999999403954));
#1505=CARTESIAN_POINT('Origin',(87.3,-57.9025,-36.4999999403954));
#1506=CARTESIAN_POINT('',(87.3,-57.9025,-36.4999999403954));
#1507=CARTESIAN_POINT('Origin',(17.3,-57.9025,-36.4999999403954));
#1508=CARTESIAN_POINT('Origin',(97.3,-7.90249999999999,-36.4999999403954));
#1509=UNCERTAINTY_MEASURE_WITH_UNIT(LENGTH_MEASURE(0.01),#1513,
'DISTANCE_ACCURACY_VALUE',
'Maximum model space distance between geometric entities at asserted c
onnectivities');
#1510=UNCERTAINTY_MEASURE_WITH_UNIT(LENGTH_MEASURE(0.01),#1513,
'DISTANCE_ACCURACY_VALUE',
'Maximum model space distance between geometric entities at asserted c
onnectivities');
#1511=(
GEOMETRIC_REPRESENTATION_CONTEXT(3)
GLOBAL_UNCERTAINTY_ASSIGNED_CONTEXT((#1509))
GLOBAL_UNIT_ASSIGNED_CONTEXT((#1513,#1514,#1515))
REPRESENTATION_CONTEXT('','3D')
);
#1512=(
GEOMETRIC_REPRESENTATION_CONTEXT(3)
GLOBAL_UNCERTAINTY_ASSIGNED_CONTEXT((#1510))
GLOBAL_UNIT_ASSIGNED_CONTEXT((#1513,#1514,#1515))
REPRESENTATION_CONTEXT('','3D')
);
#1513=(
LENGTH_UNIT()
NAMED_UNIT(*)
SI_UNIT(.MILLI.,.METRE.)
);
#1514=(
NAMED_UNIT(*)
PLANE_ANGLE_UNIT()
SI_UNIT($,.RADIAN.)
);
#1515=(
NAMED_UNIT(*)
SI_UNIT($,.STERADIAN.)
SOLID_ANGLE_UNIT()
);
#1516=SHAPE_DEFINITION_REPRESENTATION(#1517,#1518);
#1517=PRODUCT_DEFINITION_SHAPE('',$,#1520);
#1518=SHAPE_REPRESENTATION('',(#861),#1511);
#1519=PRODUCT_DEFINITION_CONTEXT('part definition',#1524,'design');
#1520=PRODUCT_DEFINITION('Hermes 1','Hermesnew',#1521,#1519);
#1521=PRODUCT_DEFINITION_FORMATION('',$,#1526);
#1522=PRODUCT_RELATED_PRODUCT_CATEGORY('Hermesnew','Hermesnew',(#1526));
#1523=APPLICATION_PROTOCOL_DEFINITION('international standard',
'automotive_design',2009,#1524);
#1524=APPLICATION_CONTEXT(
'Core Data for Automotive Mechanical Design Process');
#1525=PRODUCT_CONTEXT('part definition',#1524,'mechanical');
#1526=PRODUCT('Hermes 1','Hermesnew','KiCad electronic assembly',(#1525));
#1527=PRESENTATION_STYLE_ASSIGNMENT((#1528));
#1528=SURFACE_STYLE_USAGE(.BOTH.,#1529);
#1529=SURFACE_SIDE_STYLE('',(#1530));
#1530=SURFACE_STYLE_FILL_AREA(#1531);
#1531=FILL_AREA_STYLE('Steel - Satin',(#1532));
#1532=FILL_AREA_STYLE_COLOUR('Steel - Satin',#1533);
#1533=COLOUR_RGB('Steel - Satin',0.627450980392157,0.627450980392157,0.627450980392157);
ENDSEC;
END-ISO-10303-21;
