ISO-10303-21;
HEADER;
/* Generated by software containing ST-Developer
 * from STEP Tools, Inc. (www.steptools.com) 
 */

FILE_DESCRIPTION(
/* description */ ('KiCad electronic assembly'),
/* implementation_level */ '2;1');

FILE_NAME(
/* name */ 'Hermes Bottom [2].step',
/* time_stamp */ '2026-07-29T11:53:09+05:30',
/* author */ (''),
/* organization */ (''),
/* preprocessor_version */ 'ST-DEVELOPER v20.1',
/* originating_system */ 'Autodesk Translation Framework v14.24.0.0',
/* authorisation */ '');

FILE_SCHEMA (('AUTOMOTIVE_DESIGN { 1 0 10303 214 3 1 1 }','FEATURE_BASED_PROCESS_PLANNING'));
ENDSEC;

DATA;
#10=MECHANICAL_DESIGN_GEOMETRIC_PRESENTATION_REPRESENTATION('',(#13),#467);
#11=SHAPE_REPRESENTATION_RELATIONSHIP('SRR','None',#473,#12);
#12=ADVANCED_BREP_SHAPE_REPRESENTATION('',(#14),#466);
#13=STYLED_ITEM('',(#482),#14);
#14=MANIFOLD_SOLID_BREP('Body15',#275);
#15=FACE_BOUND('',#45,.T.);
#16=FACE_BOUND('',#46,.T.);
#17=FACE_BOUND('',#47,.T.);
#18=FACE_BOUND('',#48,.T.);
#19=FACE_BOUND('',#61,.T.);
#20=FACE_BOUND('',#62,.T.);
#21=FACE_BOUND('',#63,.T.);
#22=FACE_BOUND('',#64,.T.);
#23=PLANE('',#280);
#24=PLANE('',#288);
#25=PLANE('',#293);
#26=PLANE('',#304);
#27=PLANE('',#305);
#28=PLANE('',#306);
#29=FACE_OUTER_BOUND('',#43,.T.);
#30=FACE_OUTER_BOUND('',#44,.T.);
#31=FACE_OUTER_BOUND('',#49,.T.);
#32=FACE_OUTER_BOUND('',#50,.T.);
#33=FACE_OUTER_BOUND('',#51,.T.);
#34=FACE_OUTER_BOUND('',#52,.T.);
#35=FACE_OUTER_BOUND('',#53,.T.);
#36=FACE_OUTER_BOUND('',#54,.T.);
#37=FACE_OUTER_BOUND('',#55,.T.);
#38=FACE_OUTER_BOUND('',#56,.T.);
#39=FACE_OUTER_BOUND('',#57,.T.);
#40=FACE_OUTER_BOUND('',#58,.T.);
#41=FACE_OUTER_BOUND('',#59,.T.);
#42=FACE_OUTER_BOUND('',#60,.T.);
#43=EDGE_LOOP('',(#181,#182,#183,#184));
#44=EDGE_LOOP('',(#185,#186,#187,#188,#189,#190,#191,#192));
#45=EDGE_LOOP('',(#193));
#46=EDGE_LOOP('',(#194));
#47=EDGE_LOOP('',(#195));
#48=EDGE_LOOP('',(#196));
#49=EDGE_LOOP('',(#197,#198,#199,#200));
#50=EDGE_LOOP('',(#201,#202,#203,#204));
#51=EDGE_LOOP('',(#205,#206,#207,#208));
#52=EDGE_LOOP('',(#209,#210,#211,#212));
#53=EDGE_LOOP('',(#213,#214,#215,#216));
#54=EDGE_LOOP('',(#217,#218,#219,#220));
#55=EDGE_LOOP('',(#221,#222,#223,#224));
#56=EDGE_LOOP('',(#225,#226,#227,#228));
#57=EDGE_LOOP('',(#229,#230,#231,#232));
#58=EDGE_LOOP('',(#233,#234,#235,#236));
#59=EDGE_LOOP('',(#237,#238,#239,#240));
#60=EDGE_LOOP('',(#241,#242,#243,#244,#245,#246,#247,#248));
#61=EDGE_LOOP('',(#249));
#62=EDGE_LOOP('',(#250));
#63=EDGE_LOOP('',(#251));
#64=EDGE_LOOP('',(#252));
#65=LINE('',#395,#85);
#66=LINE('',#398,#86);
#67=LINE('',#401,#87);
#68=LINE('',#405,#88);
#69=LINE('',#409,#89);
#70=LINE('',#412,#90);
#71=LINE('',#423,#91);
#72=LINE('',#424,#92);
#73=LINE('',#428,#93);
#74=LINE('',#433,#94);
#75=LINE('',#434,#95);
#76=LINE('',#437,#96);
#77=LINE('',#438,#97);
#78=LINE('',#442,#98);
#79=LINE('',#446,#99);
#80=LINE('',#450,#100);
#81=LINE('',#454,#101);
#82=LINE('',#458,#102);
#83=LINE('',#460,#103);
#84=LINE('',#462,#104);
#85=VECTOR('',#313,10.);
#86=VECTOR('',#316,10.);
#87=VECTOR('',#319,10.);
#88=VECTOR('',#322,10.);
#89=VECTOR('',#325,10.);
#90=VECTOR('',#328,10.);
#91=VECTOR('',#339,10.);
#92=VECTOR('',#340,10.);
#93=VECTOR('',#345,10.);
#94=VECTOR('',#350,10.);
#95=VECTOR('',#351,10.);
#96=VECTOR('',#354,10.);
#97=VECTOR('',#355,10.);
#98=VECTOR('',#360,10.);
#99=VECTOR('',#365,1.7);
#100=VECTOR('',#370,1.7);
#101=VECTOR('',#375,1.7);
#102=VECTOR('',#380,1.7);
#103=VECTOR('',#383,10.);
#104=VECTOR('',#386,10.);
#105=CIRCLE('',#278,7.5);
#106=CIRCLE('',#279,7.5);
#107=CIRCLE('',#281,7.5);
#108=CIRCLE('',#282,7.5);
#109=CIRCLE('',#283,7.5);
#110=CIRCLE('',#284,1.7);
#111=CIRCLE('',#285,1.7);
#112=CIRCLE('',#286,1.7);
#113=CIRCLE('',#287,1.7);
#114=CIRCLE('',#290,7.5);
#115=CIRCLE('',#292,7.5);
#116=CIRCLE('',#295,7.5);
#117=CIRCLE('',#297,1.7);
#118=CIRCLE('',#299,1.7);
#119=CIRCLE('',#301,1.7);
#120=CIRCLE('',#303,1.7);
#121=VERTEX_POINT('',#391);
#122=VERTEX_POINT('',#392);
#123=VERTEX_POINT('',#394);
#124=VERTEX_POINT('',#396);
#125=VERTEX_POINT('',#400);
#126=VERTEX_POINT('',#402);
#127=VERTEX_POINT('',#404);
#128=VERTEX_POINT('',#406);
#129=VERTEX_POINT('',#408);
#130=VERTEX_POINT('',#410);
#131=VERTEX_POINT('',#413);
#132=VERTEX_POINT('',#415);
#133=VERTEX_POINT('',#417);
#134=VERTEX_POINT('',#419);
#135=VERTEX_POINT('',#422);
#136=VERTEX_POINT('',#426);
#137=VERTEX_POINT('',#430);
#138=VERTEX_POINT('',#431);
#139=VERTEX_POINT('',#436);
#140=VERTEX_POINT('',#440);
#141=VERTEX_POINT('',#444);
#142=VERTEX_POINT('',#448);
#143=VERTEX_POINT('',#452);
#144=VERTEX_POINT('',#456);
#145=EDGE_CURVE('',#121,#122,#105,.T.);
#146=EDGE_CURVE('',#122,#123,#65,.T.);
#147=EDGE_CURVE('',#123,#124,#106,.T.);
#148=EDGE_CURVE('',#124,#121,#66,.T.);
#149=EDGE_CURVE('',#125,#121,#67,.T.);
#150=EDGE_CURVE('',#126,#125,#107,.T.);
#151=EDGE_CURVE('',#126,#127,#68,.T.);
#152=EDGE_CURVE('',#128,#127,#108,.T.);
#153=EDGE_CURVE('',#129,#128,#69,.T.);
#154=EDGE_CURVE('',#130,#129,#109,.T.);
#155=EDGE_CURVE('',#122,#130,#70,.T.);
#156=EDGE_CURVE('',#131,#131,#110,.T.);
#157=EDGE_CURVE('',#132,#132,#111,.T.);
#158=EDGE_CURVE('',#133,#133,#112,.T.);
#159=EDGE_CURVE('',#134,#134,#113,.T.);
#160=EDGE_CURVE('',#135,#124,#71,.T.);
#161=EDGE_CURVE('',#125,#135,#72,.T.);
#162=EDGE_CURVE('',#135,#136,#114,.T.);
#163=EDGE_CURVE('',#136,#126,#73,.T.);
#164=EDGE_CURVE('',#137,#138,#115,.T.);
#165=EDGE_CURVE('',#138,#128,#74,.T.);
#166=EDGE_CURVE('',#127,#137,#75,.T.);
#167=EDGE_CURVE('',#138,#139,#76,.T.);
#168=EDGE_CURVE('',#129,#139,#77,.T.);
#169=EDGE_CURVE('',#139,#140,#116,.T.);
#170=EDGE_CURVE('',#140,#130,#78,.T.);
#171=EDGE_CURVE('',#141,#141,#117,.T.);
#172=EDGE_CURVE('',#141,#131,#79,.T.);
#173=EDGE_CURVE('',#142,#142,#118,.T.);
#174=EDGE_CURVE('',#142,#132,#80,.T.);
#175=EDGE_CURVE('',#143,#143,#119,.T.);
#176=EDGE_CURVE('',#143,#133,#81,.T.);
#177=EDGE_CURVE('',#144,#144,#120,.T.);
#178=EDGE_CURVE('',#144,#134,#82,.T.);
#179=EDGE_CURVE('',#136,#137,#83,.T.);
#180=EDGE_CURVE('',#123,#140,#84,.T.);
#181=ORIENTED_EDGE('',*,*,#145,.T.);
#182=ORIENTED_EDGE('',*,*,#146,.T.);
#183=ORIENTED_EDGE('',*,*,#147,.T.);
#184=ORIENTED_EDGE('',*,*,#148,.T.);
#185=ORIENTED_EDGE('',*,*,#145,.F.);
#186=ORIENTED_EDGE('',*,*,#149,.F.);
#187=ORIENTED_EDGE('',*,*,#150,.F.);
#188=ORIENTED_EDGE('',*,*,#151,.T.);
#189=ORIENTED_EDGE('',*,*,#152,.F.);
#190=ORIENTED_EDGE('',*,*,#153,.F.);
#191=ORIENTED_EDGE('',*,*,#154,.F.);
#192=ORIENTED_EDGE('',*,*,#155,.F.);
#193=ORIENTED_EDGE('',*,*,#156,.T.);
#194=ORIENTED_EDGE('',*,*,#157,.T.);
#195=ORIENTED_EDGE('',*,*,#158,.T.);
#196=ORIENTED_EDGE('',*,*,#159,.T.);
#197=ORIENTED_EDGE('',*,*,#148,.F.);
#198=ORIENTED_EDGE('',*,*,#160,.F.);
#199=ORIENTED_EDGE('',*,*,#161,.F.);
#200=ORIENTED_EDGE('',*,*,#149,.T.);
#201=ORIENTED_EDGE('',*,*,#150,.T.);
#202=ORIENTED_EDGE('',*,*,#161,.T.);
#203=ORIENTED_EDGE('',*,*,#162,.T.);
#204=ORIENTED_EDGE('',*,*,#163,.T.);
#205=ORIENTED_EDGE('',*,*,#164,.T.);
#206=ORIENTED_EDGE('',*,*,#165,.T.);
#207=ORIENTED_EDGE('',*,*,#152,.T.);
#208=ORIENTED_EDGE('',*,*,#166,.T.);
#209=ORIENTED_EDGE('',*,*,#165,.F.);
#210=ORIENTED_EDGE('',*,*,#167,.T.);
#211=ORIENTED_EDGE('',*,*,#168,.F.);
#212=ORIENTED_EDGE('',*,*,#153,.T.);
#213=ORIENTED_EDGE('',*,*,#154,.T.);
#214=ORIENTED_EDGE('',*,*,#168,.T.);
#215=ORIENTED_EDGE('',*,*,#169,.T.);
#216=ORIENTED_EDGE('',*,*,#170,.T.);
#217=ORIENTED_EDGE('',*,*,#171,.F.);
#218=ORIENTED_EDGE('',*,*,#172,.T.);
#219=ORIENTED_EDGE('',*,*,#156,.F.);
#220=ORIENTED_EDGE('',*,*,#172,.F.);
#221=ORIENTED_EDGE('',*,*,#173,.F.);
#222=ORIENTED_EDGE('',*,*,#174,.T.);
#223=ORIENTED_EDGE('',*,*,#157,.F.);
#224=ORIENTED_EDGE('',*,*,#174,.F.);
#225=ORIENTED_EDGE('',*,*,#175,.F.);
#226=ORIENTED_EDGE('',*,*,#176,.T.);
#227=ORIENTED_EDGE('',*,*,#158,.F.);
#228=ORIENTED_EDGE('',*,*,#176,.F.);
#229=ORIENTED_EDGE('',*,*,#177,.F.);
#230=ORIENTED_EDGE('',*,*,#178,.T.);
#231=ORIENTED_EDGE('',*,*,#159,.F.);
#232=ORIENTED_EDGE('',*,*,#178,.F.);
#233=ORIENTED_EDGE('',*,*,#163,.F.);
#234=ORIENTED_EDGE('',*,*,#179,.T.);
#235=ORIENTED_EDGE('',*,*,#166,.F.);
#236=ORIENTED_EDGE('',*,*,#151,.F.);
#237=ORIENTED_EDGE('',*,*,#146,.F.);
#238=ORIENTED_EDGE('',*,*,#155,.T.);
#239=ORIENTED_EDGE('',*,*,#170,.F.);
#240=ORIENTED_EDGE('',*,*,#180,.F.);
#241=ORIENTED_EDGE('',*,*,#147,.F.);
#242=ORIENTED_EDGE('',*,*,#180,.T.);
#243=ORIENTED_EDGE('',*,*,#169,.F.);
#244=ORIENTED_EDGE('',*,*,#167,.F.);
#245=ORIENTED_EDGE('',*,*,#164,.F.);
#246=ORIENTED_EDGE('',*,*,#179,.F.);
#247=ORIENTED_EDGE('',*,*,#162,.F.);
#248=ORIENTED_EDGE('',*,*,#160,.T.);
#249=ORIENTED_EDGE('',*,*,#171,.T.);
#250=ORIENTED_EDGE('',*,*,#173,.T.);
#251=ORIENTED_EDGE('',*,*,#175,.T.);
#252=ORIENTED_EDGE('',*,*,#177,.T.);
#253=CYLINDRICAL_SURFACE('',#277,7.5);
#254=CYLINDRICAL_SURFACE('',#289,7.5);
#255=CYLINDRICAL_SURFACE('',#291,7.5);
#256=CYLINDRICAL_SURFACE('',#294,7.5);
#257=CYLINDRICAL_SURFACE('',#296,1.7);
#258=CYLINDRICAL_SURFACE('',#298,1.7);
#259=CYLINDRICAL_SURFACE('',#300,1.7);
#260=CYLINDRICAL_SURFACE('',#302,1.7);
#261=ADVANCED_FACE('',(#29),#253,.T.);
#262=ADVANCED_FACE('',(#30,#15,#16,#17,#18),#23,.T.);
#263=ADVANCED_FACE('',(#31),#24,.T.);
#264=ADVANCED_FACE('',(#32),#254,.T.);
#265=ADVANCED_FACE('',(#33),#255,.T.);
#266=ADVANCED_FACE('',(#34),#25,.T.);
#267=ADVANCED_FACE('',(#35),#256,.T.);
#268=ADVANCED_FACE('',(#36),#257,.F.);
#269=ADVANCED_FACE('',(#37),#258,.F.);
#270=ADVANCED_FACE('',(#38),#259,.F.);
#271=ADVANCED_FACE('',(#39),#260,.F.);
#272=ADVANCED_FACE('',(#40),#26,.T.);
#273=ADVANCED_FACE('',(#41),#27,.T.);
#274=ADVANCED_FACE('',(#42,#19,#20,#21,#22),#28,.T.);
#275=CLOSED_SHELL('',(#261,#262,#263,#264,#265,#266,#267,#268,#269,#270,
#271,#272,#273,#274));
#276=AXIS2_PLACEMENT_3D('',#389,#307,#308);
#277=AXIS2_PLACEMENT_3D('',#390,#309,#310);
#278=AXIS2_PLACEMENT_3D('',#393,#311,#312);
#279=AXIS2_PLACEMENT_3D('',#397,#314,#315);
#280=AXIS2_PLACEMENT_3D('',#399,#317,#318);
#281=AXIS2_PLACEMENT_3D('',#403,#320,#321);
#282=AXIS2_PLACEMENT_3D('',#407,#323,#324);
#283=AXIS2_PLACEMENT_3D('',#411,#326,#327);
#284=AXIS2_PLACEMENT_3D('',#414,#329,#330);
#285=AXIS2_PLACEMENT_3D('',#416,#331,#332);
#286=AXIS2_PLACEMENT_3D('',#418,#333,#334);
#287=AXIS2_PLACEMENT_3D('',#420,#335,#336);
#288=AXIS2_PLACEMENT_3D('',#421,#337,#338);
#289=AXIS2_PLACEMENT_3D('',#425,#341,#342);
#290=AXIS2_PLACEMENT_3D('',#427,#343,#344);
#291=AXIS2_PLACEMENT_3D('',#429,#346,#347);
#292=AXIS2_PLACEMENT_3D('',#432,#348,#349);
#293=AXIS2_PLACEMENT_3D('',#435,#352,#353);
#294=AXIS2_PLACEMENT_3D('',#439,#356,#357);
#295=AXIS2_PLACEMENT_3D('',#441,#358,#359);
#296=AXIS2_PLACEMENT_3D('',#443,#361,#362);
#297=AXIS2_PLACEMENT_3D('',#445,#363,#364);
#298=AXIS2_PLACEMENT_3D('',#447,#366,#367);
#299=AXIS2_PLACEMENT_3D('',#449,#368,#369);
#300=AXIS2_PLACEMENT_3D('',#451,#371,#372);
#301=AXIS2_PLACEMENT_3D('',#453,#373,#374);
#302=AXIS2_PLACEMENT_3D('',#455,#376,#377);
#303=AXIS2_PLACEMENT_3D('',#457,#378,#379);
#304=AXIS2_PLACEMENT_3D('',#459,#381,#382);
#305=AXIS2_PLACEMENT_3D('',#461,#384,#385);
#306=AXIS2_PLACEMENT_3D('',#463,#387,#388);
#307=DIRECTION('axis',(0.,0.,1.));
#308=DIRECTION('refdir',(1.,0.,0.));
#309=DIRECTION('center_axis',(0.,1.22464679914735E-16,-1.));
#310=DIRECTION('ref_axis',(0.707106781186547,0.707106781186547,0.));
#311=DIRECTION('center_axis',(0.,0.,1.));
#312=DIRECTION('ref_axis',(0.707106781186547,0.707106781186547,0.));
#313=DIRECTION('',(0.,-1.22464679914735E-16,1.));
#314=DIRECTION('center_axis',(0.,1.22464679914735E-16,-1.));
#315=DIRECTION('ref_axis',(0.707106781186547,0.707106781186547,0.));
#316=DIRECTION('',(0.,1.22464679914735E-16,-1.));
#317=DIRECTION('center_axis',(0.,0.,-1.));
#318=DIRECTION('ref_axis',(0.,-1.,0.));
#319=DIRECTION('',(0.,1.,0.));
#320=DIRECTION('center_axis',(0.,0.,1.));
#321=DIRECTION('ref_axis',(0.707106781186547,-0.707106781186547,0.));
#322=DIRECTION('',(-1.,0.,0.));
#323=DIRECTION('center_axis',(0.,0.,1.));
#324=DIRECTION('ref_axis',(-0.707106781186547,-0.707106781186547,0.));
#325=DIRECTION('',(0.,-1.,0.));
#326=DIRECTION('center_axis',(0.,0.,1.));
#327=DIRECTION('ref_axis',(-0.707106781186547,0.707106781186547,0.));
#328=DIRECTION('',(-1.,0.,0.));
#329=DIRECTION('center_axis',(0.,-1.22464679914735E-16,1.));
#330=DIRECTION('ref_axis',(1.,0.,0.));
#331=DIRECTION('center_axis',(0.,-1.22464679914735E-16,1.));
#332=DIRECTION('ref_axis',(1.,0.,0.));
#333=DIRECTION('center_axis',(0.,-1.22464679914735E-16,1.));
#334=DIRECTION('ref_axis',(1.,0.,0.));
#335=DIRECTION('center_axis',(0.,-1.22464679914735E-16,1.));
#336=DIRECTION('ref_axis',(1.,0.,0.));
#337=DIRECTION('center_axis',(1.,0.,0.));
#338=DIRECTION('ref_axis',(0.,1.22464679914735E-16,-1.));
#339=DIRECTION('',(0.,1.,0.));
#340=DIRECTION('',(0.,-1.22464679914735E-16,1.));
#341=DIRECTION('center_axis',(0.,1.22464679914735E-16,-1.));
#342=DIRECTION('ref_axis',(0.707106781186547,-0.707106781186547,0.));
#343=DIRECTION('center_axis',(0.,1.22464679914735E-16,-1.));
#344=DIRECTION('ref_axis',(0.707106781186547,-0.707106781186547,0.));
#345=DIRECTION('',(0.,1.22464679914735E-16,-1.));
#346=DIRECTION('center_axis',(0.,-1.22464679914735E-16,1.));
#347=DIRECTION('ref_axis',(-0.707106781186547,-0.707106781186547,0.));
#348=DIRECTION('center_axis',(0.,1.22464679914735E-16,-1.));
#349=DIRECTION('ref_axis',(-0.707106781186547,-0.707106781186547,0.));
#350=DIRECTION('',(0.,1.22464679914735E-16,-1.));
#351=DIRECTION('',(0.,-1.22464679914735E-16,1.));
#352=DIRECTION('center_axis',(-1.,0.,0.));
#353=DIRECTION('ref_axis',(0.,0.,1.));
#354=DIRECTION('',(0.,1.,1.22464679914735E-16));
#355=DIRECTION('',(0.,-1.22464679914735E-16,1.));
#356=DIRECTION('center_axis',(0.,1.22464679914735E-16,-1.));
#357=DIRECTION('ref_axis',(-0.707106781186547,0.707106781186547,0.));
#358=DIRECTION('center_axis',(0.,1.22464679914735E-16,-1.));
#359=DIRECTION('ref_axis',(-0.707106781186547,0.707106781186547,0.));
#360=DIRECTION('',(0.,1.22464679914735E-16,-1.));
#361=DIRECTION('center_axis',(0.,1.22464679914735E-16,-1.));
#362=DIRECTION('ref_axis',(1.,0.,0.));
#363=DIRECTION('center_axis',(0.,1.22464679914735E-16,-1.));
#364=DIRECTION('ref_axis',(1.,0.,0.));
#365=DIRECTION('',(0.,1.22464679914735E-16,-1.));
#366=DIRECTION('center_axis',(0.,1.22464679914735E-16,-1.));
#367=DIRECTION('ref_axis',(1.,0.,0.));
#368=DIRECTION('center_axis',(0.,1.22464679914735E-16,-1.));
#369=DIRECTION('ref_axis',(1.,0.,0.));
#370=DIRECTION('',(0.,1.22464679914735E-16,-1.));
#371=DIRECTION('center_axis',(0.,1.22464679914735E-16,-1.));
#372=DIRECTION('ref_axis',(1.,0.,0.));
#373=DIRECTION('center_axis',(0.,1.22464679914735E-16,-1.));
#374=DIRECTION('ref_axis',(1.,0.,0.));
#375=DIRECTION('',(0.,1.22464679914735E-16,-1.));
#376=DIRECTION('center_axis',(0.,1.22464679914735E-16,-1.));
#377=DIRECTION('ref_axis',(1.,0.,0.));
#378=DIRECTION('center_axis',(0.,1.22464679914735E-16,-1.));
#379=DIRECTION('ref_axis',(1.,0.,0.));
#380=DIRECTION('',(0.,1.22464679914735E-16,-1.));
#381=DIRECTION('center_axis',(0.,-1.,-1.22464679914735E-16));
#382=DIRECTION('ref_axis',(0.,-1.22464679914735E-16,1.));
#383=DIRECTION('',(-1.,0.,0.));
#384=DIRECTION('center_axis',(0.,1.,1.22464679914735E-16));
#385=DIRECTION('ref_axis',(0.,1.22464679914735E-16,-1.));
#386=DIRECTION('',(-1.,0.,0.));
#387=DIRECTION('center_axis',(0.,-1.22464679914735E-16,1.));
#388=DIRECTION('ref_axis',(0.,1.,1.22464679914735E-16));
#389=CARTESIAN_POINT('',(0.,0.,0.));
#390=CARTESIAN_POINT('Origin',(89.8,-15.4020227718884,-61.4999999403953));
#391=CARTESIAN_POINT('',(97.3,-15.4020227718884,-64.4999999403954));
#392=CARTESIAN_POINT('',(89.8,-7.90202277188838,-64.4999999403954));
#393=CARTESIAN_POINT('Origin',(89.8,-15.4020227718884,-64.4999999403954));
#394=CARTESIAN_POINT('',(89.8,-7.90202277188838,-61.4999999403953));
#395=CARTESIAN_POINT('',(89.8,-7.90202277188838,-61.4999999403953));
#396=CARTESIAN_POINT('',(97.3,-15.4020227718884,-61.4999999403953));
#397=CARTESIAN_POINT('Origin',(89.8,-15.4020227718884,-61.4999999403953));
#398=CARTESIAN_POINT('',(97.3,-15.4020227718884,-61.4999999403953));
#399=CARTESIAN_POINT('Origin',(7.48548711379774,-7.90202277188838,-64.4999999403954));
#400=CARTESIAN_POINT('',(97.3,-60.4025,-64.4999999403954));
#401=CARTESIAN_POINT('',(97.3,-8.09102277188838,-64.4999999403954));
#402=CARTESIAN_POINT('',(89.8,-67.9025,-64.4999999403954));
#403=CARTESIAN_POINT('Origin',(89.8,-60.4025,-64.4999999403954));
#404=CARTESIAN_POINT('',(14.7964871137977,-67.9025,-64.4999999403954));
#405=CARTESIAN_POINT('',(7.48548711379774,-67.9025,-64.4999999403954));
#406=CARTESIAN_POINT('',(7.29648711379774,-60.4025,-64.4999999403954));
#407=CARTESIAN_POINT('Origin',(14.7964871137977,-60.4025,-64.4999999403954));
#408=CARTESIAN_POINT('',(7.29648711379774,-15.4020227718884,-64.4999999403954));
#409=CARTESIAN_POINT('',(7.29648711379774,-8.09102277188838,-64.4999999403954));
#410=CARTESIAN_POINT('',(14.7964871137977,-7.90202277188838,-64.4999999403954));
#411=CARTESIAN_POINT('Origin',(14.7964871137977,-15.4020227718884,-64.4999999403954));
#412=CARTESIAN_POINT('',(7.48548711379774,-7.90202277188838,-64.4999999403954));
#413=CARTESIAN_POINT('',(90.6,-62.9025,-64.4999999403954));
#414=CARTESIAN_POINT('Origin',(92.3,-62.9025,-64.4999999403954));
#415=CARTESIAN_POINT('',(10.6,-12.9025,-64.4999999403954));
#416=CARTESIAN_POINT('Origin',(12.3,-12.9025,-64.4999999403954));
#417=CARTESIAN_POINT('',(90.6,-12.9025,-64.4999999403954));
#418=CARTESIAN_POINT('Origin',(92.3,-12.9025,-64.4999999403954));
#419=CARTESIAN_POINT('',(10.6,-62.9025,-64.4999999403954));
#420=CARTESIAN_POINT('Origin',(12.3,-62.9025,-64.4999999403954));
#421=CARTESIAN_POINT('Origin',(97.3,-8.09102277188838,-61.4999999403953));
#422=CARTESIAN_POINT('',(97.3,-60.4025,-61.4999999403953));
#423=CARTESIAN_POINT('',(97.3,-8.09102277188838,-61.4999999403953));
#424=CARTESIAN_POINT('',(97.3,-60.4025,-62.9999999403953));
#425=CARTESIAN_POINT('Origin',(89.8,-60.4025,-62.9999999403953));
#426=CARTESIAN_POINT('',(89.8,-67.9025,-61.4999999403954));
#427=CARTESIAN_POINT('Origin',(89.8,-60.4025,-61.4999999403954));
#428=CARTESIAN_POINT('',(89.8,-67.9025,-62.9999999403953));
#429=CARTESIAN_POINT('Origin',(14.7964871137977,-60.4025,-64.4999999403954));
#430=CARTESIAN_POINT('',(14.7964871137977,-67.9025,-61.4999999403954));
#431=CARTESIAN_POINT('',(7.29648711379774,-60.4025,-61.4999999403954));
#432=CARTESIAN_POINT('Origin',(14.7964871137977,-60.4025,-61.4999999403954));
#433=CARTESIAN_POINT('',(7.29648711379774,-60.4025,-64.4999999403954));
#434=CARTESIAN_POINT('',(14.7964871137977,-67.9025,-64.4999999403954));
#435=CARTESIAN_POINT('Origin',(7.29648711379774,-8.09102277188838,-64.4999999403953));
#436=CARTESIAN_POINT('',(7.29648711379774,-15.4020227718884,-61.4999999403953));
#437=CARTESIAN_POINT('',(7.29648711379774,-8.09102277188838,-61.4999999403953));
#438=CARTESIAN_POINT('',(7.29648711379774,-15.4020227718884,-62.9999999403953));
#439=CARTESIAN_POINT('Origin',(14.7964871137977,-15.4020227718884,-62.9999999403953));
#440=CARTESIAN_POINT('',(14.7964871137977,-7.90202277188838,-61.4999999403953));
#441=CARTESIAN_POINT('Origin',(14.7964871137977,-15.4020227718884,-61.4999999403953));
#442=CARTESIAN_POINT('',(14.7964871137977,-7.90202277188838,-62.9999999403953));
#443=CARTESIAN_POINT('Origin',(92.3,-62.9025,-36.4999999403954));
#444=CARTESIAN_POINT('',(90.6,-62.9025,-61.4999999403954));
#445=CARTESIAN_POINT('Origin',(92.3,-62.9025,-61.4999999403954));
#446=CARTESIAN_POINT('',(90.6,-62.9025,-36.4999999403954));
#447=CARTESIAN_POINT('Origin',(12.3,-12.9025,-36.4999999403954));
#448=CARTESIAN_POINT('',(10.6,-12.9025,-61.4999999403953));
#449=CARTESIAN_POINT('Origin',(12.3,-12.9025,-61.4999999403953));
#450=CARTESIAN_POINT('',(10.6,-12.9025,-36.4999999403954));
#451=CARTESIAN_POINT('Origin',(92.3,-12.9025,-36.4999999403954));
#452=CARTESIAN_POINT('',(90.6,-12.9025,-61.4999999403953));
#453=CARTESIAN_POINT('Origin',(92.3,-12.9025,-61.4999999403953));
#454=CARTESIAN_POINT('',(90.6,-12.9025,-36.4999999403954));
#455=CARTESIAN_POINT('Origin',(12.3,-62.9025,-36.4999999403954));
#456=CARTESIAN_POINT('',(10.6,-62.9025,-61.4999999403954));
#457=CARTESIAN_POINT('Origin',(12.3,-62.9025,-61.4999999403954));
#458=CARTESIAN_POINT('',(10.6,-62.9025,-36.4999999403954));
#459=CARTESIAN_POINT('Origin',(7.48548711379774,-67.9025,-64.4999999403954));
#460=CARTESIAN_POINT('',(97.3,-67.9025,-61.4999999403954));
#461=CARTESIAN_POINT('Origin',(7.48548711379774,-7.90202277188838,-61.4999999403953));
#462=CARTESIAN_POINT('',(7.48548711379774,-7.90202277188838,-61.4999999403953));
#463=CARTESIAN_POINT('Origin',(7.48548711379774,-67.9025,-61.4999999403954));
#464=UNCERTAINTY_MEASURE_WITH_UNIT(LENGTH_MEASURE(0.01),#468,
'DISTANCE_ACCURACY_VALUE',
'Maximum model space distance between geometric entities at asserted c
onnectivities');
#465=UNCERTAINTY_MEASURE_WITH_UNIT(LENGTH_MEASURE(0.01),#468,
'DISTANCE_ACCURACY_VALUE',
'Maximum model space distance between geometric entities at asserted c
onnectivities');
#466=(
GEOMETRIC_REPRESENTATION_CONTEXT(3)
GLOBAL_UNCERTAINTY_ASSIGNED_CONTEXT((#464))
GLOBAL_UNIT_ASSIGNED_CONTEXT((#468,#469,#470))
REPRESENTATION_CONTEXT('','3D')
);
#467=(
GEOMETRIC_REPRESENTATION_CONTEXT(3)
GLOBAL_UNCERTAINTY_ASSIGNED_CONTEXT((#465))
GLOBAL_UNIT_ASSIGNED_CONTEXT((#468,#469,#470))
REPRESENTATION_CONTEXT('','3D')
);
#468=(
LENGTH_UNIT()
NAMED_UNIT(*)
SI_UNIT(.MILLI.,.METRE.)
);
#469=(
NAMED_UNIT(*)
PLANE_ANGLE_UNIT()
SI_UNIT($,.RADIAN.)
);
#470=(
NAMED_UNIT(*)
SI_UNIT($,.STERADIAN.)
SOLID_ANGLE_UNIT()
);
#471=SHAPE_DEFINITION_REPRESENTATION(#472,#473);
#472=PRODUCT_DEFINITION_SHAPE('',$,#475);
#473=SHAPE_REPRESENTATION('',(#276),#466);
#474=PRODUCT_DEFINITION_CONTEXT('part definition',#479,'design');
#475=PRODUCT_DEFINITION('Hermes 1','Hermesnew',#476,#474);
#476=PRODUCT_DEFINITION_FORMATION('',$,#481);
#477=PRODUCT_RELATED_PRODUCT_CATEGORY('Hermesnew','Hermesnew',(#481));
#478=APPLICATION_PROTOCOL_DEFINITION('international standard',
'automotive_design',2009,#479);
#479=APPLICATION_CONTEXT(
'Core Data for Automotive Mechanical Design Process');
#480=PRODUCT_CONTEXT('part definition',#479,'mechanical');
#481=PRODUCT('Hermes 1','Hermesnew','KiCad electronic assembly',(#480));
#482=PRESENTATION_STYLE_ASSIGNMENT((#483));
#483=SURFACE_STYLE_USAGE(.BOTH.,#484);
#484=SURFACE_SIDE_STYLE('',(#485));
#485=SURFACE_STYLE_FILL_AREA(#486);
#486=FILL_AREA_STYLE('Steel - Satin',(#487));
#487=FILL_AREA_STYLE_COLOUR('Steel - Satin',#488);
#488=COLOUR_RGB('Steel - Satin',0.627450980392157,0.627450980392157,0.627450980392157);
ENDSEC;
END-ISO-10303-21;
